SplineFontDB: 3.0
FontName: Judson-Italic
FullName: Judson Italic
FamilyName: Judson
Weight: Regular
Copyright: Copyright (c) 2010, 2011 by Daniel Johnson.  Released under the terms of the SIL Open Font License v1.1.
Version: 20110429
ItalicAngle: -9.5
UnderlinePosition: -100
UnderlineWidth: 50
Ascent: 800
Descent: 200
LayerCount: 2
Layer: 0 1 "Back"  1
Layer: 1 1 "Fore"  0
XUID: [1021 288 713564382 9658282]
FSType: 0
OS2Version: 2
OS2_WeightWidthSlopeOnly: 0
OS2_UseTypoMetrics: 1
CreationTime: 1283281667
ModificationTime: 1304074885
PfmFamily: 17
TTFWeight: 400
TTFWidth: 5
LineGap: 0
VLineGap: 0
Panose: 2 0 6 3 0 0 0 0 0 0
OS2TypoAscent: 800
OS2TypoAOffset: 0
OS2TypoDescent: -270
OS2TypoDOffset: 0
OS2TypoLinegap: 0
OS2WinAscent: 902
OS2WinAOffset: 0
OS2WinDescent: 270
OS2WinDOffset: 0
HheadAscent: 902
HheadAOffset: 0
HheadDescent: -270
HheadDOffset: 0
OS2SubXSize: 650
OS2SubYSize: 699
OS2SubXOff: 23
OS2SubYOff: 140
OS2SupXSize: 650
OS2SupYSize: 699
OS2SupXOff: -79
OS2SupYOff: 479
OS2StrikeYSize: 49
OS2StrikeYPos: 258
OS2Vendor: 'PfEd'
OS2CodePages: 00000093.00000000
OS2UnicodeRanges: a00000ff.1000000b.00000000.00000000
Lookup: 260 0 0 "'blwm' Below Base Mark lookup 0"  {"'blwm' Below Base Mark lookup 0 subtable"  } ['blwm' ('DFLT' <'dflt' > 'grek' <'dflt' > 'latn' <'dflt' > ) ]
Lookup: 260 0 0 "'mark' Mark Positioning lookup 1"  {"'mark' Mark Positioning lookup 1 subtable"  } ['mark' ('DFLT' <'dflt' > 'grek' <'dflt' > 'latn' <'dflt' > ) ]
Lookup: 260 0 0 "'abvm' Above Base Mark lookup 2"  {"'abvm' Above Base Mark lookup 2 subtable"  } ['abvm' ('DFLT' <'dflt' > 'grek' <'dflt' > 'latn' <'dflt' > ) ]
Lookup: 262 0 0 "'mkmk' Mark to Mark lookup 3"  {"'mkmk' Mark to Mark lookup 3 subtable"  } ['mkmk' ('DFLT' <'dflt' > 'grek' <'dflt' > 'latn' <'dflt' > ) ]

StartChar: .notdef
Encoding: 65536 -1 0
Width: 500
Flags: W
LayerCount: 2
Fore
SplineSet
50 0 m 1,0,-1
 50 533 l 1,1,-1
 450 533 l 1,2,-1
 450 0 l 1,3,-1
 50 0 l 1,0,-1
100 50 m 1,4,-1
 400 50 l 1,5,-1
 400 483 l 1,6,-1
 100 483 l 1,7,-1
 100 50 l 1,4,-1
EndSplineSet
EndChar

StartChar: exclam
Encoding: 33 33 4
Width: 237
GlyphClass: 2
Flags: W
LayerCount: 2
Fore
SplineSet
25 42 m 0,0,1
 25 70 25 70 46 92 c 128,-1,2
 67 114 67 114 95 114 c 0,3,4
 116 114 116 114 131.5 99 c 128,-1,5
 147 84 147 84 147 63 c 0,6,7
 147 36 147 36 125 13 c 128,-1,8
 103 -10 103 -10 75 -10 c 0,9,10
 55 -10 55 -10 40 5 c 128,-1,11
 25 20 25 20 25 42 c 0,0,1
107 186 m 0,12,13
 95 186 95 186 95 231 c 0,14,15
 95 263 95 263 105.5 399 c 128,-1,16
 116 535 116 535 125 585 c 1,17,18
 132 630 132 630 181 630 c 0,19,20
 200 630 200 630 212 620.5 c 128,-1,21
 224 611 224 611 224 594 c 0,22,23
 224 588 224 588 223 585 c 0,24,25
 217 549 217 549 182.5 411 c 128,-1,26
 148 273 148 273 142 254 c 0,27,28
 121 186 121 186 107 186 c 0,12,13
EndSplineSet
EndChar

StartChar: quotedbl
Encoding: 34 34 5
Width: 334
GlyphClass: 2
Flags: W
LayerCount: 2
Fore
SplineSet
267 408 m 0,0,1
 252 408 252 408 252 501 c 0,2,3
 252 580 252 580 258 620 c 0,4,5
 265 665 265 665 310 665 c 0,6,7
 349 665 349 665 349 631 c 0,8,9
 349 620 349 620 344 599.5 c 128,-1,10
 339 579 339 579 333.5 561.5 c 128,-1,11
 328 544 328 544 321.5 524.5 c 128,-1,12
 315 505 315 505 314 502 c 0,13,14
 283 408 283 408 267 408 c 0,0,1
107 408 m 0,15,16
 92 408 92 408 92 501 c 0,17,18
 92 580 92 580 98 620 c 0,19,20
 105 665 105 665 150 665 c 0,21,22
 189 665 189 665 189 631 c 0,23,24
 189 620 189 620 184 599.5 c 128,-1,25
 179 579 179 579 173.5 561.5 c 128,-1,26
 168 544 168 544 161.5 524.5 c 128,-1,27
 155 505 155 505 154 502 c 0,28,29
 123 408 123 408 107 408 c 0,15,16
EndSplineSet
EndChar

StartChar: numbersign
Encoding: 35 35 6
Width: 487
GlyphClass: 2
Flags: W
LayerCount: 2
Fore
SplineSet
434 230 m 1,0,-1
 429 196 l 1,1,-1
 314 196 l 1,2,-1
 254 0 l 1,3,-1
 219 0 l 1,4,-1
 279 196 l 1,5,-1
 154 196 l 1,6,-1
 94 0 l 1,7,-1
 59 0 l 1,8,-1
 119 196 l 1,9,-1
 24 196 l 1,10,-1
 29 230 l 1,11,-1
 129 230 l 1,12,-1
 169 356 l 1,13,-1
 66 356 l 1,14,-1
 71 390 l 1,15,-1
 179 390 l 1,16,-1
 239 585 l 1,17,-1
 274 585 l 1,18,-1
 214 390 l 1,19,-1
 339 390 l 1,20,-1
 399 585 l 1,21,-1
 434 585 l 1,22,-1
 374 390 l 1,23,-1
 476 390 l 1,24,-1
 471 356 l 1,25,-1
 364 356 l 1,26,-1
 324 230 l 1,27,-1
 434 230 l 1,0,-1
164 230 m 1,28,-1
 289 230 l 1,29,-1
 329 356 l 1,30,-1
 204 356 l 1,31,-1
 164 230 l 1,28,-1
EndSplineSet
EndChar

StartChar: dollar
Encoding: 36 36 7
Width: 456
GlyphClass: 2
Flags: W
LayerCount: 2
Fore
SplineSet
257 353 m 1,0,1
 290 332 290 332 301.5 325 c 128,-1,2
 313 318 313 318 339.5 297 c 128,-1,3
 366 276 366 276 377 261 c 128,-1,4
 388 246 388 246 398.5 222 c 128,-1,5
 409 198 409 198 409 173 c 0,6,7
 409 87 409 87 343 39 c 128,-1,8
 277 -9 277 -9 196 -10 c 1,9,-1
 192 -36 l 1,10,-1
 162 -36 l 1,11,-1
 166 -9 l 1,12,13
 124 -5 124 -5 86.5 8.5 c 128,-1,14
 49 22 49 22 32 34 c 2,15,-1
 15 46 l 1,16,-1
 30 139 l 1,17,-1
 52 139 l 1,18,19
 53 84 53 84 86 56.5 c 128,-1,20
 119 29 119 29 172 25 c 1,21,-1
 211 256 l 1,22,23
 177 278 177 278 164 287.5 c 128,-1,24
 151 297 151 297 126 319.5 c 128,-1,25
 101 342 101 342 90.5 365.5 c 128,-1,26
 80 389 80 389 80 417 c 0,27,28
 80 486 80 486 138.5 539.5 c 128,-1,29
 197 593 197 593 268 595 c 1,30,-1
 272 620 l 1,31,-1
 302 620 l 1,32,-1
 297 594 l 1,33,34
 330 590 330 590 360.5 576.5 c 128,-1,35
 391 563 391 563 405 552 c 2,36,-1
 419 540 l 1,37,-1
 406 458 l 1,38,-1
 384 458 l 1,39,40
 384 549 384 549 292 560 c 1,41,-1
 257 353 l 1,0,1
230 371 m 1,42,-1
 262 561 l 1,43,44
 217 559 217 559 189 527 c 128,-1,45
 161 495 161 495 161 460 c 0,46,47
 161 416 161 416 230 371 c 1,42,-1
238 239 m 1,48,-1
 202 24 l 1,49,50
 253 26 253 26 287 54.5 c 128,-1,51
 321 83 321 83 321 136 c 0,52,53
 321 168 321 168 300 190.5 c 128,-1,54
 279 213 279 213 238 239 c 1,48,-1
EndSplineSet
EndChar

StartChar: percent
Encoding: 37 37 8
Width: 542
GlyphClass: 2
Flags: W
LayerCount: 2
Fore
SplineSet
512 565 m 1,0,-1
 83 20 l 1,1,-1
 43 20 l 1,2,-1
 472 565 l 1,3,-1
 512 565 l 1,0,-1
187 554 m 0,4,5
 166 554 166 554 145 518 c 128,-1,6
 124 482 124 482 124 443 c 0,7,8
 124 416 124 416 133.5 397 c 128,-1,9
 143 378 143 378 157 378 c 0,10,11
 178 378 178 378 199 414.5 c 128,-1,12
 220 451 220 451 220 489 c 0,13,14
 220 516 220 516 210.5 535 c 128,-1,15
 201 554 201 554 187 554 c 0,4,5
63 444 m 0,16,17
 63 503 63 503 104 545.5 c 128,-1,18
 145 588 145 588 192 588 c 0,19,20
 229 588 229 588 255 559.5 c 128,-1,21
 281 531 281 531 281 488 c 0,22,23
 281 429 281 429 240 386.5 c 128,-1,24
 199 344 199 344 152 344 c 0,25,26
 115 344 115 344 89 372.5 c 128,-1,27
 63 401 63 401 63 444 c 0,16,17
397 207 m 0,28,29
 376 207 376 207 355 171 c 128,-1,30
 334 135 334 135 334 96 c 0,31,32
 334 69 334 69 343.5 50 c 128,-1,33
 353 31 353 31 367 31 c 0,34,35
 388 31 388 31 409 67 c 128,-1,36
 430 103 430 103 430 142 c 0,37,38
 430 169 430 169 420.5 188 c 128,-1,39
 411 207 411 207 397 207 c 0,28,29
273 97 m 0,40,41
 273 156 273 156 314 198.5 c 128,-1,42
 355 241 355 241 402 241 c 0,43,44
 439 241 439 241 465 212.5 c 128,-1,45
 491 184 491 184 491 141 c 0,46,47
 491 82 491 82 449.5 39.5 c 128,-1,48
 408 -3 408 -3 361 -3 c 0,49,50
 324 -3 324 -3 298.5 25.5 c 128,-1,51
 273 54 273 54 273 97 c 0,40,41
EndSplineSet
EndChar

StartChar: ampersand
Encoding: 38 38 9
Width: 605
GlyphClass: 2
Flags: W
LayerCount: 2
Fore
SplineSet
339 560 m 128,-1,1
 304 560 304 560 286.5 525 c 128,-1,2
 269 490 269 490 269 435 c 0,3,4
 269 403 269 403 277 357 c 1,5,6
 326 389 326 389 350 420 c 128,-1,7
 374 451 374 451 374 500 c 0,8,0
 374 560 374 560 339 560 c 128,-1,1
584 345 m 1,9,-1
 580 324 l 1,10,11
 523 324 523 324 514 305 c 0,12,13
 442 156 442 156 382 90 c 1,14,15
 416 44 416 44 445 44 c 0,16,17
 483 44 483 44 499 51 c 128,-1,18
 515 58 515 58 535 81 c 1,19,-1
 545 71 l 1,20,21
 501 -10 501 -10 428 -10 c 0,22,23
 371 -10 371 -10 323 36 c 1,24,25
 257 -10 257 -10 183 -10 c 0,26,27
 -1 -10 -1 -10 -1 100 c 0,28,29
 -1 138 -1 138 14.5 169 c 128,-1,30
 30 200 30 200 58.5 224.5 c 128,-1,31
 87 249 87 249 116 266.5 c 128,-1,32
 145 284 145 284 184 305 c 0,33,34
 193 310 193 310 198 312 c 1,35,36
 187 368 187 368 187 424 c 0,37,38
 187 472 187 472 200 507 c 128,-1,39
 213 542 213 542 234.5 560 c 128,-1,40
 256 578 256 578 278.5 586.5 c 128,-1,41
 301 595 301 595 325 595 c 0,42,43
 369 595 369 595 393 568 c 128,-1,44
 417 541 417 541 417 501 c 0,45,46
 417 444 417 444 381.5 402.5 c 128,-1,47
 346 361 346 361 285 320 c 1,48,49
 313 201 313 201 365 116 c 1,50,51
 412 175 412 175 475 308 c 1,52,53
 468 324 468 324 416 324 c 1,54,-1
 420 345 l 1,55,-1
 584 345 l 1,9,-1
304 57 m 1,56,57
 241 132 241 132 208 269 c 1,58,59
 153 232 153 232 128 202 c 128,-1,60
 103 172 103 172 103 122 c 0,61,62
 103 32 103 32 227 32 c 0,63,64
 266 32 266 32 304 57 c 1,56,57
EndSplineSet
EndChar

StartChar: quotesingle
Encoding: 39 39 10
Width: 174
GlyphClass: 2
Flags: W
LayerCount: 2
Fore
SplineSet
107 408 m 0,0,1
 92 408 92 408 92 501 c 0,2,3
 92 580 92 580 98 620 c 0,4,5
 105 665 105 665 150 665 c 0,6,7
 189 665 189 665 189 631 c 0,8,9
 189 620 189 620 184 599.5 c 128,-1,10
 179 579 179 579 173.5 561.5 c 128,-1,11
 168 544 168 544 161.5 524.5 c 128,-1,12
 155 505 155 505 154 502 c 0,13,14
 123 408 123 408 107 408 c 0,0,1
EndSplineSet
EndChar

StartChar: parenleft
Encoding: 40 40 11
Width: 248
GlyphClass: 2
Flags: W
LayerCount: 2
Fore
SplineSet
53 315 m 0,0,1
 84 501 84 501 248 669 c 0,2,3
 259 680 259 680 266 680 c 128,-1,4
 273 680 273 680 273 671 c 0,5,6
 273 668 273 668 269 660 c 0,7,8
 268 659 268 659 255 638 c 128,-1,9
 242 617 242 617 239.5 611.5 c 128,-1,10
 237 606 237 606 224.5 585 c 128,-1,11
 212 564 212 564 207.5 552 c 128,-1,12
 203 540 203 540 192.5 517 c 128,-1,13
 182 494 182 494 176 475 c 128,-1,14
 170 456 170 456 162 429.5 c 128,-1,15
 154 403 154 403 148 374.5 c 128,-1,16
 142 346 142 346 137 315 c 0,17,18
 123 232 123 232 123 165 c 0,19,20
 123 138 123 138 124.5 115 c 128,-1,21
 126 92 126 92 131 67.5 c 128,-1,22
 136 43 136 43 137.5 33.5 c 128,-1,23
 139 24 139 24 146 -3 c 2,24,-1
 154 -30 l 2,25,26
 156 -38 156 -38 153 -44 c 128,-1,27
 150 -50 150 -50 144 -50 c 0,28,29
 136 -50 136 -50 129 -39 c 0,30,31
 46 93 46 93 46 237 c 0,32,33
 46 268 46 268 53 315 c 0,0,1
EndSplineSet
EndChar

StartChar: parenright
Encoding: 41 41 12
Width: 247
GlyphClass: 2
Flags: W
LayerCount: 2
Fore
SplineSet
215 315 m 0,0,1
 184 130 184 130 19 -39 c 0,2,3
 8 -50 8 -50 2 -50 c 0,4,5
 -6 -50 -6 -50 -6 -41 c 0,6,7
 -6 -38 -6 -38 -2 -30 c 2,8,9
 -2 -30 -2 -30 13 -5 c 256,10,11
 28 20 28 20 31.5 25.5 c 128,-1,12
 35 31 35 31 49 56.5 c 128,-1,13
 63 82 63 82 68 95.5 c 128,-1,14
 73 109 73 109 84.5 137.5 c 128,-1,15
 96 166 96 166 102.5 190 c 128,-1,16
 109 214 109 214 117 247 c 128,-1,17
 125 280 125 280 131 315 c 0,18,19
 144 392 144 392 144 465 c 0,20,21
 144 492 144 492 142.5 515 c 128,-1,22
 141 538 141 538 136 562.5 c 128,-1,23
 131 587 131 587 129.5 596.5 c 128,-1,24
 128 606 128 606 120 633 c 2,25,-1
 113 660 l 2,26,27
 111 668 111 668 114.5 674 c 128,-1,28
 118 680 118 680 124 680 c 0,29,30
 131 680 131 680 138 669 c 0,31,32
 221 537 221 537 221 393 c 0,33,34
 221 356 221 356 215 315 c 0,0,1
EndSplineSet
EndChar

StartChar: asterisk
Encoding: 42 42 13
Width: 360
GlyphClass: 2
Flags: W
LayerCount: 2
Fore
SplineSet
244 358 m 0,0,1
 228 358 228 358 223 368 c 128,-1,2
 218 378 218 378 218 401 c 0,3,4
 218 430 218 430 221 448 c 0,5,6
 223 456 223 456 224 459 c 1,7,8
 217 455 217 455 209 455 c 0,9,10
 203 455 203 455 197 458 c 1,11,12
 197 451 197 451 196 446 c 0,13,14
 193 427 193 427 184.5 402 c 128,-1,15
 176 377 176 377 170 371 c 0,16,17
 157 358 157 358 142 358 c 0,18,19
 125 358 125 358 111.5 370.5 c 128,-1,20
 98 383 98 383 98 399 c 0,21,22
 98 411 98 411 108 423 c 0,23,24
 115 431 115 431 148.5 446 c 128,-1,25
 182 461 182 461 193 462 c 1,26,27
 186 470 186 470 189 487 c 1,28,29
 180 482 180 482 152 476 c 128,-1,30
 124 470 124 470 108 470 c 0,31,32
 82 470 82 470 82 498 c 0,33,34
 82 520 82 520 98 538.5 c 128,-1,35
 114 557 114 557 131 557 c 0,36,37
 133 557 133 557 141 555 c 0,38,39
 150 552 150 552 169.5 527.5 c 128,-1,40
 189 503 189 503 191 492 c 1,41,42
 199 505 199 505 216 507 c 1,43,44
 209 513 209 513 198 542 c 128,-1,45
 187 571 187 571 187 583 c 0,46,47
 187 600 187 600 202 610 c 128,-1,48
 217 620 217 620 237 620 c 0,49,50
 275 620 275 620 275 591 c 0,51,52
 275 579 275 579 253 546.5 c 128,-1,53
 231 514 231 514 220 507 c 1,54,55
 236 505 236 505 239 491 c 1,56,57
 243 500 243 500 272.5 526 c 128,-1,58
 302 552 302 552 312 555 c 0,59,60
 320 557 320 557 323 557 c 0,61,62
 336 557 336 557 345 545 c 128,-1,63
 354 533 354 533 354 516 c 0,64,65
 354 497 354 497 344 483.5 c 128,-1,66
 334 470 334 470 317 470 c 128,-1,67
 300 470 300 470 272.5 476 c 128,-1,68
 245 482 245 482 239 487 c 1,69,70
 242 477 242 477 227 462 c 1,71,72
 238 462 238 462 268 446.5 c 128,-1,73
 298 431 298 431 302 423 c 0,74,75
 305 416 305 416 305 409 c 0,76,77
 305 390 305 390 284 374 c 128,-1,78
 263 358 263 358 244 358 c 0,0,1
EndSplineSet
EndChar

StartChar: plus
Encoding: 43 43 14
Width: 404
GlyphClass: 2
Flags: W
LayerCount: 2
Fore
SplineSet
230 296 m 1,0,-1
 206 155 l 1,1,-1
 162 155 l 1,2,-1
 186 296 l 1,3,-1
 45 296 l 1,4,-1
 52 340 l 1,5,-1
 193 340 l 1,6,-1
 216 481 l 1,7,-1
 260 481 l 1,8,-1
 237 340 l 1,9,-1
 378 340 l 1,10,-1
 371 296 l 1,11,-1
 230 296 l 1,0,-1
EndSplineSet
EndChar

StartChar: comma
Encoding: 44 44 15
Width: 229
GlyphClass: 2
Flags: W
LayerCount: 2
Fore
SplineSet
18 33 m 0,0,1
 18 64 18 64 41.5 82 c 128,-1,2
 65 100 65 100 86 100 c 0,3,4
 116 100 116 100 133.5 76 c 128,-1,5
 151 52 151 52 151 17 c 0,6,7
 151 -84 151 -84 4 -129 c 1,8,-1
 9 -101 l 1,9,10
 35 -98 35 -98 65 -73.5 c 128,-1,11
 95 -49 95 -49 101 -18 c 0,12,13
 104 1 104 1 103 4 c 128,-1,14
 102 7 102 7 95 7 c 0,15,16
 92 7 92 7 82.5 0.5 c 128,-1,17
 73 -6 73 -6 62 -6 c 0,18,19
 42 -6 42 -6 30 4.5 c 128,-1,20
 18 15 18 15 18 33 c 0,0,1
EndSplineSet
EndChar

StartChar: hyphen
Encoding: 45 45 16
Width: 392
GlyphClass: 2
Flags: W
LayerCount: 2
Fore
SplineSet
77 340 m 1,0,-1
 341 340 l 1,1,-1
 334 296 l 1,2,-1
 70 296 l 1,3,-1
 77 340 l 1,0,-1
EndSplineSet
EndChar

StartChar: period
Encoding: 46 46 17
Width: 221
GlyphClass: 2
Flags: W
LayerCount: 2
Fore
SplineSet
20 42 m 0,0,1
 20 70 20 70 41 92 c 128,-1,2
 62 114 62 114 90 114 c 0,3,4
 111 114 111 114 126.5 99 c 128,-1,5
 142 84 142 84 142 63 c 0,6,7
 142 36 142 36 120 13 c 128,-1,8
 98 -10 98 -10 70 -10 c 0,9,10
 50 -10 50 -10 35 5 c 128,-1,11
 20 20 20 20 20 42 c 0,0,1
EndSplineSet
EndChar

StartChar: slash
Encoding: 47 47 18
Width: 465
GlyphClass: 2
Flags: W
LayerCount: 2
Fore
SplineSet
-21 -10 m 1,0,-1
 472 612 l 1,1,-1
 498 594 l 1,2,-1
 5 -28 l 1,3,-1
 -21 -10 l 1,0,-1
EndSplineSet
EndChar

StartChar: zero
Encoding: 48 48 19
Width: 490
GlyphClass: 2
Flags: W
LayerCount: 2
Fore
SplineSet
339 564 m 0,0,1
 296 564 296 564 255 506 c 128,-1,2
 214 448 214 448 189.5 363 c 128,-1,3
 165 278 165 278 165 198 c 0,4,5
 165 121 165 121 187 71 c 128,-1,6
 209 21 209 21 249 21 c 0,7,8
 293 21 293 21 334 78.5 c 128,-1,9
 375 136 375 136 399 221 c 128,-1,10
 423 306 423 306 423 386 c 0,11,12
 423 464 423 464 401 514 c 128,-1,13
 379 564 379 564 339 564 c 0,0,1
83 292 m 0,14,15
 104 419 104 419 175.5 507 c 128,-1,16
 247 595 247 595 345 595 c 0,17,18
 426 595 426 595 469 533 c 128,-1,19
 512 471 512 471 512 372 c 0,20,21
 512 331 512 331 505 292 c 0,22,23
 484 165 484 165 412.5 77.5 c 128,-1,24
 341 -10 341 -10 243 -10 c 0,25,26
 162 -10 162 -10 119 51.5 c 128,-1,27
 76 113 76 113 76 212 c 0,28,29
 76 254 76 254 83 292 c 0,14,15
EndSplineSet
EndChar

StartChar: one
Encoding: 49 49 20
Width: 490
GlyphClass: 2
Flags: W
LayerCount: 2
Fore
SplineSet
420 585 m 1,0,-1
 332 61 l 1,1,2
 332 61 332 61 332 58 c 0,3,4
 332 39 332 39 370 30 c 128,-1,5
 408 21 408 21 449 21 c 1,6,-1
 445 0 l 1,7,-1
 107 0 l 1,8,-1
 111 21 l 1,9,10
 154 21 154 21 195.5 30.5 c 128,-1,11
 237 40 237 40 240 61 c 2,12,-1
 304 444 l 1,13,14
 253 416 253 416 186 371 c 1,15,-1
 182 388 l 1,16,-1
 393 585 l 1,17,-1
 420 585 l 1,0,-1
EndSplineSet
EndChar

StartChar: two
Encoding: 50 50 21
Width: 490
GlyphClass: 2
Flags: W
LayerCount: 2
Fore
SplineSet
40 0 m 1,0,1
 42 12 42 12 79.5 45 c 128,-1,2
 117 78 117 78 169 121.5 c 128,-1,3
 221 165 221 165 272.5 215.5 c 128,-1,4
 324 266 324 266 360 326 c 128,-1,5
 396 386 396 386 396 439 c 0,6,7
 396 479 396 479 376.5 507 c 128,-1,8
 357 535 357 535 316 535 c 0,9,10
 266 535 266 535 228 520 c 128,-1,11
 190 505 190 505 174 487 c 128,-1,12
 158 469 158 469 146.5 454 c 128,-1,13
 135 439 135 439 131 439 c 0,14,15
 124 439 124 439 125 449 c 0,16,17
 126 457 126 457 134.5 473 c 128,-1,18
 143 489 143 489 161 510.5 c 128,-1,19
 179 532 179 532 202.5 550.5 c 128,-1,20
 226 569 226 569 261.5 582 c 128,-1,21
 297 595 297 595 337 595 c 0,22,23
 419 595 419 595 458 557.5 c 128,-1,24
 497 520 497 520 497 460 c 0,25,26
 497 408 497 408 447 342 c 128,-1,27
 397 276 397 276 337 225 c 128,-1,28
 277 174 277 174 225.5 129 c 128,-1,29
 174 84 174 84 172 70 c 1,30,-1
 383 70 l 1,31,32
 398 76 398 76 418.5 92.5 c 128,-1,33
 439 109 439 109 452 133 c 1,34,-1
 472 133 l 1,35,-1
 412 0 l 1,36,-1
 40 0 l 1,0,1
EndSplineSet
EndChar

StartChar: three
Encoding: 51 51 22
Width: 490
GlyphClass: 2
Flags: W
LayerCount: 2
Fore
SplineSet
261 291 m 0,0,1
 254 291 254 291 249 294.5 c 128,-1,2
 244 298 244 298 244.5 303 c 128,-1,3
 245 308 245 308 252 311 c 1,4,5
 277 318 277 318 300 329 c 128,-1,6
 323 340 323 340 348.5 357.5 c 128,-1,7
 374 375 374 375 389.5 402.5 c 128,-1,8
 405 430 405 430 405 463 c 0,9,10
 405 497 405 497 381 516 c 128,-1,11
 357 535 357 535 312 535 c 0,12,13
 271 535 271 535 239.5 523 c 128,-1,14
 208 511 208 511 195 496 c 128,-1,15
 182 481 182 481 172.5 469 c 128,-1,16
 163 457 163 457 159 457 c 0,17,18
 152 457 152 457 153 467 c 0,19,20
 158 498 158 498 208.5 546.5 c 128,-1,21
 259 595 259 595 333 595 c 0,22,23
 418 595 418 595 456.5 568.5 c 128,-1,24
 495 542 495 542 495 490 c 0,25,26
 495 395 495 395 373 331 c 1,27,28
 415 321 415 321 443.5 280 c 128,-1,29
 472 239 472 239 472 192 c 0,30,31
 472 102 472 102 413.5 46 c 128,-1,32
 355 -10 355 -10 234 -10 c 0,33,34
 182 -10 182 -10 140 6.5 c 128,-1,35
 98 23 98 23 79 41 c 128,-1,36
 60 59 60 59 60 71 c 0,37,38
 60 126 60 126 105 126 c 0,39,40
 117 126 117 126 123 109.5 c 128,-1,41
 129 93 129 93 134 73 c 128,-1,42
 139 53 139 53 164 36.5 c 128,-1,43
 189 20 189 20 233 20 c 0,44,45
 276 20 276 20 307 34 c 128,-1,46
 338 48 338 48 355 72.5 c 128,-1,47
 372 97 372 97 379.5 124 c 128,-1,48
 387 151 387 151 387 182 c 0,49,50
 387 227 387 227 369.5 261.5 c 128,-1,51
 352 296 352 296 311 296 c 0,52,53
 299 296 299 296 285 293.5 c 128,-1,54
 271 291 271 291 261 291 c 0,0,1
EndSplineSet
EndChar

StartChar: four
Encoding: 52 52 23
Width: 490
GlyphClass: 2
Flags: W
LayerCount: 2
Fore
SplineSet
464 585 m 1,0,-1
 400 206 l 1,1,-1
 481 206 l 1,2,-1
 476 176 l 1,3,-1
 395 176 l 1,4,-1
 373 41 l 1,5,6
 379 21 379 21 433 21 c 1,7,-1
 429 0 l 1,8,-1
 213 0 l 1,9,-1
 217 21 l 1,10,11
 272 21 272 21 283 41 c 1,12,-1
 305 176 l 1,13,-1
 68 176 l 1,14,-1
 412 585 l 1,15,-1
 464 585 l 1,0,-1
310 206 m 1,16,-1
 355 475 l 1,17,-1
 128 206 l 1,18,-1
 310 206 l 1,16,-1
EndSplineSet
EndChar

StartChar: five
Encoding: 53 53 24
Width: 490
GlyphClass: 2
Flags: W
LayerCount: 2
Fore
SplineSet
207 387 m 1,0,1
 352 387 352 387 414.5 342 c 128,-1,2
 477 297 477 297 477 227 c 0,3,4
 477 130 477 130 418 60 c 128,-1,5
 359 -10 359 -10 246 -10 c 0,6,7
 186 -10 186 -10 140.5 6.5 c 128,-1,8
 95 23 95 23 77.5 40.5 c 128,-1,9
 60 58 60 58 60 70 c 0,10,11
 60 126 60 126 105 126 c 0,12,13
 115 126 115 126 119.5 115 c 128,-1,14
 124 104 124 104 128.5 88.5 c 128,-1,15
 133 73 133 73 142.5 57.5 c 128,-1,16
 152 42 152 42 178 31 c 128,-1,17
 204 20 204 20 245 20 c 0,18,19
 293 20 293 20 328 53 c 128,-1,20
 363 86 363 86 377 127.5 c 128,-1,21
 391 169 391 169 391 210 c 0,22,23
 391 348 391 348 160 348 c 1,24,-1
 233 585 l 1,25,-1
 512 585 l 1,26,-1
 476 515 l 1,27,-1
 246 515 l 1,28,-1
 207 387 l 1,0,1
EndSplineSet
EndChar

StartChar: six
Encoding: 54 54 25
Width: 490
GlyphClass: 2
Flags: W
LayerCount: 2
Fore
SplineSet
305 336 m 0,0,1
 239 336 239 336 201 313 c 1,2,3
 173 223 173 223 173 147 c 0,4,5
 173 83 173 83 196 52.5 c 128,-1,6
 219 22 219 22 255 22 c 0,7,8
 303 22 303 22 343 87.5 c 128,-1,9
 383 153 383 153 383 238 c 0,10,11
 383 336 383 336 305 336 c 0,0,1
212 346 m 1,12,13
 257 370 257 370 309 370 c 0,14,15
 399 370 399 370 436.5 337 c 128,-1,16
 474 304 474 304 474 242 c 0,17,18
 474 128 474 128 411.5 59 c 128,-1,19
 349 -10 349 -10 249 -10 c 0,20,21
 168 -10 168 -10 126.5 37.5 c 128,-1,22
 85 85 85 85 85 166 c 0,23,24
 85 242 85 242 111 312 c 128,-1,25
 137 382 137 382 177 431.5 c 128,-1,26
 217 481 217 481 265 520 c 128,-1,27
 313 559 313 559 357.5 579 c 128,-1,28
 402 599 402 599 436 603 c 1,29,-1
 445 585 l 1,30,31
 368 566 368 566 307.5 505 c 128,-1,32
 247 444 247 444 212 346 c 1,12,13
EndSplineSet
EndChar

StartChar: seven
Encoding: 55 55 26
Width: 490
GlyphClass: 2
Flags: W
LayerCount: 2
Fore
SplineSet
442 515 m 1,0,-1
 223 515 l 1,1,2
 208 509 208 509 187.5 492.5 c 128,-1,3
 167 476 167 476 154 452 c 1,4,-1
 134 452 l 1,5,-1
 194 585 l 1,6,-1
 530 585 l 1,7,8
 528 570 528 570 465 461.5 c 128,-1,9
 402 353 402 353 335 219.5 c 128,-1,10
 268 86 268 86 255 11 c 0,11,12
 251 -10 251 -10 214 -10 c 0,13,14
 183 -10 183 -10 183 8 c 0,15,16
 183 59 183 59 246 174.5 c 128,-1,17
 309 290 309 290 374 393.5 c 128,-1,18
 439 497 439 497 442 515 c 1,0,-1
EndSplineSet
EndChar

StartChar: eight
Encoding: 56 56 27
Width: 490
GlyphClass: 2
Flags: W
LayerCount: 2
Fore
SplineSet
329 324 m 1,0,1
 372 345 372 345 405.5 385 c 128,-1,2
 439 425 439 425 439 486 c 0,3,4
 439 523 439 523 416.5 543 c 128,-1,5
 394 563 394 563 359 563 c 0,6,7
 302 563 302 563 266.5 533 c 128,-1,8
 231 503 231 503 231 449 c 0,9,10
 231 429 231 429 247 406 c 128,-1,11
 263 383 263 383 279.5 367.5 c 128,-1,12
 296 352 296 352 329 324 c 1,0,1
505 484 m 0,13,14
 505 371 505 371 356 301 c 1,15,16
 404 259 404 259 430.5 223 c 128,-1,17
 457 187 457 187 457 144 c 0,18,19
 457 76 457 76 395.5 33 c 128,-1,20
 334 -10 334 -10 243 -10 c 0,21,22
 162 -10 162 -10 118.5 21.5 c 128,-1,23
 75 53 75 53 75 107 c 0,24,25
 75 174 75 174 120.5 222.5 c 128,-1,26
 166 271 166 271 227 301 c 1,27,28
 143 376 143 376 143 444 c 0,29,30
 143 510 143 510 200 552.5 c 128,-1,31
 257 595 257 595 346 595 c 0,32,33
 505 595 505 595 505 484 c 0,13,14
254 277 m 1,34,35
 213 254 213 254 177 211 c 128,-1,36
 141 168 141 168 141 107 c 0,37,38
 141 70 141 70 167.5 46 c 128,-1,39
 194 22 194 22 230 22 c 0,40,41
 288 22 288 22 329 54.5 c 128,-1,42
 370 87 370 87 370 139 c 0,43,44
 370 149 370 149 367 158.5 c 128,-1,45
 364 168 364 168 356 179 c 128,-1,46
 348 190 348 190 342.5 197.5 c 128,-1,47
 337 205 337 205 323 218 c 128,-1,48
 309 231 309 231 303 236.5 c 128,-1,49
 297 242 297 242 278 257.5 c 128,-1,50
 259 273 259 273 254 277 c 1,34,35
EndSplineSet
EndChar

StartChar: nine
Encoding: 57 57 28
Width: 490
GlyphClass: 2
Flags: W
LayerCount: 2
Fore
SplineSet
283 249 m 0,0,1
 349 249 349 249 387 272 c 1,2,3
 415 362 415 362 415 438 c 0,4,5
 415 502 415 502 392 532.5 c 128,-1,6
 369 563 369 563 333 563 c 0,7,8
 285 563 285 563 244.5 497 c 128,-1,9
 204 431 204 431 204 347 c 0,10,11
 204 249 204 249 283 249 c 0,0,1
376 239 m 1,12,13
 331 215 331 215 279 215 c 0,14,15
 189 215 189 215 151.5 248 c 128,-1,16
 114 281 114 281 114 343 c 0,17,18
 114 457 114 457 176.5 526 c 128,-1,19
 239 595 239 595 339 595 c 0,20,21
 420 595 420 595 461.5 547.5 c 128,-1,22
 503 500 503 500 503 419 c 0,23,24
 503 343 503 343 477 273 c 128,-1,25
 451 203 451 203 411 153.5 c 128,-1,26
 371 104 371 104 323 65 c 128,-1,27
 275 26 275 26 230.5 6 c 128,-1,28
 186 -14 186 -14 152 -18 c 1,29,-1
 143 0 l 1,30,31
 220 19 220 19 280.5 80 c 128,-1,32
 341 141 341 141 376 239 c 1,12,13
EndSplineSet
EndChar

StartChar: colon
Encoding: 58 58 29
Width: 249
GlyphClass: 2
Flags: W
LayerCount: 2
Fore
SplineSet
30 42 m 0,0,1
 30 70 30 70 51 92 c 128,-1,2
 72 114 72 114 100 114 c 0,3,4
 121 114 121 114 136.5 99 c 128,-1,5
 152 84 152 84 152 63 c 0,6,7
 152 36 152 36 130 13 c 128,-1,8
 108 -10 108 -10 80 -10 c 0,9,10
 60 -10 60 -10 45 5 c 128,-1,11
 30 20 30 20 30 42 c 0,0,1
86 372 m 0,12,13
 86 400 86 400 107 422 c 128,-1,14
 128 444 128 444 156 444 c 0,15,16
 177 444 177 444 192.5 429 c 128,-1,17
 208 414 208 414 208 393 c 0,18,19
 208 366 208 366 186 343 c 128,-1,20
 164 320 164 320 136 320 c 0,21,22
 116 320 116 320 101 335 c 128,-1,23
 86 350 86 350 86 372 c 0,12,13
EndSplineSet
EndChar

StartChar: semicolon
Encoding: 59 59 30
Width: 261
GlyphClass: 2
Flags: W
LayerCount: 2
Fore
SplineSet
89 372 m 0,0,1
 89 400 89 400 110 422 c 128,-1,2
 131 444 131 444 159 444 c 0,3,4
 180 444 180 444 195.5 429 c 128,-1,5
 211 414 211 414 211 393 c 0,6,7
 211 366 211 366 189 343 c 128,-1,8
 167 320 167 320 139 320 c 0,9,10
 119 320 119 320 104 335 c 128,-1,11
 89 350 89 350 89 372 c 0,0,1
31 33 m 0,12,13
 31 64 31 64 54.5 82 c 128,-1,14
 78 100 78 100 99 100 c 0,15,16
 129 100 129 100 146.5 76 c 128,-1,17
 164 52 164 52 164 17 c 0,18,19
 164 -84 164 -84 17 -129 c 1,20,-1
 22 -101 l 1,21,22
 48 -98 48 -98 78 -73.5 c 128,-1,23
 108 -49 108 -49 114 -18 c 0,24,25
 116 -6 116 -6 116 -0.5 c 128,-1,26
 116 5 116 5 114.5 6 c 128,-1,27
 113 7 113 7 108 7 c 0,28,29
 105 7 105 7 95.5 0.5 c 128,-1,30
 86 -6 86 -6 75 -6 c 0,31,32
 55 -6 55 -6 43 4.5 c 128,-1,33
 31 15 31 15 31 33 c 0,12,13
EndSplineSet
EndChar

StartChar: less
Encoding: 60 60 31
Width: 466
GlyphClass: 2
Flags: W
LayerCount: 2
Fore
SplineSet
44 340 m 1,0,-1
 441 512 l 1,1,-1
 434 472 l 1,2,-1
 78 318 l 1,3,-1
 382 164 l 1,4,-1
 376 124 l 1,5,-1
 37 296 l 1,6,-1
 44 340 l 1,0,-1
EndSplineSet
EndChar

StartChar: equal
Encoding: 61 61 32
Width: 490
GlyphClass: 2
Flags: W
LayerCount: 2
Fore
SplineSet
71 280 m 1,0,-1
 425 280 l 1,1,-1
 417 236 l 1,2,-1
 63 236 l 1,3,-1
 71 280 l 1,0,-1
91 400 m 1,4,-1
 445 400 l 1,5,-1
 438 356 l 1,6,-1
 84 356 l 1,7,-1
 91 400 l 1,4,-1
EndSplineSet
EndChar

StartChar: greater
Encoding: 62 62 33
Width: 466
GlyphClass: 2
Flags: W
LayerCount: 2
Fore
SplineSet
443 296 m 1,0,-1
 46 124 l 1,1,-1
 52 164 l 1,2,-1
 408 318 l 1,3,-1
 104 472 l 1,4,-1
 111 512 l 1,5,-1
 450 340 l 1,6,-1
 443 296 l 1,0,-1
EndSplineSet
EndChar

StartChar: question
Encoding: 63 63 34
Width: 395
GlyphClass: 2
Flags: W
LayerCount: 2
Fore
SplineSet
86 42 m 0,0,1
 86 70 86 70 107 92 c 128,-1,2
 128 114 128 114 156 114 c 0,3,4
 177 114 177 114 192.5 99 c 128,-1,5
 208 84 208 84 208 63 c 0,6,7
 208 36 208 36 186 13 c 128,-1,8
 164 -10 164 -10 136 -10 c 0,9,10
 116 -10 116 -10 101 5 c 128,-1,11
 86 20 86 20 86 42 c 0,0,1
141 486 m 0,12,13
 141 468 141 468 129 456.5 c 128,-1,14
 117 445 117 445 101 445 c 0,15,16
 87 445 87 445 77 454.5 c 128,-1,17
 67 464 67 464 67 483 c 0,18,19
 67 539 67 539 118 584.5 c 128,-1,20
 169 630 169 630 248 630 c 0,21,22
 329 630 329 630 364.5 593 c 128,-1,23
 400 556 400 556 400 503 c 0,24,25
 400 455 400 455 368 408.5 c 128,-1,26
 336 362 336 362 297 331.5 c 128,-1,27
 258 301 258 301 222.5 264.5 c 128,-1,28
 187 228 187 228 182 200 c 0,29,30
 181 195 181 195 176 190.5 c 128,-1,31
 171 186 171 186 167 186 c 128,-1,32
 163 186 163 186 159 190.5 c 128,-1,33
 155 195 155 195 156 200 c 0,34,35
 162 234 162 234 180 266 c 128,-1,36
 198 298 198 298 220 323.5 c 128,-1,37
 242 349 242 349 263 377 c 128,-1,38
 284 405 284 405 298 442.5 c 128,-1,39
 312 480 312 480 312 524 c 0,40,41
 312 564 312 564 293 582 c 128,-1,42
 274 600 274 600 233 600 c 128,-1,43
 192 600 192 600 162.5 575 c 128,-1,44
 133 550 133 550 133 521 c 0,45,46
 133 513 133 513 137 503 c 128,-1,47
 141 493 141 493 141 486 c 0,12,13
EndSplineSet
EndChar

StartChar: at
Encoding: 64 64 35
Width: 628
GlyphClass: 2
Flags: W
LayerCount: 2
Fore
SplineSet
235 159 m 0,0,1
 203 159 203 159 186.5 180 c 128,-1,2
 170 201 170 201 170 235 c 0,3,4
 170 309 170 309 229 373 c 128,-1,5
 288 437 288 437 343 437 c 0,6,7
 372 437 372 437 388.5 419.5 c 128,-1,8
 405 402 405 402 407 373 c 1,9,-1
 430 426 l 1,10,-1
 483 426 l 1,11,-1
 387 203 l 2,12,13
 384 198 384 198 384 195 c 0,14,15
 384 182 384 182 405 182 c 0,16,17
 451 182 451 182 484 225 c 128,-1,18
 517 268 517 268 530 316.5 c 128,-1,19
 543 365 543 365 543 406 c 0,20,21
 543 451 543 451 530 481.5 c 128,-1,22
 517 512 517 512 494 527 c 128,-1,23
 471 542 471 542 446.5 547.5 c 128,-1,24
 422 553 422 553 391 553 c 0,25,26
 341 553 341 553 289 532.5 c 128,-1,27
 237 512 237 512 192 474 c 128,-1,28
 147 436 147 436 118.5 375.5 c 128,-1,29
 90 315 90 315 90 243 c 0,30,31
 90 146 90 146 157 87.5 c 128,-1,32
 224 29 224 29 303 29 c 0,33,34
 348 29 348 29 390 43 c 128,-1,35
 432 57 432 57 457 72 c 128,-1,36
 482 87 482 87 510 115.5 c 128,-1,37
 538 144 538 144 544 152 c 128,-1,38
 550 160 550 160 566 182 c 1,39,-1
 581 174 l 1,40,41
 530 90 530 90 461.5 40 c 128,-1,42
 393 -10 393 -10 290 -10 c 0,43,44
 193 -10 193 -10 120 58 c 128,-1,45
 47 126 47 126 47 234 c 0,46,47
 47 315 47 315 79.5 385.5 c 128,-1,48
 112 456 112 456 163.5 500.5 c 128,-1,49
 215 545 215 545 275.5 570 c 128,-1,50
 336 595 336 595 394 595 c 0,51,52
 478 595 478 595 531.5 546 c 128,-1,53
 585 497 585 497 585 404 c 0,54,55
 585 348 585 348 563 291 c 128,-1,56
 541 234 541 234 491 190 c 128,-1,57
 441 146 441 146 375 146 c 0,58,59
 359 146 359 146 346 155.5 c 128,-1,60
 333 165 333 165 333 186 c 0,61,62
 333 198 333 198 338 213 c 1,63,64
 284 159 284 159 235 159 c 0,0,1
258 202 m 128,-1,66
 299 202 299 202 341 251 c 128,-1,67
 383 300 383 300 383 357 c 0,68,69
 383 407 383 407 342 407 c 0,70,71
 302 407 302 407 259.5 357.5 c 128,-1,72
 217 308 217 308 217 251 c 0,73,65
 217 202 217 202 258 202 c 128,-1,66
EndSplineSet
EndChar

StartChar: A
Encoding: 65 65 36
Width: 543
GlyphClass: 2
Flags: W
AnchorPoint: "Anchor-5" 340 620 basechar 0
AnchorPoint: "Anchor-3" 248 288 basechar 0
AnchorPoint: "Anchor-2" 208 0 basechar 0
AnchorPoint: "Anchor-1" 396 0 basechar 0
AnchorPoint: "Anchor-0" 450 0 basechar 0
LayerCount: 2
Fore
SplineSet
296 0 m 1,0,-1
 300 21 l 1,1,2
 346 21 346 21 360 33 c 1,3,-1
 329 186 l 1,4,-1
 137 186 l 1,5,-1
 61 39 l 1,6,7
 68 21 68 21 120 21 c 1,8,-1
 116 0 l 1,9,-1
 -48 0 l 1,10,-1
 -44 21 l 1,11,12
 12 21 12 21 22 42 c 2,13,-1
 307 585 l 1,14,-1
 355 585 l 1,15,-1
 458 42 l 2,16,17
 462 21 462 21 519 21 c 1,18,-1
 515 0 l 1,19,-1
 296 0 l 1,0,-1
277 452 m 1,20,-1
 155 219 l 1,21,-1
 323 219 l 1,22,-1
 277 452 l 1,20,-1
EndSplineSet
EndChar

StartChar: B
Encoding: 66 66 37
Width: 562
GlyphClass: 2
Flags: W
AnchorPoint: "Anchor-5" 300 620 basechar 0
AnchorPoint: "Anchor-3" 156 158 basechar 0
AnchorPoint: "Anchor-2" 202 0 basechar 0
LayerCount: 2
Fore
SplineSet
206 290 m 1,0,-1
 163 34 l 1,1,-1
 248 34 l 2,2,3
 328 34 328 34 370 77 c 128,-1,4
 412 120 412 120 412 191 c 0,5,6
 412 233 412 233 381.5 261.5 c 128,-1,7
 351 290 351 290 279 290 c 2,8,-1
 206 290 l 1,0,-1
249 551 m 1,9,-1
 210 319 l 1,10,-1
 251 319 l 2,11,12
 329 319 329 319 371.5 358 c 128,-1,13
 414 397 414 397 414 466 c 0,14,15
 414 551 414 551 278 551 c 2,16,-1
 249 551 l 1,9,-1
2 0 m 1,17,-1
 6 21 l 1,18,19
 61 21 61 21 72 41 c 1,20,-1
 156 544 l 1,21,22
 150 564 150 564 96 564 c 1,23,-1
 100 585 l 1,24,-1
 284 585 l 2,25,26
 400 585 400 585 457 549.5 c 128,-1,27
 514 514 514 514 514 462 c 0,28,29
 514 407 514 407 479 367.5 c 128,-1,30
 444 328 444 328 384 309 c 1,31,32
 449 293 449 293 480.5 260 c 128,-1,33
 512 227 512 227 512 187 c 0,34,35
 512 104 512 104 438.5 52 c 128,-1,36
 365 0 365 0 242 0 c 2,37,-1
 2 0 l 1,17,-1
EndSplineSet
EndChar

StartChar: C
Encoding: 67 67 38
Width: 564
GlyphClass: 2
Flags: W
AnchorPoint: "Anchor-5" 408 620 basechar 0
AnchorPoint: "Anchor-2" 285 0 basechar 0
AnchorPoint: "Anchor-1" 285 0 basechar 0
LayerCount: 2
Fore
SplineSet
400 561 m 0,0,1
 299 561 299 561 225 465 c 128,-1,2
 151 369 151 369 151 231 c 0,3,4
 151 132 151 132 197.5 78 c 128,-1,5
 244 24 244 24 314 24 c 0,6,7
 364 24 364 24 418.5 58.5 c 128,-1,8
 473 93 473 93 494 132 c 1,9,-1
 516 120 l 1,10,11
 440 -10 440 -10 288 -10 c 0,12,13
 171 -10 171 -10 108 58 c 128,-1,14
 45 126 45 126 45 229 c 0,15,16
 45 311 45 311 78 382 c 128,-1,17
 111 453 111 453 163 498.5 c 128,-1,18
 215 544 215 544 278.5 569.5 c 128,-1,19
 342 595 342 595 405 595 c 0,20,21
 434 595 434 595 470 580 c 128,-1,22
 506 565 506 565 511 565 c 0,23,24
 523 565 523 565 526 585 c 1,25,-1
 549 585 l 1,26,-1
 538 458 l 1,27,-1
 516 458 l 1,28,29
 516 503 516 503 488 532 c 128,-1,30
 460 561 460 561 400 561 c 0,0,1
EndSplineSet
EndChar

StartChar: D
Encoding: 68 68 39
Width: 616
GlyphClass: 2
Flags: W
AnchorPoint: "Anchor-5" 328 620 basechar 0
AnchorPoint: "Anchor-3" 182 286 basechar 0
AnchorPoint: "Anchor-2" 196 0 basechar 0
AnchorPoint: "Anchor-1" 196 0 basechar 0
LayerCount: 2
Fore
SplineSet
2 0 m 1,0,-1
 6 21 l 1,1,2
 61 21 61 21 72 41 c 1,3,-1
 156 544 l 1,4,5
 150 564 150 564 96 564 c 1,6,-1
 100 585 l 1,7,-1
 330 585 l 2,8,9
 447 585 447 585 514 521.5 c 128,-1,10
 581 458 581 458 581 352 c 0,11,12
 581 198 581 198 481.5 99 c 128,-1,13
 382 0 382 0 244 0 c 2,14,-1
 2 0 l 1,0,-1
250 556 m 1,15,-1
 163 34 l 1,16,-1
 250 34 l 2,17,18
 286 34 286 34 325.5 56 c 128,-1,19
 365 78 365 78 400.5 118 c 128,-1,20
 436 158 436 158 459 223 c 128,-1,21
 482 288 482 288 482 364 c 0,22,23
 482 459 482 459 436 507.5 c 128,-1,24
 390 556 390 556 325 556 c 2,25,-1
 250 556 l 1,15,-1
EndSplineSet
EndChar

StartChar: E
Encoding: 69 69 40
Width: 508
GlyphClass: 2
Flags: W
AnchorPoint: "Anchor-5" 332 620 basechar 0
AnchorPoint: "Anchor-3" 141 164 basechar 0
AnchorPoint: "Anchor-2" 220 0 basechar 0
AnchorPoint: "Anchor-1" 220 0 basechar 0
AnchorPoint: "Anchor-0" 366 0 basechar 0
LayerCount: 2
Fore
SplineSet
2 0 m 1,0,-1
 6 21 l 1,1,2
 61 21 61 21 72 41 c 1,3,-1
 156 544 l 1,4,5
 150 564 150 564 96 564 c 1,6,-1
 100 585 l 1,7,-1
 503 585 l 1,8,-1
 487 488 l 1,9,-1
 466 488 l 1,10,11
 469 509 469 509 469 522 c 0,12,13
 469 545 469 545 456 551 c 1,14,-1
 249 551 l 1,15,-1
 211 321 l 1,16,-1
 351 321 l 1,17,18
 372 329 372 329 381 384 c 1,19,-1
 402 384 l 1,20,-1
 375 224 l 1,21,-1
 354 224 l 1,22,23
 358 252 358 252 358 258 c 0,24,25
 358 281 358 281 345 287 c 1,26,-1
 205 287 l 1,27,-1
 163 34 l 1,28,-1
 391 34 l 1,29,30
 417 44 417 44 446 97 c 1,31,-1
 466 97 l 1,32,-1
 426 0 l 1,33,-1
 2 0 l 1,0,-1
EndSplineSet
EndChar

StartChar: F
Encoding: 70 70 41
Width: 477
GlyphClass: 2
Flags: W
AnchorPoint: "Anchor-5" 332 620 basechar 0
LayerCount: 2
Fore
SplineSet
2 0 m 1,0,-1
 6 21 l 1,1,2
 61 21 61 21 72 41 c 1,3,-1
 156 544 l 1,4,5
 150 564 150 564 96 564 c 1,6,-1
 100 585 l 1,7,-1
 503 585 l 1,8,-1
 487 488 l 1,9,-1
 466 488 l 1,10,11
 469 509 469 509 469 522 c 0,12,13
 469 545 469 545 456 551 c 1,14,-1
 249 551 l 1,15,-1
 211 321 l 1,16,-1
 351 321 l 1,17,18
 372 329 372 329 381 384 c 1,19,-1
 402 384 l 1,20,-1
 375 224 l 1,21,-1
 354 224 l 1,22,23
 358 252 358 252 358 258 c 0,24,25
 358 281 358 281 345 287 c 1,26,-1
 205 287 l 1,27,-1
 164 41 l 1,28,29
 170 21 170 21 224 21 c 1,30,-1
 220 0 l 1,31,-1
 2 0 l 1,0,-1
EndSplineSet
EndChar

StartChar: G
Encoding: 71 71 42
Width: 621
GlyphClass: 2
Flags: W
AnchorPoint: "Anchor-5" 407 620 basechar 0
AnchorPoint: "Anchor-3" 485 177 basechar 0
AnchorPoint: "Anchor-2" 284 0 basechar 0
AnchorPoint: "Anchor-1" 284 0 basechar 0
LayerCount: 2
Fore
SplineSet
409 561 m 0,0,1
 308 561 308 561 227.5 457 c 128,-1,2
 147 353 147 353 147 215 c 0,3,4
 147 118 147 118 194 71 c 128,-1,5
 241 24 241 24 305 24 c 0,6,7
 360 24 360 24 414 43 c 1,8,-1
 449 248 l 1,9,10
 443 268 443 268 389 268 c 1,11,-1
 392 289 l 1,12,-1
 610 289 l 1,13,-1
 607 268 l 1,14,15
 552 268 552 268 541 248 c 1,16,-1
 512 80 l 1,17,18
 490 48 490 48 433.5 19 c 128,-1,19
 377 -10 377 -10 297 -10 c 0,20,21
 178 -10 178 -10 111 60 c 128,-1,22
 44 130 44 130 44 233 c 0,23,24
 44 314 44 314 78.5 384 c 128,-1,25
 113 454 113 454 167.5 499 c 128,-1,26
 222 544 222 544 286.5 569.5 c 128,-1,27
 351 595 351 595 414 595 c 0,28,29
 444 595 444 595 484 580 c 128,-1,30
 524 565 524 565 530 565 c 0,31,32
 542 565 542 565 545 585 c 1,33,-1
 568 585 l 1,34,-1
 557 458 l 1,35,-1
 535 458 l 1,36,37
 535 499 535 499 502 530 c 128,-1,38
 469 561 469 561 409 561 c 0,0,1
EndSplineSet
EndChar

StartChar: H
Encoding: 72 72 43
Width: 656
GlyphClass: 2
Flags: W
AnchorPoint: "Anchor-5" 390 620 basechar 0
AnchorPoint: "Anchor-3" 354 420 basechar 0
AnchorPoint: "Anchor-2" 285 0 basechar 0
AnchorPoint: "Anchor-1" 285 0 basechar 0
LayerCount: 2
Fore
SplineSet
2 0 m 1,0,-1
 6 21 l 1,1,2
 61 21 61 21 72 41 c 1,3,-1
 156 544 l 1,4,5
 150 564 150 564 96 564 c 1,6,-1
 100 585 l 1,7,-1
 318 585 l 1,8,-1
 314 564 l 1,9,10
 259 564 259 564 248 544 c 1,11,-1
 211 321 l 1,12,-1
 467 321 l 1,13,-1
 504 544 l 1,14,15
 498 564 498 564 444 564 c 1,16,-1
 448 585 l 1,17,-1
 666 585 l 1,18,-1
 662 564 l 1,19,20
 607 564 607 564 596 544 c 1,21,-1
 512 41 l 1,22,23
 518 21 518 21 572 21 c 1,24,-1
 568 0 l 1,25,-1
 350 0 l 1,26,-1
 354 21 l 1,27,28
 409 21 409 21 420 41 c 1,29,-1
 461 287 l 1,30,-1
 205 287 l 1,31,-1
 164 41 l 1,32,33
 170 21 170 21 224 21 c 1,34,-1
 220 0 l 1,35,-1
 2 0 l 1,0,-1
EndSplineSet
EndChar

StartChar: I
Encoding: 73 73 44
Width: 308
GlyphClass: 2
Flags: W
AnchorPoint: "Anchor-5" 213 620 basechar 0
AnchorPoint: "Anchor-3" 162 294 basechar 0
AnchorPoint: "Anchor-2" 109 0 basechar 0
AnchorPoint: "Anchor-1" 110 0 basechar 0
AnchorPoint: "Anchor-0" 161 0 basechar 0
LayerCount: 2
Fore
SplineSet
2 0 m 1,0,-1
 6 21 l 1,1,2
 61 21 61 21 72 41 c 1,3,-1
 156 544 l 1,4,5
 150 564 150 564 96 564 c 1,6,-1
 100 585 l 1,7,-1
 318 585 l 1,8,-1
 314 564 l 1,9,10
 259 564 259 564 248 544 c 1,11,-1
 164 41 l 1,12,13
 170 21 170 21 224 21 c 1,14,-1
 220 0 l 1,15,-1
 2 0 l 1,0,-1
EndSplineSet
EndChar

StartChar: J
Encoding: 74 74 45
Width: 416
GlyphClass: 2
Flags: W
AnchorPoint: "Anchor-5" 341 620 basechar 0
LayerCount: 2
Fore
SplineSet
70 101 m 0,0,1
 70 64 70 64 38 53 c 1,2,3
 61 26 61 26 110 26 c 0,4,5
 139 26 139 26 158.5 37.5 c 128,-1,6
 178 49 178 49 190.5 75.5 c 128,-1,7
 203 102 203 102 210 130 c 128,-1,8
 217 158 217 158 225 208 c 2,9,-1
 281 544 l 1,10,11
 275 564 275 564 221 564 c 1,12,-1
 225 585 l 1,13,-1
 443 585 l 1,14,-1
 439 564 l 1,15,16
 384 564 384 564 373 544 c 1,17,-1
 311 172 l 2,18,19
 299 96 299 96 251.5 43 c 128,-1,20
 204 -10 204 -10 114 -10 c 0,21,22
 48 -10 48 -10 13.5 15 c 128,-1,23
 -21 40 -21 40 -21 72 c 0,24,25
 -21 97 -21 97 -5.5 113.5 c 128,-1,26
 10 130 10 130 31 130 c 0,27,28
 70 130 70 130 70 101 c 0,0,1
EndSplineSet
EndChar

StartChar: K
Encoding: 75 75 46
Width: 579
GlyphClass: 2
Flags: W
AnchorPoint: "Anchor-5" 385 620 basechar 0
AnchorPoint: "Anchor-3" 188 462 basechar 0
AnchorPoint: "Anchor-2" 272 0 basechar 0
AnchorPoint: "Anchor-1" 272 0 basechar 0
LayerCount: 2
Fore
SplineSet
2 0 m 1,0,-1
 6 21 l 1,1,2
 61 21 61 21 72 41 c 1,3,-1
 156 544 l 1,4,5
 150 564 150 564 96 564 c 1,6,-1
 100 585 l 1,7,-1
 316 585 l 1,8,-1
 312 564 l 1,9,10
 257 564 257 564 246 544 c 1,11,-1
 162 41 l 1,12,13
 168 21 168 21 222 21 c 1,14,-1
 218 0 l 1,15,-1
 2 0 l 1,0,-1
351 0 m 1,16,-1
 355 21 l 1,17,18
 378 21 378 21 392 24 c 1,19,-1
 213 314 l 1,20,-1
 498 557 l 1,21,22
 485 564 485 564 448 564 c 1,23,-1
 452 585 l 1,24,-1
 609 585 l 1,25,-1
 605 564 l 1,26,27
 566 564 566 564 540 541 c 2,28,-1
 305 342 l 1,29,-1
 489 37 l 1,30,31
 502 21 502 21 550 21 c 1,32,-1
 546 0 l 1,33,-1
 351 0 l 1,16,-1
EndSplineSet
EndChar

StartChar: L
Encoding: 76 76 47
Width: 495
GlyphClass: 2
Flags: W
AnchorPoint: "Anchor-5" 215 620 basechar 0
AnchorPoint: "Anchor-3" 170 341 basechar 0
AnchorPoint: "Anchor-2" 226 0 basechar 0
AnchorPoint: "Anchor-1" 226 0 basechar 0
LayerCount: 2
Fore
SplineSet
2 0 m 1,0,-1
 6 21 l 1,1,2
 61 21 61 21 72 41 c 1,3,-1
 156 544 l 1,4,5
 150 564 150 564 96 564 c 1,6,-1
 100 585 l 1,7,-1
 318 585 l 1,8,-1
 314 564 l 1,9,10
 259 564 259 564 248 544 c 1,11,-1
 163 34 l 1,12,-1
 391 34 l 1,13,14
 417 44 417 44 446 97 c 1,15,-1
 466 97 l 1,16,-1
 426 0 l 1,17,-1
 2 0 l 1,0,-1
EndSplineSet
EndChar

StartChar: M
Encoding: 77 77 48
Width: 810
GlyphClass: 2
Flags: W
AnchorPoint: "Anchor-5" 443 620 basechar 0
AnchorPoint: "Anchor-2" 335 0 basechar 0
AnchorPoint: "Anchor-1" 335 0 basechar 0
LayerCount: 2
Fore
SplineSet
2 0 m 1,0,-1
 6 21 l 1,1,2
 61 21 61 21 72 41 c 1,3,-1
 156 544 l 1,4,5
 150 564 150 564 96 564 c 1,6,-1
 100 585 l 1,7,-1
 246 585 l 1,8,-1
 381 120 l 1,9,-1
 672 585 l 1,10,-1
 820 585 l 1,11,-1
 816 564 l 1,12,13
 761 564 761 564 750 544 c 1,14,-1
 666 41 l 1,15,16
 672 21 672 21 726 21 c 1,17,-1
 722 0 l 1,18,-1
 504 0 l 1,19,-1
 508 21 l 1,20,21
 563 21 563 21 574 41 c 1,22,-1
 649 490 l 1,23,-1
 343 0 l 1,24,-1
 328 0 l 1,25,-1
 182 496 l 1,26,-1
 106 41 l 1,27,28
 112 21 112 21 166 21 c 1,29,-1
 162 0 l 1,30,-1
 2 0 l 1,0,-1
EndSplineSet
EndChar

StartChar: N
Encoding: 78 78 49
Width: 643
GlyphClass: 2
Flags: W
AnchorPoint: "Anchor-5" 382 620 basechar 0
AnchorPoint: "Anchor-3" 344 330 basechar 0
AnchorPoint: "Anchor-2" 278 0 basechar 0
AnchorPoint: "Anchor-1" 278 0 basechar 0
LayerCount: 2
Fore
SplineSet
2 0 m 1,0,-1
 6 21 l 1,1,2
 61 21 61 21 72 41 c 1,3,-1
 156 544 l 1,4,5
 150 564 150 564 96 564 c 1,6,-1
 100 585 l 1,7,-1
 234 585 l 1,8,-1
 496 176 l 1,9,-1
 558 544 l 1,10,11
 552 564 552 564 498 564 c 1,12,-1
 502 585 l 1,13,-1
 662 585 l 1,14,-1
 658 564 l 1,15,16
 603 564 603 564 592 544 c 1,17,-1
 501 0 l 1,18,-1
 492 0 l 1,19,-1
 182 497 l 1,20,-1
 106 41 l 1,21,22
 112 21 112 21 166 21 c 1,23,-1
 162 0 l 1,24,-1
 2 0 l 1,0,-1
EndSplineSet
EndChar

StartChar: O
Encoding: 79 79 50
Width: 644
GlyphClass: 2
Flags: W
AnchorPoint: "Anchor-5" 383 620 basechar 0
AnchorPoint: "Anchor-4" 533 440 basechar 0
AnchorPoint: "Anchor-3" 334 294 basechar 0
AnchorPoint: "Anchor-2" 280 0 basechar 0
AnchorPoint: "Anchor-1" 280 0 basechar 0
AnchorPoint: "Anchor-0" 309 0 basechar 0
LayerCount: 2
Fore
SplineSet
146 229 m 0,0,1
 146 142 146 142 181 83 c 128,-1,2
 216 24 216 24 287 24 c 0,3,4
 354 24 354 24 406.5 76 c 128,-1,5
 459 128 459 128 484 202 c 128,-1,6
 509 276 509 276 509 353 c 0,7,8
 509 409 509 409 495.5 454 c 128,-1,9
 482 499 482 499 449.5 530 c 128,-1,10
 417 561 417 561 369 561 c 0,11,12
 302 561 302 561 249.5 508.5 c 128,-1,13
 197 456 197 456 171.5 381.5 c 128,-1,14
 146 307 146 307 146 229 c 0,0,1
379 595 m 0,15,16
 485 595 485 595 547.5 525.5 c 128,-1,17
 610 456 610 456 610 350 c 0,18,19
 610 203 610 203 510 96.5 c 128,-1,20
 410 -10 410 -10 277 -10 c 0,21,22
 170 -10 170 -10 108 59 c 128,-1,23
 46 128 46 128 46 234 c 0,24,25
 46 382 46 382 145.5 488.5 c 128,-1,26
 245 595 245 595 379 595 c 0,15,16
EndSplineSet
EndChar

StartChar: P
Encoding: 80 80 51
Width: 544
GlyphClass: 2
Flags: W
AnchorPoint: "Anchor-5" 304 620 basechar 0
AnchorPoint: "Anchor-3" 138 160 basechar 0
AnchorPoint: "Anchor-2" 108 0 basechar 0
AnchorPoint: "Anchor-1" 108 0 basechar 0
LayerCount: 2
Fore
SplineSet
2 0 m 1,0,-1
 6 21 l 1,1,2
 61 21 61 21 72 41 c 1,3,-1
 156 544 l 1,4,5
 150 564 150 564 96 564 c 1,6,-1
 100 585 l 1,7,-1
 326 585 l 2,8,9
 440 585 440 585 497 544.5 c 128,-1,10
 554 504 554 504 554 449 c 0,11,12
 554 367 554 367 481 316.5 c 128,-1,13
 408 266 408 266 285 266 c 2,14,-1
 202 266 l 1,15,-1
 164 41 l 1,16,17
 170 21 170 21 224 21 c 1,18,-1
 220 0 l 1,19,-1
 2 0 l 1,0,-1
249 551 m 1,20,-1
 207 300 l 1,21,-1
 290 300 l 2,22,23
 455 300 455 300 455 458 c 0,24,25
 455 551 455 551 320 551 c 2,26,-1
 249 551 l 1,20,-1
EndSplineSet
EndChar

StartChar: Q
Encoding: 81 81 52
Width: 644
GlyphClass: 2
Flags: W
LayerCount: 2
Fore
SplineSet
379 595 m 0,0,1
 485 595 485 595 547.5 525.5 c 128,-1,2
 610 456 610 456 610 350 c 0,3,4
 610 251 610 251 564 170.5 c 128,-1,5
 518 90 518 90 444 41 c 1,6,7
 447 33 447 33 453.5 15 c 128,-1,8
 460 -3 460 -3 463 -11 c 128,-1,9
 466 -19 466 -19 472.5 -32 c 128,-1,10
 479 -45 479 -45 485 -50.5 c 128,-1,11
 491 -56 491 -56 500.5 -61 c 128,-1,12
 510 -66 510 -66 521 -66 c 0,13,14
 545 -66 545 -66 567 -54.5 c 128,-1,15
 589 -43 589 -43 599 -32 c 2,16,-1
 609 -20 l 1,17,-1
 622 -31 l 1,18,19
 617 -39 617 -39 608.5 -51 c 128,-1,20
 600 -63 600 -63 572 -82.5 c 128,-1,21
 544 -102 544 -102 515 -102 c 0,22,23
 449 -102 449 -102 416.5 -73 c 128,-1,24
 384 -44 384 -44 366 4 c 1,25,26
 321 -10 321 -10 277 -10 c 0,27,28
 170 -10 170 -10 108 59 c 128,-1,29
 46 128 46 128 46 234 c 0,30,31
 46 382 46 382 145.5 488.5 c 128,-1,32
 245 595 245 595 379 595 c 0,0,1
199 61 m 1,33,34
 233 24 233 24 287 24 c 0,35,36
 324 24 324 24 355 39 c 1,37,38
 345 70 345 70 333.5 86 c 128,-1,39
 322 102 322 102 301 102 c 0,40,41
 245 102 245 102 199 61 c 1,33,34
419 91 m 1,42,43
 509 195 509 195 509 353 c 0,44,45
 509 409 509 409 495.5 454 c 128,-1,46
 482 499 482 499 449.5 530 c 128,-1,47
 417 561 417 561 369 561 c 0,48,49
 302 561 302 561 249.5 508.5 c 128,-1,50
 197 456 197 456 171.5 381.5 c 128,-1,51
 146 307 146 307 146 229 c 0,52,53
 146 134 146 134 185 78 c 1,54,55
 241 146 241 146 314 146 c 0,56,57
 383 146 383 146 419 91 c 1,42,43
EndSplineSet
EndChar

StartChar: R
Encoding: 82 82 53
Width: 583
GlyphClass: 2
Flags: W
AnchorPoint: "Anchor-5" 348 620 basechar 0
AnchorPoint: "Anchor-3" 138 160 basechar 0
AnchorPoint: "Anchor-2" 282 0 basechar 0
AnchorPoint: "Anchor-1" 282 0 basechar 0
LayerCount: 2
Fore
SplineSet
2 0 m 1,0,-1
 6 21 l 1,1,2
 61 21 61 21 72 41 c 1,3,-1
 156 544 l 1,4,5
 150 564 150 564 96 564 c 1,6,-1
 100 585 l 1,7,-1
 326 585 l 2,8,9
 441 585 441 585 497.5 546 c 128,-1,10
 554 507 554 507 554 453 c 0,11,12
 554 392 554 392 511 346 c 128,-1,13
 468 300 468 300 396 280 c 1,14,-1
 489 42 l 1,15,16
 496 21 496 21 552 21 c 1,17,-1
 548 0 l 1,18,-1
 505 0 l 2,19,20
 435 0 435 0 415.5 8 c 128,-1,21
 396 16 396 16 381 52 c 2,22,-1
 296 266 l 1,23,-1
 202 266 l 1,24,-1
 164 41 l 1,25,26
 170 21 170 21 224 21 c 1,27,-1
 220 0 l 1,28,-1
 2 0 l 1,0,-1
249 551 m 1,29,-1
 207 300 l 1,30,-1
 290 300 l 2,31,32
 375 300 375 300 415 339.5 c 128,-1,33
 455 379 455 379 455 464 c 0,34,35
 455 506 455 506 424.5 528.5 c 128,-1,36
 394 551 394 551 320 551 c 2,37,-1
 249 551 l 1,29,-1
EndSplineSet
EndChar

StartChar: S
Encoding: 83 83 54
Width: 479
GlyphClass: 2
Flags: W
AnchorPoint: "Anchor-5" 290 620 basechar 0
AnchorPoint: "Anchor-3" 259 294 basechar 0
AnchorPoint: "Anchor-2" 198 0 basechar 0
AnchorPoint: "Anchor-1" 198 0 basechar 0
LayerCount: 2
Fore
SplineSet
206 -10 m 0,0,1
 157 -10 157 -10 108.5 5 c 128,-1,2
 60 20 60 20 58 20 c 0,3,4
 52 20 52 20 43 14 c 128,-1,5
 34 8 34 8 33 0 c 1,6,-1
 10 0 l 1,7,-1
 33 139 l 1,8,-1
 55 139 l 1,9,10
 56 79 56 79 100 51.5 c 128,-1,11
 144 24 144 24 206 24 c 0,12,13
 263 24 263 24 303.5 51.5 c 128,-1,14
 344 79 344 79 344 134 c 0,15,16
 344 153 344 153 335.5 169 c 128,-1,17
 327 185 327 185 310.5 199 c 128,-1,18
 294 213 294 213 278.5 223 c 128,-1,19
 263 233 263 233 239 247 c 128,-1,20
 215 261 215 261 202 270 c 0,21,22
 171 291 171 291 159 300.5 c 128,-1,23
 147 310 147 310 124.5 331 c 128,-1,24
 102 352 102 352 92.5 373.5 c 128,-1,25
 83 395 83 395 83 420 c 0,26,27
 83 488 83 488 148.5 541.5 c 128,-1,28
 214 595 214 595 286 595 c 0,29,30
 316 595 316 595 356 580 c 128,-1,31
 396 565 396 565 402 565 c 0,32,33
 414 565 414 565 417 585 c 1,34,-1
 440 585 l 1,35,-1
 429 458 l 1,36,-1
 407 458 l 1,37,38
 407 502 407 502 374.5 531.5 c 128,-1,39
 342 561 342 561 281 561 c 0,40,41
 232 561 232 561 198 528.5 c 128,-1,42
 164 496 164 496 164 461 c 0,43,44
 164 444 164 444 172 429.5 c 128,-1,45
 180 415 180 415 196.5 401.5 c 128,-1,46
 213 388 213 388 228 378.5 c 128,-1,47
 243 369 243 369 267 355 c 128,-1,48
 291 341 291 341 304 332 c 0,49,50
 333 312 333 312 342.5 305.5 c 128,-1,51
 352 299 352 299 375 280 c 128,-1,52
 398 261 398 261 406.5 248 c 128,-1,53
 415 235 415 235 423.5 214.5 c 128,-1,54
 432 194 432 194 432 172 c 0,55,56
 432 114 432 114 394.5 70.5 c 128,-1,57
 357 27 357 27 307 8.5 c 128,-1,58
 257 -10 257 -10 206 -10 c 0,0,1
EndSplineSet
EndChar

StartChar: T
Encoding: 84 84 55
Width: 535
GlyphClass: 2
Flags: W
AnchorPoint: "Anchor-5" 328 620 basechar 0
AnchorPoint: "Anchor-3" 276 316 basechar 0
AnchorPoint: "Anchor-2" 224 0 basechar 0
AnchorPoint: "Anchor-1" 224 0 basechar 0
LayerCount: 2
Fore
SplineSet
70 585 m 1,0,-1
 572 585 l 1,1,-1
 556 488 l 1,2,-1
 535 488 l 1,3,4
 538 509 538 509 538 522 c 0,5,6
 538 545 538 545 525 551 c 1,7,-1
 361 551 l 1,8,-1
 276 41 l 1,9,10
 282 21 282 21 336 21 c 1,11,-1
 332 0 l 1,12,-1
 114 0 l 1,13,-1
 118 21 l 1,14,15
 173 21 173 21 184 41 c 1,16,-1
 269 551 l 1,17,-1
 105 551 l 1,18,19
 84 543 84 543 75 488 c 1,20,-1
 54 488 l 1,21,-1
 70 585 l 1,0,-1
EndSplineSet
EndChar

StartChar: U
Encoding: 85 85 56
Width: 619
GlyphClass: 2
Flags: W
AnchorPoint: "Anchor-5" 396 620 basechar 0
AnchorPoint: "Anchor-4" 643 564 basechar 0
AnchorPoint: "Anchor-3" 343 339 basechar 0
AnchorPoint: "Anchor-2" 286 0 basechar 0
AnchorPoint: "Anchor-1" 286 0 basechar 0
AnchorPoint: "Anchor-0" 286 0 basechar 0
LayerCount: 2
Fore
SplineSet
298 24 m 0,0,1
 365 24 365 24 420 80 c 128,-1,2
 475 136 475 136 490 228 c 2,3,-1
 543 544 l 1,4,5
 537 564 537 564 483 564 c 1,6,-1
 487 585 l 1,7,-1
 647 585 l 1,8,-1
 643 564 l 1,9,10
 588 564 588 564 577 544 c 1,11,-1
 528 248 l 2,12,13
 506 118 506 118 438 54 c 128,-1,14
 370 -10 370 -10 282 -10 c 0,15,16
 79 -10 79 -10 79 176 c 0,17,18
 79 202 79 202 86 248 c 2,19,-1
 135 544 l 1,20,21
 129 564 129 564 75 564 c 1,22,-1
 79 585 l 1,23,-1
 297 585 l 1,24,-1
 293 564 l 1,25,26
 238 564 238 564 227 544 c 1,27,-1
 175 234 l 2,28,29
 170 199 170 199 170 176 c 0,30,31
 170 103 170 103 204.5 63.5 c 128,-1,32
 239 24 239 24 298 24 c 0,0,1
EndSplineSet
EndChar

StartChar: V
Encoding: 86 86 57
Width: 543
GlyphClass: 2
Flags: W
AnchorPoint: "Anchor-5" 356 620 basechar 0
AnchorPoint: "Anchor-3" 325 440 basechar 0
AnchorPoint: "Anchor-2" 225 0 basechar 0
AnchorPoint: "Anchor-1" 225 0 basechar 0
LayerCount: 2
Fore
SplineSet
261 585 m 1,0,-1
 257 564 l 1,1,2
 210 564 210 564 197 552 c 1,3,-1
 280 133 l 1,4,-1
 496 546 l 1,5,6
 489 564 489 564 437 564 c 1,7,-1
 441 585 l 1,8,-1
 605 585 l 1,9,-1
 601 564 l 1,10,11
 547 564 547 564 538 548 c 2,12,-1
 250 0 l 1,13,-1
 202 0 l 1,14,-1
 99 543 l 2,15,16
 94 564 94 564 38 564 c 1,17,-1
 42 585 l 1,18,-1
 261 585 l 1,0,-1
EndSplineSet
EndChar

StartChar: W
Encoding: 87 87 58
Width: 840
GlyphClass: 2
Flags: W
AnchorPoint: "Anchor-5" 458 620 basechar 0
AnchorPoint: "Anchor-3" 424 294 basechar 0
AnchorPoint: "Anchor-2" 381 0 basechar 0
AnchorPoint: "Anchor-1" 381 0 basechar 0
AnchorPoint: "Anchor-0" 528 0 basechar 0
LayerCount: 2
Fore
SplineSet
558 585 m 1,0,-1
 554 564 l 1,1,2
 508 564 508 564 494 552 c 1,3,-1
 577 133 l 1,4,-1
 793 546 l 1,5,6
 786 564 786 564 734 564 c 1,7,-1
 738 585 l 1,8,-1
 902 585 l 1,9,-1
 898 564 l 1,10,11
 842 564 842 564 832 543 c 2,12,-1
 547 0 l 1,13,-1
 499 0 l 1,14,-1
 432 349 l 1,15,-1
 250 0 l 1,16,-1
 202 0 l 1,17,-1
 99 543 l 2,18,19
 94 564 94 564 38 564 c 1,20,-1
 42 585 l 1,21,-1
 261 585 l 1,22,-1
 257 564 l 1,23,24
 210 564 210 564 197 552 c 1,25,-1
 280 134 l 1,26,-1
 422 405 l 1,27,-1
 396 543 l 2,28,29
 392 564 392 564 335 564 c 1,30,-1
 339 585 l 1,31,-1
 558 585 l 1,0,-1
EndSplineSet
EndChar

StartChar: X
Encoding: 88 88 59
Width: 520
GlyphClass: 2
Flags: W
LayerCount: 2
Fore
SplineSet
281 585 m 1,0,-1
 277 564 l 1,1,2
 230 564 230 564 217 552 c 1,3,-1
 294 361 l 1,4,-1
 445 548 l 1,5,6
 438 564 438 564 386 564 c 1,7,-1
 390 585 l 1,8,-1
 554 585 l 1,9,-1
 550 564 l 1,10,11
 502 564 502 564 488 547 c 2,12,-1
 309 326 l 1,13,-1
 424 42 l 2,14,15
 432 21 432 21 485 21 c 1,16,-1
 481 0 l 1,17,-1
 262 0 l 1,18,-1
 266 21 l 1,19,20
 313 21 313 21 326 33 c 1,21,-1
 241 242 l 1,22,-1
 75 37 l 1,23,24
 82 21 82 21 134 21 c 1,25,-1
 130 0 l 1,26,-1
 -34 0 l 1,27,-1
 -30 21 l 1,28,29
 20 21 20 21 37 43 c 2,30,-1
 226 277 l 1,31,-1
 119 544 l 2,32,33
 110 564 110 564 58 564 c 1,34,-1
 62 585 l 1,35,-1
 281 585 l 1,0,-1
EndSplineSet
EndChar

StartChar: Y
Encoding: 89 89 60
Width: 561
GlyphClass: 2
Flags: W
AnchorPoint: "Anchor-5" 367 620 basechar 0
AnchorPoint: "Anchor-3" 276 200 basechar 0
AnchorPoint: "Anchor-2" 245 0 basechar 0
AnchorPoint: "Anchor-1" 247 0 basechar 0
AnchorPoint: "Anchor-0" 277 0 basechar 0
LayerCount: 2
Fore
SplineSet
263 585 m 1,0,-1
 259 564 l 1,1,2
 212 564 212 564 199 552 c 1,3,-1
 309 281 l 1,4,-1
 513 546 l 1,5,6
 506 564 506 564 454 564 c 1,7,-1
 458 585 l 1,8,-1
 622 585 l 1,9,-1
 618 564 l 1,10,11
 575 564 575 564 559 551 c 1,12,-1
 329 252 l 1,13,-1
 294 41 l 1,14,15
 300 21 300 21 354 21 c 1,16,-1
 350 0 l 1,17,-1
 132 0 l 1,18,-1
 136 21 l 1,19,20
 191 21 191 21 202 41 c 1,21,-1
 232 220 l 1,22,-1
 101 544 l 1,23,24
 90 564 90 564 40 564 c 1,25,-1
 44 585 l 1,26,-1
 263 585 l 1,0,-1
EndSplineSet
EndChar

StartChar: Z
Encoding: 90 90 61
Width: 503
GlyphClass: 2
Flags: W
AnchorPoint: "Anchor-5" 311 620 basechar 0
AnchorPoint: "Anchor-3" 244 294 basechar 0
AnchorPoint: "Anchor-2" 217 0 basechar 0
AnchorPoint: "Anchor-1" 217 0 basechar 0
LayerCount: 2
Fore
SplineSet
409 0 m 1,0,-1
 -23 0 l 1,1,-1
 388 555 l 1,2,-1
 145 555 l 1,3,4
 123 546 123 546 114 492 c 1,5,-1
 93 492 l 1,6,-1
 109 585 l 1,7,-1
 512 585 l 1,8,-1
 101 30 l 1,9,-1
 373 30 l 1,10,11
 406 43 406 43 430 96 c 1,12,-1
 451 96 l 1,13,-1
 409 0 l 1,0,-1
EndSplineSet
EndChar

StartChar: bracketleft
Encoding: 91 91 62
Width: 290
GlyphClass: 2
Flags: W
LayerCount: 2
Fore
SplineSet
210 579 m 1,0,-1
 93 -120 l 1,1,-1
 209 -120 l 1,2,-1
 203 -156 l 1,3,-1
 7 -156 l 1,4,-1
 136 615 l 1,5,-1
 332 615 l 1,6,-1
 326 579 l 1,7,-1
 210 579 l 1,0,-1
EndSplineSet
EndChar

StartChar: backslash
Encoding: 92 92 63
Width: 450
GlyphClass: 2
Flags: W
LayerCount: 2
Fore
SplineSet
390 -10 m 1,0,-1
 358 -28 l 1,1,-1
 73 594 l 1,2,-1
 105 612 l 1,3,-1
 390 -10 l 1,0,-1
EndSplineSet
EndChar

StartChar: bracketright
Encoding: 93 93 64
Width: 290
GlyphClass: 2
Flags: W
LayerCount: 2
Fore
SplineSet
73 -120 m 1,0,-1
 190 579 l 1,1,-1
 74 579 l 1,2,-1
 80 615 l 1,3,-1
 276 615 l 1,4,-1
 147 -156 l 1,5,-1
 -49 -156 l 1,6,-1
 -43 -120 l 1,7,-1
 73 -120 l 1,0,-1
EndSplineSet
EndChar

StartChar: asciicircum
Encoding: 94 94 65
Width: 456
GlyphClass: 2
Flags: W
LayerCount: 2
Fore
SplineSet
331 540 m 1,0,-1
 464 344 l 1,1,-1
 425 316 l 1,2,-1
 310 488 l 1,3,-1
 137 316 l 1,4,-1
 108 344 l 1,5,-1
 304 540 l 1,6,-1
 331 540 l 1,0,-1
EndSplineSet
EndChar

StartChar: underscore
Encoding: 95 95 66
Width: 460
GlyphClass: 2
Flags: W
LayerCount: 2
Fore
SplineSet
-3 -50 m 1,0,-1
 361 -50 l 1,1,-1
 353 -94 l 1,2,-1
 -11 -94 l 1,3,-1
 -3 -50 l 1,0,-1
EndSplineSet
EndChar

StartChar: grave
Encoding: 96 96 67
Width: 300
GlyphClass: 2
Flags: W
LayerCount: 2
Fore
SplineSet
277 662 m 1,0,-1
 324 500 l 1,1,-1
 298 500 l 1,2,-1
 171 662 l 1,3,-1
 277 662 l 1,0,-1
EndSplineSet
EndChar

StartChar: a
Encoding: 97 97 68
Width: 482
GlyphClass: 2
Flags: W
AnchorPoint: "Anchor-5" 266 515 basechar 0
AnchorPoint: "Anchor-3" 196 118 basechar 0
AnchorPoint: "Anchor-2" 195 0 basechar 0
AnchorPoint: "Anchor-1" 156 0 basechar 0
AnchorPoint: "Anchor-0" 370 0 basechar 0
LayerCount: 2
Fore
SplineSet
160 336 m 0,0,1
 160 314 160 314 145 302 c 128,-1,2
 130 290 130 290 109 290 c 0,3,4
 93 290 93 290 83 300.5 c 128,-1,5
 73 311 73 311 73 328 c 0,6,7
 73 386 73 386 124.5 418 c 128,-1,8
 176 450 176 450 257 450 c 0,9,10
 337 450 337 450 375 414.5 c 128,-1,11
 413 379 413 379 413 320 c 0,12,13
 413 308 413 308 409 282 c 2,14,-1
 380 106 l 2,15,16
 378 90 378 90 378 84 c 0,17,18
 378 55 378 55 391.5 39 c 128,-1,19
 405 23 405 23 429 23 c 1,20,-1
 425 0 l 1,21,22
 326 0 326 0 298 37 c 1,23,24
 228 -10 228 -10 138 -10 c 0,25,26
 6 -10 6 -10 6 83 c 0,27,28
 6 109 6 109 16.5 130.5 c 128,-1,29
 27 152 27 152 47 166.5 c 128,-1,30
 67 181 67 181 89.5 192 c 128,-1,31
 112 203 112 203 143 211.5 c 128,-1,32
 174 220 174 220 200 226 c 128,-1,33
 226 232 226 232 259.5 239 c 128,-1,34
 293 246 293 246 314 252 c 1,35,36
 321 301 321 301 321 325 c 0,37,38
 321 368 321 368 299 391 c 128,-1,39
 277 414 277 414 241 414 c 0,40,41
 152 414 152 414 131 366 c 1,42,43
 160 366 160 366 160 336 c 0,0,1
310 230 m 1,44,45
 297 226 297 226 265.5 218 c 128,-1,46
 234 210 234 210 216.5 204.5 c 128,-1,47
 199 199 199 199 173.5 187.5 c 128,-1,48
 148 176 148 176 134 163 c 128,-1,49
 120 150 120 150 109.5 129 c 128,-1,50
 99 108 99 108 99 81 c 0,51,52
 99 24 99 24 161 24 c 0,53,54
 230 24 230 24 288 58 c 1,55,56
 286 68 286 68 286 75 c 128,-1,57
 286 82 286 82 288 96 c 2,58,-1
 310 230 l 1,44,45
EndSplineSet
EndChar

StartChar: b
Encoding: 98 98 69
Width: 535
GlyphClass: 2
Flags: W
AnchorPoint: "Anchor-5" 316 515 basechar 0
AnchorPoint: "Anchor-3" 171 510 basechar 0
AnchorPoint: "Anchor-2" 202 0 basechar 0
LayerCount: 2
Fore
SplineSet
175 376 m 1,0,1
 245 454 245 454 325 454 c 0,2,3
 353 454 353 454 381 445.5 c 128,-1,4
 409 437 409 437 435.5 418 c 128,-1,5
 462 399 462 399 478.5 363 c 128,-1,6
 495 327 495 327 495 278 c 0,7,8
 495 144 495 144 416.5 67 c 128,-1,9
 338 -10 338 -10 225 -10 c 0,10,11
 162 -10 162 -10 113.5 5 c 128,-1,12
 65 20 65 20 48 35 c 2,13,-1
 30 50 l 1,14,-1
 116 559 l 1,15,16
 54 564 54 564 53 564 c 2,17,-1
 57 587 l 1,18,19
 76 587 76 587 135 608.5 c 128,-1,20
 194 630 194 630 217 630 c 1,21,-1
 175 376 l 1,0,1
166 325 m 1,22,-1
 118 38 l 1,23,24
 165 24 165 24 225 24 c 0,25,26
 291 24 291 24 346 98 c 128,-1,27
 401 172 401 172 401 283 c 0,28,29
 401 346 401 346 376.5 383 c 128,-1,30
 352 420 352 420 309 420 c 0,31,32
 233 420 233 420 166 325 c 1,22,-1
EndSplineSet
EndChar

StartChar: c
Encoding: 99 99 70
Width: 478
GlyphClass: 2
Flags: W
AnchorPoint: "Anchor-5" 311 515 basechar 0
AnchorPoint: "Anchor-2" 221 0 basechar 0
AnchorPoint: "Anchor-1" 221 0 basechar 0
LayerCount: 2
Fore
SplineSet
352 323 m 0,0,1
 352 346 352 346 366 358 c 128,-1,2
 380 370 380 370 394 370 c 1,3,4
 390 420 390 420 300 420 c 0,5,6
 230 420 230 420 179.5 358.5 c 128,-1,7
 129 297 129 297 129 202 c 0,8,9
 129 130 129 130 164.5 79 c 128,-1,10
 200 28 200 28 252 28 c 0,11,12
 340 28 340 28 403 94 c 1,13,-1
 425 82 l 1,14,15
 388 35 388 35 338 12.5 c 128,-1,16
 288 -10 288 -10 211 -10 c 0,17,18
 138 -10 138 -10 84.5 33 c 128,-1,19
 31 76 31 76 31 175 c 0,20,21
 31 294 31 294 103 372 c 128,-1,22
 175 450 175 450 295 450 c 0,23,24
 444 450 444 450 444 362 c 0,25,26
 444 332 444 332 429.5 313 c 128,-1,27
 415 294 415 294 391 294 c 0,28,29
 352 294 352 294 352 323 c 0,0,1
EndSplineSet
EndChar

StartChar: d
Encoding: 100 100 71
Width: 539
GlyphClass: 2
Flags: W
AnchorPoint: "Anchor-5" 274 515 basechar 0
AnchorPoint: "Anchor-3" 433 508 basechar 0
AnchorPoint: "Anchor-2" 212 0 basechar 0
LayerCount: 2
Fore
SplineSet
394 430 m 1,0,-1
 416 559 l 1,1,2
 354 564 354 564 353 564 c 2,3,-1
 357 587 l 1,4,5
 376 587 376 587 435 608.5 c 128,-1,6
 494 630 494 630 517 630 c 1,7,-1
 430 106 l 2,8,9
 428 90 428 90 428 84 c 0,10,11
 428 55 428 55 441.5 39 c 128,-1,12
 455 23 455 23 479 23 c 1,13,-1
 475 0 l 1,14,15
 371 0 371 0 346 38 c 1,16,17
 288 -10 288 -10 200 -10 c 0,18,19
 172 -10 172 -10 144 -1.5 c 128,-1,20
 116 7 116 7 89.5 26 c 128,-1,21
 63 45 63 45 46.5 81 c 128,-1,22
 30 117 30 117 30 166 c 0,23,24
 30 300 30 300 108.5 377 c 128,-1,25
 187 454 187 454 300 454 c 0,26,27
 357 454 357 454 394 430 c 1,0,-1
338 61 m 1,28,29
 336 71 336 71 336 78 c 0,30,31
 336 84 336 84 338 96 c 2,32,-1
 389 398 l 1,33,34
 355 420 355 420 300 420 c 0,35,36
 241 420 241 420 184.5 354.5 c 128,-1,37
 128 289 128 289 128 188 c 0,38,39
 128 129 128 129 152.5 76.5 c 128,-1,40
 177 24 177 24 216 24 c 0,41,42
 289 24 289 24 338 61 c 1,28,29
EndSplineSet
EndChar

StartChar: e
Encoding: 101 101 72
Width: 490
GlyphClass: 2
Flags: W
AnchorPoint: "Anchor-5" 289 515 basechar 0
AnchorPoint: "Anchor-3" 265 338 basechar 0
AnchorPoint: "Anchor-2" 220 0 basechar 0
AnchorPoint: "Anchor-1" 220 0 basechar 0
AnchorPoint: "Anchor-0" 257 0 basechar 0
LayerCount: 2
Fore
SplineSet
460 316 m 0,0,1
 460 285 460 285 434.5 265.5 c 128,-1,2
 409 246 409 246 324 234 c 2,3,-1
 131 208 l 1,4,5
 131 133 131 133 165.5 80.5 c 128,-1,6
 200 28 200 28 253 28 c 0,7,8
 341 28 341 28 404 94 c 1,9,-1
 426 82 l 1,10,11
 389 35 389 35 339 12.5 c 128,-1,12
 289 -10 289 -10 212 -10 c 0,13,14
 139 -10 139 -10 85.5 33 c 128,-1,15
 32 76 32 76 32 175 c 0,16,17
 32 294 32 294 98 372 c 128,-1,18
 164 450 164 450 279 450 c 0,19,20
 372 450 372 450 416 408.5 c 128,-1,21
 460 367 460 367 460 316 c 0,0,1
133 239 m 1,22,-1
 282 259 l 2,23,24
 370 270 370 270 370 330 c 0,25,26
 370 364 370 364 346.5 392 c 128,-1,27
 323 420 323 420 270 420 c 0,28,29
 229 420 229 420 187.5 369 c 128,-1,30
 146 318 146 318 133 239 c 1,22,-1
EndSplineSet
EndChar

StartChar: f
Encoding: 102 102 73
Width: 250
GlyphClass: 2
Flags: W
AnchorPoint: "Anchor-5" 277 655 basechar 0
LayerCount: 2
Fore
SplineSet
378 576 m 0,0,1
 378 557 378 557 363.5 545.5 c 128,-1,2
 349 534 349 534 330 534 c 0,3,4
 313 534 313 534 306 544.5 c 128,-1,5
 299 555 299 555 300 567 c 128,-1,6
 301 579 301 579 295 589.5 c 128,-1,7
 289 600 289 600 273 600 c 0,8,9
 254 600 254 600 237 571.5 c 128,-1,10
 220 543 220 543 211 488 c 2,11,-1
 203 440 l 1,12,-1
 249 440 l 1,13,-1
 244 410 l 1,14,-1
 198 410 l 1,15,-1
 129 0 l 1,16,-1
 78 -35 l 1,17,-1
 33 -35 l 1,18,-1
 108 410 l 1,19,-1
 58 410 l 1,20,-1
 63 440 l 1,21,-1
 113 440 l 1,22,-1
 118 474 l 1,23,24
 145 630 145 630 268 630 c 0,25,26
 323 630 323 630 350.5 614 c 128,-1,27
 378 598 378 598 378 576 c 0,0,1
EndSplineSet
EndChar

StartChar: g
Encoding: 103 103 74
Width: 517
GlyphClass: 2
Flags: W
AnchorPoint: "Anchor-5" 315 515 basechar 0
AnchorPoint: "Anchor-3" 407 228 basechar 0
AnchorPoint: "Anchor-2" 199 0 basechar 0
LayerCount: 2
Fore
SplineSet
102 -89 m 0,0,1
 102 -125 102 -125 69 -137 c 1,2,3
 92 -164 92 -164 180 -164 c 0,4,5
 229 -164 229 -164 264.5 -122 c 128,-1,6
 300 -80 300 -80 323 20 c 1,7,8
 272 -10 272 -10 200 -10 c 0,9,10
 171 -10 171 -10 143.5 -1.5 c 128,-1,11
 116 7 116 7 89.5 25 c 128,-1,12
 63 43 63 43 46.5 79 c 128,-1,13
 30 115 30 115 30 163 c 0,14,15
 30 297 30 297 108 373.5 c 128,-1,16
 186 450 186 450 299 450 c 0,17,18
 337 450 337 450 369.5 443 c 128,-1,19
 402 436 402 436 420.5 426.5 c 128,-1,20
 439 417 439 417 452 407.5 c 128,-1,21
 465 398 465 398 470 391 c 2,22,-1
 475 384 l 1,23,-1
 416 29 l 2,24,25
 399 -74 399 -74 339 -137 c 128,-1,26
 279 -200 279 -200 184 -200 c 0,27,28
 103 -200 103 -200 56.5 -173.5 c 128,-1,29
 10 -147 10 -147 10 -116 c 0,30,31
 10 -92 10 -92 26 -76 c 128,-1,32
 42 -60 42 -60 62 -60 c 0,33,34
 102 -60 102 -60 102 -89 c 0,0,1
330 53 m 1,35,-1
 388 400 l 1,36,37
 345 416 345 416 300 416 c 0,38,39
 235 416 235 416 179.5 342 c 128,-1,40
 124 268 124 268 124 158 c 0,41,42
 124 96 124 96 148.5 60 c 128,-1,43
 173 24 173 24 216 24 c 0,44,45
 282 24 282 24 330 53 c 1,35,-1
EndSplineSet
EndChar

StartChar: h
Encoding: 104 104 75
Width: 533
GlyphClass: 2
Flags: W
AnchorPoint: "Anchor-5" 183 655 basechar 0
AnchorPoint: "Anchor-3" 191 516 basechar 0
AnchorPoint: "Anchor-2" 216 0 basechar 0
AnchorPoint: "Anchor-1" 362 0 basechar 0
LayerCount: 2
Fore
SplineSet
429 106 m 2,0,1
 427 90 427 90 427 84 c 0,2,3
 427 55 427 55 440.5 39 c 128,-1,4
 454 23 454 23 478 23 c 1,5,-1
 474 0 l 1,6,7
 404 0 404 0 369.5 18 c 128,-1,8
 335 36 335 36 335 76 c 0,9,10
 335 82 335 82 337 96 c 2,11,-1
 374 319 l 2,12,13
 377 334 377 334 377 347 c 0,14,15
 377 416 377 416 299 416 c 0,16,17
 231 416 231 416 166 298 c 1,18,-1
 116 0 l 1,19,-1
 26 0 l 1,20,-1
 120 559 l 1,21,22
 58 564 58 564 57 564 c 2,23,-1
 61 587 l 1,24,25
 80 587 80 587 139 608.5 c 128,-1,26
 198 630 198 630 221 630 c 1,27,-1
 178 370 l 1,28,29
 238 450 238 450 310 450 c 0,30,31
 393 450 393 450 430 427 c 128,-1,32
 467 404 467 404 467 350 c 0,33,34
 467 340 467 340 463 312 c 2,35,-1
 429 106 l 2,0,1
EndSplineSet
EndChar

StartChar: i
Encoding: 105 105 76
Width: 243
GlyphClass: 2
Flags: W
AnchorPoint: "Anchor-5" 189 620 basechar 0
AnchorPoint: "Anchor-3" 133 260 basechar 0
AnchorPoint: "Anchor-2" 83 0 basechar 0
AnchorPoint: "Anchor-1" 83 0 basechar 0
AnchorPoint: "Anchor-0" 111 0 basechar 0
LayerCount: 2
Fore
SplineSet
234 581 m 0,0,1
 234 554 234 554 215.5 534 c 128,-1,2
 197 514 197 514 171 514 c 0,3,4
 151 514 151 514 138 527.5 c 128,-1,5
 125 541 125 541 125 562 c 0,6,7
 125 589 125 589 143 609.5 c 128,-1,8
 161 630 161 630 187 630 c 0,9,10
 207 630 207 630 220.5 616 c 128,-1,11
 234 602 234 602 234 581 c 0,0,1
106 379 m 1,12,13
 97 380 97 380 83 381 c 128,-1,14
 69 382 69 382 60 383 c 128,-1,15
 51 384 51 384 44 384 c 1,16,-1
 48 407 l 1,17,18
 67 407 67 407 126 428.5 c 128,-1,19
 185 450 185 450 208 450 c 1,20,-1
 133 0 l 1,21,-1
 43 0 l 1,22,-1
 106 379 l 1,12,13
EndSplineSet
EndChar

StartChar: j
Encoding: 106 106 77
Width: 241
GlyphClass: 2
Flags: W
AnchorPoint: "Anchor-5" 185 620 basechar 0
LayerCount: 2
Fore
SplineSet
232 582 m 0,0,1
 232 555 232 555 213.5 535 c 128,-1,2
 195 515 195 515 169 515 c 0,3,4
 149 515 149 515 136 528.5 c 128,-1,5
 123 542 123 542 123 563 c 0,6,7
 123 590 123 590 141.5 610.5 c 128,-1,8
 160 631 160 631 186 631 c 0,9,10
 206 631 206 631 219 617.5 c 128,-1,11
 232 604 232 604 232 582 c 0,0,1
105 380 m 1,12,-1
 42 385 l 1,13,-1
 46 408 l 1,14,15
 65 408 65 408 124 429.5 c 128,-1,16
 183 451 183 451 206 451 c 1,17,-1
 124 -43 l 2,18,19
 110 -125 110 -125 66.5 -162 c 128,-1,20
 23 -199 23 -199 -34 -199 c 0,21,22
 -152 -199 -152 -199 -152 -129 c 0,23,24
 -152 -103 -152 -103 -137 -87.5 c 128,-1,25
 -122 -72 -122 -72 -101 -72 c 0,26,27
 -87 -72 -87 -72 -77.5 -80.5 c 128,-1,28
 -68 -89 -68 -89 -68 -104 c 0,29,30
 -68 -122 -68 -122 -83 -135 c 1,31,-1
 -83 -141 l 2,32,33
 -83 -169 -83 -169 -39 -169 c 0,34,35
 -19 -169 -19 -169 1.5 -139.5 c 128,-1,36
 22 -110 22 -110 31 -57 c 2,37,-1
 105 380 l 1,12,-1
EndSplineSet
EndChar

StartChar: k
Encoding: 107 107 78
Width: 484
GlyphClass: 2
Flags: W
AnchorPoint: "Anchor-5" 183 655 basechar 0
AnchorPoint: "Anchor-3" 116 260 basechar 0
AnchorPoint: "Anchor-2" 212 0 basechar 0
AnchorPoint: "Anchor-1" 70 0 basechar 0
LayerCount: 2
Fore
SplineSet
482 440 m 1,0,-1
 478 419 l 1,1,2
 439 419 439 419 422 406 c 2,3,-1
 259 279 l 1,4,-1
 391 40 l 2,5,6
 402 21 402 21 451 21 c 1,7,-1
 447 0 l 1,8,-1
 346 0 l 2,9,10
 305 0 305 0 280 48 c 1,11,-1
 166 254 l 1,12,-1
 369 413 l 1,13,14
 356 419 356 419 321 419 c 1,15,-1
 325 440 l 1,16,-1
 482 440 l 1,0,-1
120 559 m 1,17,18
 58 564 58 564 57 564 c 2,19,-1
 61 587 l 1,20,21
 80 587 80 587 139 608.5 c 128,-1,22
 198 630 198 630 221 630 c 1,23,-1
 116 0 l 1,24,-1
 26 0 l 1,25,-1
 120 559 l 1,17,18
EndSplineSet
EndChar

StartChar: l
Encoding: 108 108 79
Width: 240
GlyphClass: 2
Flags: W
AnchorPoint: "Anchor-5" 183 655 basechar 0
AnchorPoint: "Anchor-3" 130 341 basechar 0
AnchorPoint: "Anchor-2" 72 0 basechar 0
AnchorPoint: "Anchor-1" 72 0 basechar 0
LayerCount: 2
Fore
SplineSet
120 559 m 1,0,1
 58 564 58 564 57 564 c 2,2,-1
 61 587 l 1,3,4
 80 587 80 587 139 608.5 c 128,-1,5
 198 630 198 630 221 630 c 1,6,-1
 134 106 l 2,7,8
 132 90 132 90 132 84 c 0,9,10
 132 55 132 55 145.5 39 c 128,-1,11
 159 23 159 23 183 23 c 1,12,-1
 179 0 l 1,13,14
 109 0 109 0 74.5 18 c 128,-1,15
 40 36 40 36 40 76 c 0,16,17
 40 82 40 82 42 96 c 2,18,-1
 120 559 l 1,0,1
EndSplineSet
EndChar

StartChar: m
Encoding: 109 109 80
Width: 812
GlyphClass: 2
Flags: W
AnchorPoint: "Anchor-5" 454 515 basechar 0
AnchorPoint: "Anchor-3" 403 222 basechar 0
AnchorPoint: "Anchor-2" 366 0 basechar 0
AnchorPoint: "Anchor-1" 366 0 basechar 0
LayerCount: 2
Fore
SplineSet
411 0 m 1,0,-1
 321 0 l 1,1,-1
 371 299 l 2,2,3
 376 331 376 331 376 347 c 0,4,5
 376 384 376 384 359.5 400 c 128,-1,6
 343 416 343 416 307 416 c 0,7,8
 244 416 244 416 187 327 c 1,9,-1
 132 0 l 1,10,-1
 42 0 l 1,11,-1
 105 379 l 1,12,13
 96 380 96 380 82 381 c 128,-1,14
 68 382 68 382 59 383 c 128,-1,15
 50 384 50 384 43 384 c 1,16,-1
 47 407 l 1,17,18
 66 407 66 407 125 428.5 c 128,-1,19
 184 450 184 450 207 450 c 1,20,-1
 196 384 l 1,21,22
 249 450 249 450 318 450 c 0,23,24
 456 450 456 450 468 374 c 1,25,26
 523 450 523 450 597 450 c 0,27,28
 748 450 748 450 748 358 c 0,29,30
 748 352 748 352 746 336 c 2,31,-1
 708 106 l 2,32,33
 706 90 706 90 706 84 c 0,34,35
 706 55 706 55 719.5 39 c 128,-1,36
 733 23 733 23 757 23 c 1,37,-1
 753 0 l 1,38,39
 683 0 683 0 648.5 18 c 128,-1,40
 614 36 614 36 614 76 c 0,41,42
 614 82 614 82 616 96 c 2,43,-1
 650 299 l 2,44,45
 655 331 655 331 655 347 c 0,46,47
 655 384 655 384 638.5 400 c 128,-1,48
 622 416 622 416 586 416 c 0,49,50
 524 416 524 416 466 326 c 1,51,-1
 411 0 l 1,0,-1
EndSplineSet
EndChar

StartChar: n
Encoding: 110 110 81
Width: 549
GlyphClass: 2
Flags: W
AnchorPoint: "Anchor-5" 328 515 basechar 0
AnchorPoint: "Anchor-3" 277 222 basechar 0
AnchorPoint: "Anchor-2" 240 0 basechar 0
AnchorPoint: "Anchor-1" 240 0 basechar 0
LayerCount: 2
Fore
SplineSet
195 377 m 1,0,1
 255 451 255 451 354 451 c 0,2,3
 482 451 482 451 482 345 c 0,4,5
 482 328 482 328 479 308 c 2,6,-1
 445 106 l 2,7,8
 443 90 443 90 443 84 c 0,9,10
 443 55 443 55 456.5 39 c 128,-1,11
 470 23 470 23 494 23 c 1,12,-1
 490 0 l 1,13,14
 420 0 420 0 385.5 18 c 128,-1,15
 351 36 351 36 351 76 c 0,16,17
 351 82 351 82 353 96 c 2,18,-1
 390 315 l 2,19,20
 392 325 392 325 392 344 c 0,21,22
 392 416 392 416 315 416 c 0,23,24
 244 416 244 416 186 321 c 1,25,-1
 132 0 l 1,26,-1
 42 0 l 1,27,-1
 105 379 l 1,28,29
 96 380 96 380 82 381 c 128,-1,30
 68 382 68 382 59 383 c 128,-1,31
 50 384 50 384 43 384 c 1,32,-1
 47 407 l 1,33,34
 66 407 66 407 125 428.5 c 128,-1,35
 184 450 184 450 207 450 c 1,36,-1
 195 377 l 1,0,1
EndSplineSet
EndChar

StartChar: o
Encoding: 111 111 82
Width: 547
GlyphClass: 2
Flags: W
AnchorPoint: "Anchor-5" 319 515 basechar 0
AnchorPoint: "Anchor-4" 439 313 basechar 0
AnchorPoint: "Anchor-3" 269 230 basechar 0
AnchorPoint: "Anchor-2" 239 0 basechar 0
AnchorPoint: "Anchor-1" 239 0 basechar 0
AnchorPoint: "Anchor-0" 239 0 basechar 0
LayerCount: 2
Fore
SplineSet
129 176 m 0,0,1
 129 97 129 97 161.5 58.5 c 128,-1,2
 194 20 194 20 252 20 c 0,3,4
 322 20 322 20 365.5 95.5 c 128,-1,5
 409 171 409 171 409 273 c 0,6,7
 409 419 409 419 282 419 c 0,8,9
 214 419 214 419 171.5 345 c 128,-1,10
 129 271 129 271 129 176 c 0,0,1
234 -10 m 0,11,12
 136 -10 136 -10 84 40 c 128,-1,13
 32 90 32 90 32 176 c 0,14,15
 32 296 32 296 103 373 c 128,-1,16
 174 450 174 450 304 450 c 0,17,18
 405 450 405 450 455.5 403 c 128,-1,19
 506 356 506 356 506 272 c 0,20,21
 506 150 506 150 435 70 c 128,-1,22
 364 -10 364 -10 234 -10 c 0,11,12
EndSplineSet
EndChar

StartChar: p
Encoding: 112 112 83
Width: 538
GlyphClass: 2
Flags: W
AnchorPoint: "Anchor-5" 334 515 basechar 0
AnchorPoint: "Anchor-3" 125 218 basechar 0
AnchorPoint: "Anchor-2" 254 0 basechar 0
LayerCount: 2
Fore
SplineSet
-53 -192 m 1,0,-1
 -50 -171 l 1,1,2
 6 -171 6 -171 17 -151 c 1,3,-1
 105 379 l 1,4,5
 96 380 96 380 82 381 c 128,-1,6
 68 382 68 382 59 383 c 128,-1,7
 50 384 50 384 43 384 c 1,8,-1
 47 407 l 1,9,10
 66 407 66 407 125 428.5 c 128,-1,11
 184 450 184 450 207 450 c 1,12,-1
 195 374 l 1,13,14
 258 450 258 450 345 450 c 0,15,16
 406 450 406 450 452 410 c 128,-1,17
 498 370 498 370 498 281 c 0,18,19
 498 144 498 144 421 67 c 128,-1,20
 344 -10 344 -10 228 -10 c 0,21,22
 171 -10 171 -10 134 12 c 1,23,-1
 107 -151 l 1,24,25
 113 -171 113 -171 166 -171 c 1,26,-1
 163 -192 l 1,27,-1
 -53 -192 l 1,0,-1
185 318 m 1,28,-1
 139 44 l 1,29,30
 173 24 173 24 228 24 c 0,31,32
 293 24 293 24 347.5 94.5 c 128,-1,33
 402 165 402 165 402 273 c 0,34,35
 402 416 402 416 330 416 c 0,36,37
 248 416 248 416 185 318 c 1,28,-1
EndSplineSet
EndChar

StartChar: q
Encoding: 113 113 84
Width: 519
GlyphClass: 2
Flags: W
LayerCount: 2
Fore
SplineSet
229 -192 m 1,0,-1
 232 -171 l 1,1,2
 288 -171 288 -171 299 -151 c 1,3,-1
 328 23 l 1,4,5
 275 -10 275 -10 200 -10 c 0,6,7
 171 -10 171 -10 143.5 -1.5 c 128,-1,8
 116 7 116 7 89.5 25 c 128,-1,9
 63 43 63 43 46.5 79 c 128,-1,10
 30 115 30 115 30 163 c 0,11,12
 30 297 30 297 108 373.5 c 128,-1,13
 186 450 186 450 299 450 c 0,14,15
 335 450 335 450 366.5 439.5 c 128,-1,16
 398 429 398 429 416.5 413.5 c 128,-1,17
 435 398 435 398 448.5 382.5 c 128,-1,18
 462 367 462 367 467 356 c 2,19,-1
 472 346 l 1,20,-1
 389 -151 l 1,21,22
 395 -171 395 -171 448 -171 c 1,23,-1
 445 -192 l 1,24,-1
 229 -192 l 1,0,-1
333 55 m 1,25,-1
 389 388 l 1,26,27
 347 416 347 416 300 416 c 0,28,29
 235 416 235 416 179.5 342 c 128,-1,30
 124 268 124 268 124 158 c 0,31,32
 124 96 124 96 148.5 60 c 128,-1,33
 173 24 173 24 216 24 c 0,34,35
 285 24 285 24 333 55 c 1,25,-1
EndSplineSet
EndChar

StartChar: r
Encoding: 114 114 85
Width: 385
GlyphClass: 2
Flags: W
AnchorPoint: "Anchor-5" 277 515 basechar 0
AnchorPoint: "Anchor-2" 89 0 basechar 0
LayerCount: 2
Fore
SplineSet
357 359 m 0,0,1
 343 359 343 359 335 368 c 128,-1,2
 327 377 327 377 324 387.5 c 128,-1,3
 321 398 321 398 312.5 407 c 128,-1,4
 304 416 304 416 290 416 c 0,5,6
 258 416 258 416 179 282 c 1,7,-1
 132 0 l 1,8,-1
 42 0 l 1,9,-1
 105 379 l 1,10,11
 96 380 96 380 82 381 c 128,-1,12
 68 382 68 382 59 383 c 128,-1,13
 50 384 50 384 43 384 c 1,14,-1
 47 407 l 1,15,16
 66 407 66 407 125 428.5 c 128,-1,17
 184 450 184 450 207 450 c 1,18,-1
 191 352 l 1,19,20
 260 450 260 450 306 450 c 0,21,22
 348 450 348 450 375.5 434.5 c 128,-1,23
 403 419 403 419 403 399 c 0,24,25
 403 380 403 380 389 369.5 c 128,-1,26
 375 359 375 359 357 359 c 0,0,1
EndSplineSet
EndChar

StartChar: s
Encoding: 115 115 86
Width: 408
GlyphClass: 2
Flags: W
AnchorPoint: "Anchor-5" 252 515 basechar 0
AnchorPoint: "Anchor-3" 197 229 basechar 0
AnchorPoint: "Anchor-2" 139 0 basechar 0
AnchorPoint: "Anchor-1" 139 0 basechar 0
LayerCount: 2
Fore
SplineSet
223 416 m 0,0,1
 189 416 189 416 158.5 397.5 c 128,-1,2
 128 379 128 379 128 354 c 128,-1,3
 128 329 128 329 151 309 c 128,-1,4
 174 289 174 289 207 274 c 128,-1,5
 240 259 240 259 273 243 c 128,-1,6
 306 227 306 227 329 201 c 128,-1,7
 352 175 352 175 352 142 c 0,8,9
 352 72 352 72 295 31 c 128,-1,10
 238 -10 238 -10 160 -10 c 0,11,12
 124 -10 124 -10 89.5 5 c 128,-1,13
 55 20 55 20 51 20 c 0,14,15
 39 20 39 20 36 0 c 1,16,-1
 12 0 l 1,17,-1
 23 127 l 1,18,-1
 45 127 l 1,19,20
 45 87 45 87 87.5 58.5 c 128,-1,21
 130 30 130 30 175 30 c 0,22,23
 193 30 193 30 212 34 c 128,-1,24
 231 38 231 38 250.5 55.5 c 128,-1,25
 270 73 270 73 270 102 c 0,26,27
 270 126 270 126 248.5 145 c 128,-1,28
 227 164 227 164 195.5 177.5 c 128,-1,29
 164 191 164 191 133 206 c 128,-1,30
 102 221 102 221 80.5 247 c 128,-1,31
 59 273 59 273 59 308 c 0,32,33
 59 375 59 375 106.5 412.5 c 128,-1,34
 154 450 154 450 225 450 c 0,35,36
 259 450 259 450 292.5 435 c 128,-1,37
 326 420 326 420 331 420 c 0,38,39
 344 420 344 420 347 440 c 1,40,-1
 370 440 l 1,41,-1
 358 313 l 1,42,-1
 336 313 l 1,43,44
 336 354 336 354 302 385 c 128,-1,45
 268 416 268 416 223 416 c 0,0,1
EndSplineSet
EndChar

StartChar: t
Encoding: 116 116 87
Width: 333
GlyphClass: 2
Flags: W
AnchorPoint: "Anchor-5" 220 620 basechar 0
AnchorPoint: "Anchor-2" 142 0 basechar 0
AnchorPoint: "Anchor-1" 142 0 basechar 0
LayerCount: 2
Fore
SplineSet
236 585 m 1,0,-1
 212 440 l 1,1,-1
 298 440 l 1,2,-1
 293 410 l 1,3,-1
 207 410 l 1,4,-1
 153 92 l 2,5,6
 151 76 151 76 151 69 c 0,7,8
 151 28 151 28 195 28 c 0,9,10
 213 28 213 28 234.5 45.5 c 128,-1,11
 256 63 256 63 268 94 c 1,12,-1
 290 82 l 1,13,14
 253 -10 253 -10 154 -10 c 0,15,16
 56 -10 56 -10 56 72 c 0,17,18
 56 85 56 85 59 100 c 2,19,-1
 111 410 l 1,20,-1
 41 410 l 1,21,-1
 46 440 l 1,22,23
 104 440 104 440 147.5 483.5 c 128,-1,24
 191 527 191 527 200 585 c 1,25,-1
 236 585 l 1,0,-1
EndSplineSet
EndChar

StartChar: u
Encoding: 117 117 88
Width: 551
GlyphClass: 2
Flags: W
AnchorPoint: "Anchor-5" 315 515 basechar 0
AnchorPoint: "Anchor-4" 471 313 basechar 0
AnchorPoint: "Anchor-3" 269 246 basechar 0
AnchorPoint: "Anchor-2" 233 0 basechar 0
AnchorPoint: "Anchor-1" 221 0 basechar 0
AnchorPoint: "Anchor-0" 346 0 basechar 0
LayerCount: 2
Fore
SplineSet
441 106 m 2,0,1
 439 90 439 90 439 84 c 0,2,3
 439 55 439 55 452.5 39 c 128,-1,4
 466 23 466 23 490 23 c 1,5,-1
 486 0 l 1,6,7
 363 0 363 0 349 59 c 1,8,9
 280 -10 280 -10 212 -10 c 0,10,11
 131 -10 131 -10 94 16 c 128,-1,12
 57 42 57 42 57 96 c 0,13,14
 57 112 57 112 60 132 c 2,15,-1
 105 399 l 1,16,17
 99 419 99 419 45 419 c 1,18,-1
 49 440 l 1,19,-1
 202 440 l 1,20,-1
 149 125 l 2,21,22
 146 110 146 110 146 96 c 0,23,24
 146 24 146 24 224 24 c 0,25,26
 292 24 292 24 348 87 c 1,27,-1
 407 440 l 1,28,-1
 497 440 l 1,29,-1
 441 106 l 2,0,1
EndSplineSet
EndChar

StartChar: v
Encoding: 118 118 89
Width: 458
GlyphClass: 2
Flags: W
AnchorPoint: "Anchor-5" 294 515 basechar 0
AnchorPoint: "Anchor-2" 186 0 basechar 0
LayerCount: 2
Fore
SplineSet
163 0 m 1,0,-1
 71 399 l 1,1,2
 65 419 65 419 11 419 c 1,3,-1
 15 440 l 1,4,-1
 157 440 l 1,5,-1
 232 122 l 1,6,7
 237 129 237 129 263.5 163.5 c 128,-1,8
 290 198 290 198 299.5 211.5 c 128,-1,9
 309 225 309 225 330.5 257 c 128,-1,10
 352 289 352 289 363 309 c 128,-1,11
 374 329 374 329 386.5 357 c 128,-1,12
 399 385 399 385 406 410 c 1,13,14
 394 419 394 419 354 419 c 1,15,-1
 358 440 l 1,16,-1
 462 440 l 1,17,18
 452 378 452 378 412.5 307.5 c 128,-1,19
 373 237 373 237 331.5 185.5 c 128,-1,20
 290 134 290 134 253.5 81.5 c 128,-1,21
 217 29 217 29 212 0 c 1,22,-1
 163 0 l 1,0,-1
EndSplineSet
EndChar

StartChar: w
Encoding: 119 119 90
Width: 710
GlyphClass: 2
Flags: W
AnchorPoint: "Anchor-5" 394 515 basechar 0
AnchorPoint: "Anchor-2" 319 0 basechar 0
LayerCount: 2
Fore
SplineSet
426 368 m 1,0,-1
 484 122 l 1,1,2
 489 129 489 129 515.5 163.5 c 128,-1,3
 542 198 542 198 551.5 211.5 c 128,-1,4
 561 225 561 225 582.5 257 c 128,-1,5
 604 289 604 289 615 309 c 128,-1,6
 626 329 626 329 638.5 357 c 128,-1,7
 651 385 651 385 658 410 c 1,8,9
 646 419 646 419 606 419 c 1,10,-1
 610 440 l 1,11,-1
 714 440 l 1,12,13
 704 378 704 378 664.5 307.5 c 128,-1,14
 625 237 625 237 583.5 185.5 c 128,-1,15
 542 134 542 134 505.5 81.5 c 128,-1,16
 469 29 469 29 464 0 c 1,17,-1
 415 0 l 1,18,-1
 357 254 l 1,19,-1
 212 0 l 1,20,-1
 163 0 l 1,21,-1
 71 399 l 1,22,23
 65 419 65 419 11 419 c 1,24,-1
 15 440 l 1,25,-1
 157 440 l 1,26,-1
 232 122 l 1,27,-1
 372 368 l 1,28,-1
 426 368 l 1,0,-1
EndSplineSet
EndChar

StartChar: x
Encoding: 120 120 91
Width: 468
GlyphClass: 2
Flags: W
LayerCount: 2
Fore
SplineSet
471 440 m 1,0,-1
 467 419 l 1,1,2
 413 419 413 419 397 400 c 2,3,-1
 275 254 l 1,4,-1
 374 35 l 2,5,6
 380 21 380 21 431 21 c 1,7,-1
 427 0 l 1,8,-1
 327 0 l 2,9,10
 299 0 299 0 287.5 11 c 128,-1,11
 276 22 276 22 259 60 c 2,12,-1
 207 174 l 1,13,-1
 61 0 l 1,14,-1
 -34 0 l 1,15,-1
 -30 21 l 1,16,17
 23 21 23 21 41 42 c 2,18,-1
 187 216 l 1,19,-1
 102 405 l 2,20,21
 96 419 96 419 46 419 c 1,22,-1
 50 440 l 1,23,-1
 135 440 l 2,24,25
 174 440 174 440 186 431 c 128,-1,26
 198 422 198 422 217 380 c 2,27,-1
 255 296 l 1,28,-1
 376 440 l 1,29,-1
 471 440 l 1,0,-1
EndSplineSet
EndChar

StartChar: y
Encoding: 121 121 92
Width: 445
GlyphClass: 2
Flags: W
AnchorPoint: "Anchor-5" 291 515 basechar 0
AnchorPoint: "Anchor-2" 249 0 basechar 0
AnchorPoint: "Anchor-0" 283 0 basechar 0
LayerCount: 2
Fore
SplineSet
162 0 m 1,0,-1
 70 399 l 1,1,2
 64 419 64 419 10 419 c 1,3,-1
 14 440 l 1,4,-1
 156 440 l 1,5,-1
 231 122 l 1,6,-1
 393 408 l 1,7,8
 380 419 380 419 339 419 c 1,9,-1
 343 440 l 1,10,-1
 461 440 l 1,11,-1
 153 -102 l 1,12,13
 105 -184 105 -184 34 -184 c 0,14,15
 20 -184 20 -184 8 -175 c 128,-1,16
 -4 -166 -4 -166 -4 -153 c 0,17,18
 -4 -137 -4 -137 8 -123 c 128,-1,19
 20 -109 20 -109 35 -109 c 0,20,21
 43 -109 43 -109 53 -117.5 c 128,-1,22
 63 -126 63 -126 70 -126 c 0,23,24
 91 -126 91 -126 101 -108 c 2,25,-1
 162 0 l 1,0,-1
EndSplineSet
EndChar

StartChar: z
Encoding: 122 122 93
Width: 428
GlyphClass: 2
Flags: W
AnchorPoint: "Anchor-5" 262 515 basechar 0
AnchorPoint: "Anchor-3" 214 236 basechar 0
AnchorPoint: "Anchor-2" 170 0 basechar 0
AnchorPoint: "Anchor-1" 170 0 basechar 0
LayerCount: 2
Fore
SplineSet
347 0 m 1,0,-1
 -23 0 l 1,1,-1
 311 410 l 1,2,-1
 119 410 l 1,3,4
 97 401 97 401 88 347 c 1,5,-1
 67 347 l 1,6,-1
 83 440 l 1,7,-1
 429 440 l 1,8,-1
 95 30 l 1,9,-1
 311 30 l 1,10,11
 333 39 333 39 342 93 c 1,12,-1
 363 93 l 1,13,-1
 347 0 l 1,0,-1
EndSplineSet
EndChar

StartChar: braceleft
Encoding: 123 123 94
Width: 266
GlyphClass: 2
Flags: W
LayerCount: 2
Fore
SplineSet
38 -61 m 0,0,1
 42 -35 42 -35 60.5 49.5 c 128,-1,2
 79 134 79 134 82 150 c 0,3,4
 84 162 84 162 84 166 c 0,5,6
 84 190 84 190 67.5 199.5 c 128,-1,7
 51 209 51 209 17 209 c 1,8,-1
 21 232 l 1,9,10
 60 232 60 232 80 245 c 128,-1,11
 100 258 100 258 106 292 c 0,12,13
 109 309 109 309 118.5 392.5 c 128,-1,14
 128 476 128 476 132 502 c 0,15,16
 148 594 148 594 293 594 c 1,17,-1
 290 571 l 1,18,19
 251 571 251 571 230 558 c 128,-1,20
 209 545 209 545 203 511 c 0,21,22
 200 494 200 494 191 410.5 c 128,-1,23
 182 327 182 327 178 301 c 0,24,25
 169 242 169 242 105 221 c 1,26,27
 153 203 153 203 153 158 c 0,28,29
 153 147 153 147 152 141 c 0,30,31
 148 115 148 115 128 30.5 c 128,-1,32
 108 -54 108 -54 105 -70 c 0,33,34
 104 -76 104 -76 104 -85 c 0,35,36
 104 -110 104 -110 121 -119.5 c 128,-1,37
 138 -129 138 -129 172 -129 c 1,38,-1
 168 -153 l 1,39,40
 36 -153 36 -153 36 -78 c 0,41,42
 36 -73 36 -73 38 -61 c 0,0,1
EndSplineSet
EndChar

StartChar: bar
Encoding: 124 124 95
Width: 191
GlyphClass: 2
Flags: W
LayerCount: 2
Fore
SplineSet
144 650 m 1,0,-1
 180 650 l 1,1,-1
 66 -30 l 1,2,-1
 30 -30 l 1,3,-1
 144 650 l 1,0,-1
EndSplineSet
EndChar

StartChar: braceright
Encoding: 125 125 96
Width: 266
GlyphClass: 2
Flags: W
LayerCount: 2
Fore
SplineSet
218 502 m 0,0,1
 214 476 214 476 195.5 391.5 c 128,-1,2
 177 307 177 307 174 291 c 0,3,4
 172 279 172 279 172 275 c 0,5,6
 172 251 172 251 188.5 241.5 c 128,-1,7
 205 232 205 232 239 232 c 1,8,-1
 235 209 l 1,9,10
 196 209 196 209 176 196 c 128,-1,11
 156 183 156 183 150 149 c 0,12,13
 147 132 147 132 137.5 48.5 c 128,-1,14
 128 -35 128 -35 124 -61 c 0,15,16
 108 -153 108 -153 -38 -153 c 1,17,-1
 -34 -130 l 1,18,19
 5 -130 5 -130 26 -117 c 128,-1,20
 47 -104 47 -104 53 -70 c 0,21,22
 56 -53 56 -53 64.5 30.5 c 128,-1,23
 73 114 73 114 77 140 c 0,24,25
 86 198 86 198 151 220 c 1,26,27
 103 238 103 238 103 283 c 0,28,29
 103 294 103 294 104 300 c 0,30,31
 108 326 108 326 128 410.5 c 128,-1,32
 148 495 148 495 151 511 c 0,33,34
 152 517 152 517 152 526 c 0,35,36
 152 570 152 570 83 570 c 1,37,-1
 87 594 l 1,38,39
 220 594 220 594 220 519 c 0,40,41
 220 514 220 514 218 502 c 0,0,1
EndSplineSet
EndChar

StartChar: asciitilde
Encoding: 126 126 97
Width: 549
GlyphClass: 2
Flags: W
LayerCount: 2
Fore
SplineSet
380 208 m 0,0,1
 351 208 351 208 263 242.5 c 128,-1,2
 175 277 175 277 157 277 c 0,3,4
 119 277 119 277 102.5 260 c 128,-1,5
 86 243 86 243 80 208 c 1,6,-1
 54 208 l 1,7,8
 76 340 76 340 178 340 c 0,9,10
 207 340 207 340 295 305.5 c 128,-1,11
 383 271 383 271 401 271 c 0,12,13
 439 271 439 271 456 288 c 128,-1,14
 473 305 473 305 479 340 c 1,15,-1
 505 340 l 1,16,17
 483 208 483 208 380 208 c 0,0,1
EndSplineSet
EndChar

StartChar: exclamdown
Encoding: 161 161 99
Width: 234
GlyphClass: 2
Flags: W
LayerCount: 2
Fore
SplineSet
212 478 m 0,0,1
 212 450 212 450 191 428 c 128,-1,2
 170 406 170 406 142 406 c 0,3,4
 121 406 121 406 105.5 421 c 128,-1,5
 90 436 90 436 90 457 c 0,6,7
 90 484 90 484 112 507 c 128,-1,8
 134 530 134 530 162 530 c 0,9,10
 182 530 182 530 197 515 c 128,-1,11
 212 500 212 500 212 478 c 0,0,1
130 334 m 0,12,13
 142 334 142 334 142 289 c 0,14,15
 142 257 142 257 131.5 121 c 128,-1,16
 121 -15 121 -15 112 -65 c 1,17,18
 105 -110 105 -110 56 -110 c 0,19,20
 37 -110 37 -110 25 -100.5 c 128,-1,21
 13 -91 13 -91 13 -74 c 0,22,23
 13 -68 13 -68 14 -65 c 0,24,25
 20 -29 20 -29 55 108 c 128,-1,26
 90 245 90 245 96 266 c 0,27,28
 117 334 117 334 130 334 c 0,12,13
EndSplineSet
EndChar

StartChar: cent
Encoding: 162 162 100
Width: 474
GlyphClass: 2
Flags: W
LayerCount: 2
Fore
SplineSet
345 323 m 0,0,1
 345 346 345 346 359 358 c 128,-1,2
 373 370 373 370 387 370 c 1,3,4
 383 410 383 410 329 418 c 1,5,-1
 200 40 l 1,6,7
 221 28 221 28 245 28 c 0,8,9
 333 28 333 28 396 94 c 1,10,-1
 418 82 l 1,11,12
 381 35 381 35 331 12.5 c 128,-1,13
 281 -10 281 -10 204 -10 c 0,14,15
 189 -10 189 -10 182 -9 c 1,16,-1
 142 -128 l 1,17,-1
 106 -121 l 1,18,-1
 146 -3 l 1,19,20
 24 29 24 29 24 174 c 0,21,22
 24 294 24 294 96 372 c 128,-1,23
 168 450 168 450 288 450 c 2,24,-1
 302 450 l 1,25,-1
 345 573 l 1,26,-1
 380 566 l 1,27,-1
 339 447 l 1,28,29
 437 433 437 433 437 362 c 0,30,31
 437 332 437 332 422.5 313 c 128,-1,32
 408 294 408 294 384 294 c 0,33,34
 345 294 345 294 345 323 c 0,0,1
292 420 m 1,35,36
 223 419 223 419 173 357.5 c 128,-1,37
 123 296 123 296 123 202 c 0,38,39
 123 116 123 116 170 64 c 1,40,-1
 292 420 l 1,35,36
EndSplineSet
EndChar

StartChar: sterling
Encoding: 163 163 101
Width: 534
GlyphClass: 2
Flags: W
LayerCount: 2
Fore
SplineSet
265 345 m 1,0,1
 263 327 263 327 257.5 267 c 128,-1,2
 252 207 252 207 244.5 169 c 128,-1,3
 237 131 237 131 223 100 c 1,4,5
 265 72 265 72 314 72 c 0,6,7
 358 72 358 72 391.5 81 c 128,-1,8
 425 90 425 90 439 101 c 128,-1,9
 453 112 453 112 463 121 c 128,-1,10
 473 130 473 130 475 130 c 0,11,12
 484 130 484 130 483 118 c 0,13,14
 482 113 482 113 475 100.5 c 128,-1,15
 468 88 468 88 453 69 c 128,-1,16
 438 50 438 50 418.5 33 c 128,-1,17
 399 16 399 16 368.5 4 c 128,-1,18
 338 -8 338 -8 305 -8 c 0,19,20
 241 -8 241 -8 190 45 c 1,21,22
 143 -10 143 -10 86 -10 c 0,23,24
 43 -10 43 -10 21.5 11 c 128,-1,25
 0 32 0 32 0 65 c 0,26,27
 0 102 0 102 32 132 c 128,-1,28
 64 162 64 162 99 162 c 0,29,30
 130 162 130 162 157 147 c 1,31,32
 162 179 162 179 165 240.5 c 128,-1,33
 168 302 168 302 174 345 c 1,34,-1
 106 345 l 1,35,-1
 113 389 l 1,36,-1
 181 389 l 1,37,38
 203 497 203 497 247 546 c 128,-1,39
 291 595 291 595 359 595 c 0,40,41
 420 595 420 595 457.5 575.5 c 128,-1,42
 495 556 495 556 495 520 c 0,43,44
 495 497 495 497 479.5 482.5 c 128,-1,45
 464 468 464 468 444 468 c 0,46,47
 430 468 430 468 420.5 476.5 c 128,-1,48
 411 485 411 485 411 500 c 0,49,50
 411 518 411 518 426 531 c 1,51,-1
 426 534 l 2,52,53
 426 549 426 549 405.5 557 c 128,-1,54
 385 565 385 565 364 565 c 0,55,56
 301 565 301 565 271 389 c 1,57,-1
 377 389 l 1,58,-1
 370 345 l 1,59,-1
 265 345 l 1,0,1
93 128 m 0,60,61
 71 128 71 128 53 111.5 c 128,-1,62
 35 95 35 95 35 71 c 0,63,64
 35 50 35 50 50 37 c 128,-1,65
 65 24 65 24 88 24 c 0,66,67
 124 24 124 24 145 96 c 1,68,69
 118 128 118 128 93 128 c 0,60,61
EndSplineSet
EndChar

StartChar: currency
Encoding: 164 164 102
Width: 512
GlyphClass: 2
Flags: W
LayerCount: 2
Fore
SplineSet
113 238 m 0,0,1
 113 187 113 187 147 153 c 128,-1,2
 181 119 181 119 234 119 c 0,3,4
 299 119 299 119 351 168 c 128,-1,5
 403 217 403 217 403 286 c 0,6,7
 403 337 403 337 369 371 c 128,-1,8
 335 405 335 405 282 405 c 0,9,10
 217 405 217 405 165 356 c 128,-1,11
 113 307 113 307 113 238 c 0,0,1
449 294 m 0,12,13
 449 212 449 212 386 146 c 1,14,-1
 431 94 l 1,15,-1
 393 62 l 1,16,-1
 350 115 l 1,17,18
 291 74 291 74 226 74 c 0,19,20
 159 74 159 74 115 115 c 1,21,-1
 53 62 l 1,22,-1
 27 94 l 1,23,-1
 90 147 l 1,24,25
 67 186 67 186 67 231 c 0,26,27
 67 312 67 312 130 379 c 1,28,-1
 84 434 l 1,29,-1
 121 466 l 1,30,-1
 167 410 l 1,31,32
 225 450 225 450 289 450 c 0,33,34
 352 450 352 450 398 411 c 1,35,-1
 461 466 l 1,36,-1
 488 434 l 1,37,-1
 425 380 l 1,38,39
 449 344 449 344 449 294 c 0,12,13
EndSplineSet
EndChar

StartChar: yen
Encoding: 165 165 103
Width: 544
GlyphClass: 2
Flags: W
LayerCount: 2
Fore
SplineSet
271 585 m 1,0,-1
 267 564 l 1,1,2
 240 564 240 564 225 560 c 1,3,-1
 295 267 l 1,4,-1
 457 553 l 1,5,6
 444 564 444 564 402 564 c 1,7,-1
 406 585 l 1,8,-1
 570 585 l 1,9,-1
 566 564 l 1,10,11
 511 564 511 564 501 545 c 2,12,-1
 317 220 l 1,13,-1
 396 220 l 1,14,-1
 388 176 l 1,15,-1
 303 176 l 1,16,-1
 294 120 l 1,17,-1
 379 120 l 1,18,-1
 372 76 l 1,19,-1
 287 76 l 1,20,-1
 281 41 l 1,21,22
 287 21 287 21 341 21 c 1,23,-1
 337 0 l 1,24,-1
 119 0 l 1,25,-1
 123 21 l 1,26,27
 178 21 178 21 189 41 c 1,28,-1
 195 76 l 1,29,-1
 108 76 l 1,30,-1
 115 120 l 1,31,-1
 202 120 l 1,32,-1
 211 176 l 1,33,-1
 124 176 l 1,34,-1
 132 220 l 1,35,-1
 208 220 l 1,36,-1
 133 544 l 1,37,38
 127 564 127 564 73 564 c 1,39,-1
 77 585 l 1,40,-1
 271 585 l 1,0,-1
EndSplineSet
EndChar

StartChar: brokenbar
Encoding: 166 166 104
Width: 196
GlyphClass: 2
Flags: W
LayerCount: 2
Fore
SplineSet
146 650 m 1,0,-1
 182 650 l 1,1,-1
 134 362 l 1,2,-1
 98 362 l 1,3,-1
 146 650 l 1,0,-1
80 258 m 1,4,-1
 116 258 l 1,5,-1
 68 -30 l 1,6,-1
 32 -30 l 1,7,-1
 80 258 l 1,4,-1
EndSplineSet
EndChar

StartChar: section
Encoding: 167 167 105
Width: 411
GlyphClass: 2
Flags: W
LayerCount: 2
Fore
SplineSet
387 503 m 0,0,1
 387 485 387 485 375 471.5 c 128,-1,2
 363 458 363 458 346 458 c 0,3,4
 333 458 333 458 324 467.5 c 128,-1,5
 315 477 315 477 315 489 c 0,6,7
 315 492 315 492 316 499.5 c 128,-1,8
 317 507 317 507 317 511 c 0,9,10
 317 537 317 537 305 556.5 c 128,-1,11
 293 576 293 576 270 576 c 0,12,13
 187 576 187 576 187 511 c 0,14,15
 187 491 187 491 214.5 452.5 c 128,-1,16
 242 414 242 414 275 376.5 c 128,-1,17
 308 339 308 339 335.5 292.5 c 128,-1,18
 363 246 363 246 363 212 c 0,19,20
 363 145 363 145 325.5 101.5 c 128,-1,21
 288 58 288 58 238 42 c 1,22,23
 290 -19 290 -19 290 -67 c 0,24,25
 290 -116 290 -116 238.5 -152 c 128,-1,26
 187 -188 187 -188 115 -188 c 0,27,28
 72 -188 72 -188 41 -155.5 c 128,-1,29
 10 -123 10 -123 10 -95 c 0,30,31
 10 -77 10 -77 22 -63.5 c 128,-1,32
 34 -50 34 -50 51 -50 c 0,33,34
 63 -50 63 -50 72 -59.5 c 128,-1,35
 81 -69 81 -69 81 -81 c 0,36,37
 81 -84 81 -84 80 -91.5 c 128,-1,38
 79 -99 79 -99 79 -103 c 0,39,40
 79 -129 79 -129 91 -148.5 c 128,-1,41
 103 -168 103 -168 126 -168 c 0,42,43
 209 -168 209 -168 209 -103 c 0,44,45
 209 -83 209 -83 181.5 -44.5 c 128,-1,46
 154 -6 154 -6 121 31.5 c 128,-1,47
 88 69 88 69 60.5 115.5 c 128,-1,48
 33 162 33 162 33 196 c 0,49,50
 33 263 33 263 70.5 306.5 c 128,-1,51
 108 350 108 350 158 366 c 1,52,53
 106 427 106 427 106 475 c 0,54,55
 106 524 106 524 158 560 c 128,-1,56
 210 596 210 596 282 596 c 0,57,58
 325 596 325 596 356 563.5 c 128,-1,59
 387 531 387 531 387 503 c 0,0,1
182 339 m 1,60,61
 102 315 102 315 102 250 c 0,62,63
 102 236 102 236 105 222.5 c 128,-1,64
 108 209 108 209 116 194 c 128,-1,65
 124 179 124 179 129.5 169 c 128,-1,66
 135 159 135 159 149 142.5 c 128,-1,67
 163 126 163 126 169.5 118.5 c 128,-1,68
 176 111 176 111 193 92.5 c 128,-1,69
 210 74 210 74 215 69 c 1,70,71
 294 93 294 93 294 158 c 0,72,73
 294 172 294 172 291 185.5 c 128,-1,74
 288 199 288 199 280 214 c 128,-1,75
 272 229 272 229 267 238.5 c 128,-1,76
 262 248 262 248 247 265.5 c 128,-1,77
 232 283 232 283 227.5 289 c 128,-1,78
 223 295 223 295 204 315.5 c 128,-1,79
 185 336 185 336 182 339 c 1,60,61
EndSplineSet
EndChar

StartChar: dieresis
Encoding: 168 168 106
Width: 402
GlyphClass: 2
Flags: W
LayerCount: 2
Fore
SplineSet
335 541 m 0,0,1
 335 564 335 564 353 581 c 128,-1,2
 371 598 371 598 393 598 c 0,3,4
 411 598 411 598 423 586 c 128,-1,5
 435 574 435 574 435 557 c 0,6,7
 435 534 435 534 417 517 c 128,-1,8
 399 500 399 500 377 500 c 0,9,10
 359 500 359 500 347 512 c 128,-1,11
 335 524 335 524 335 541 c 0,0,1
151 541 m 0,12,13
 151 564 151 564 169 581 c 128,-1,14
 187 598 187 598 209 598 c 0,15,16
 227 598 227 598 239 586 c 128,-1,17
 251 574 251 574 251 557 c 0,18,19
 251 534 251 534 233 517 c 128,-1,20
 215 500 215 500 193 500 c 0,21,22
 175 500 175 500 163 512 c 128,-1,23
 151 524 151 524 151 541 c 0,12,13
EndSplineSet
EndChar

StartChar: copyright
Encoding: 169 169 107
Width: 646
GlyphClass: 2
Flags: W
LayerCount: 2
Fore
SplineSet
73 227 m 0,0,1
 73 138 73 138 132.5 78.5 c 128,-1,2
 192 19 192 19 284 19 c 0,3,4
 387 19 387 19 472.5 92 c 128,-1,5
 558 165 558 165 575 268 c 0,6,7
 578 289 578 289 578 309 c 0,8,9
 578 398 578 398 519 457.5 c 128,-1,10
 460 517 460 517 368 517 c 0,11,12
 256 517 256 517 164.5 431.5 c 128,-1,13
 73 346 73 346 73 227 c 0,0,1
372 544 m 0,14,15
 473 544 473 544 539.5 478 c 128,-1,16
 606 412 606 412 606 314 c 0,17,18
 606 289 606 289 602 268 c 0,19,20
 583 154 583 154 488.5 73 c 128,-1,21
 394 -8 394 -8 280 -8 c 0,22,23
 179 -8 179 -8 112.5 58 c 128,-1,24
 46 124 46 124 46 222 c 0,25,26
 46 310 46 310 94 385 c 128,-1,27
 142 460 142 460 217 502 c 128,-1,28
 292 544 292 544 372 544 c 0,14,15
360 402 m 0,29,30
 311 402 311 402 276.5 355.5 c 128,-1,31
 242 309 242 309 242 242 c 0,32,33
 242 194 242 194 264.5 168.5 c 128,-1,34
 287 143 287 143 319 143 c 0,35,36
 345 143 345 143 370.5 161 c 128,-1,37
 396 179 396 179 407 199 c 1,38,-1
 427 189 l 1,39,40
 386 116 386 116 304 116 c 0,41,42
 243 116 243 116 211 151.5 c 128,-1,43
 179 187 179 187 179 240 c 0,44,45
 179 323 179 323 238 376 c 128,-1,46
 297 429 297 429 365 429 c 0,47,48
 378 429 378 429 390 425.5 c 128,-1,49
 402 422 402 422 409 418 c 128,-1,50
 416 414 416 414 417 414 c 0,51,52
 419 414 419 414 420 424 c 1,53,-1
 442 424 l 1,54,-1
 435 350 l 1,55,-1
 415 350 l 1,56,57
 414 375 414 375 402 388.5 c 128,-1,58
 390 402 390 402 360 402 c 0,29,30
EndSplineSet
EndChar

StartChar: ordfeminine
Encoding: 170 170 108
Width: 364
GlyphClass: 2
Flags: W
LayerCount: 2
Fore
SplineSet
50 155 m 1,0,-1
 290 155 l 1,1,-1
 286 129 l 1,2,-1
 46 129 l 1,3,-1
 50 155 l 1,0,-1
145 412 m 1,4,5
 161 407 161 407 157 387 c 1,6,7
 154 365 154 365 125 365 c 0,8,9
 104 365 104 365 104 389 c 0,10,11
 104 421 104 421 132 438 c 128,-1,12
 160 455 160 455 201 455 c 0,13,14
 283 455 283 455 283 386 c 0,15,16
 283 380 283 380 281 366 c 2,17,-1
 265 267 l 2,18,19
 261 241 261 241 273 241 c 128,-1,20
 285 241 285 241 287 253 c 1,21,-1
 306 253 l 1,22,23
 302 232 302 232 289.5 224 c 128,-1,24
 277 216 277 216 249 216 c 0,25,26
 224 216 224 216 215 234 c 1,27,28
 180 215 180 215 140 215 c 0,29,30
 70 215 70 215 70 266 c 0,31,32
 70 286 70 286 80 300.5 c 128,-1,33
 90 315 90 315 110 323.5 c 128,-1,34
 130 332 130 332 146 337 c 128,-1,35
 162 342 162 342 188.5 347.5 c 128,-1,36
 215 353 215 353 224 355 c 1,37,38
 227 374 227 374 227 387 c 0,39,40
 227 427 227 427 191 427 c 0,41,42
 157 427 157 427 145 412 c 1,4,5
221 333 m 1,43,44
 216 332 216 332 201 327.5 c 128,-1,45
 186 323 186 323 180.5 321.5 c 128,-1,46
 175 320 175 320 163.5 316 c 128,-1,47
 152 312 152 312 147.5 308 c 128,-1,48
 143 304 143 304 136.5 297.5 c 128,-1,49
 130 291 130 291 128 283.5 c 128,-1,50
 126 276 126 276 126 266 c 0,51,52
 126 242 126 242 152 242 c 0,53,54
 182 242 182 242 210 256 c 1,55,56
 210 267 210 267 212 281 c 2,57,-1
 221 333 l 1,43,44
EndSplineSet
EndChar

StartChar: guillemotleft
Encoding: 171 171 109
Width: 439
GlyphClass: 2
Flags: W
LayerCount: 2
Fore
SplineSet
224 324 m 2,0,-1
 402 418 l 1,1,-1
 398 392 l 1,2,-1
 295 299 l 1,3,-1
 366 206 l 1,4,-1
 362 180 l 1,5,-1
 216 274 l 2,6,7
 204 282 204 282 207 299 c 0,8,9
 211 317 211 317 224 324 c 2,0,-1
64 324 m 2,10,-1
 242 418 l 1,11,-1
 238 392 l 1,12,-1
 135 299 l 1,13,-1
 206 206 l 1,14,-1
 202 180 l 1,15,-1
 56 274 l 2,16,17
 44 282 44 282 47 299 c 0,18,19
 51 317 51 317 64 324 c 2,10,-1
EndSplineSet
EndChar

StartChar: logicalnot
Encoding: 172 172 110
Width: 429
GlyphClass: 2
Flags: W
LayerCount: 2
Fore
SplineSet
323 296 m 1,0,-1
 73 296 l 1,1,-1
 80 340 l 1,2,-1
 372 340 l 1,3,-1
 350 208 l 1,4,-1
 308 208 l 1,5,-1
 323 296 l 1,0,-1
EndSplineSet
EndChar

StartChar: uni00AD
Encoding: 173 173 111
Width: 399
GlyphClass: 2
Flags: W
LayerCount: 2
Fore
SplineSet
83 340 m 1,0,-1
 347 340 l 1,1,-1
 333 296 l 1,2,-1
 69 296 l 1,3,-1
 83 340 l 1,0,-1
EndSplineSet
EndChar

StartChar: registered
Encoding: 174 174 112
Width: 647
GlyphClass: 2
Flags: W
LayerCount: 2
Fore
SplineSet
73 227 m 0,0,1
 73 138 73 138 132.5 78.5 c 128,-1,2
 192 19 192 19 284 19 c 0,3,4
 396 19 396 19 487 104 c 128,-1,5
 578 189 578 189 578 309 c 0,6,7
 578 398 578 398 519 457.5 c 128,-1,8
 460 517 460 517 368 517 c 0,9,10
 255 517 255 517 164 431.5 c 128,-1,11
 73 346 73 346 73 227 c 0,0,1
372 544 m 0,12,13
 473 544 473 544 539.5 478 c 128,-1,14
 606 412 606 412 606 314 c 0,15,16
 606 226 606 226 558 151 c 128,-1,17
 510 76 510 76 435 34 c 128,-1,18
 360 -8 360 -8 280 -8 c 0,19,20
 179 -8 179 -8 112.5 58 c 128,-1,21
 46 124 46 124 46 222 c 0,22,23
 46 310 46 310 94 385 c 128,-1,24
 142 460 142 460 217 502 c 128,-1,25
 292 544 292 544 372 544 c 0,12,13
169 122 m 1,26,-1
 173 142 l 1,27,28
 198 142 198 142 205 149 c 1,29,-1
 247 398 l 1,30,31
 246 404 246 404 217 404 c 1,32,-1
 220 424 l 1,33,-1
 338 424 l 2,34,35
 397 424 397 424 426.5 404 c 128,-1,36
 456 384 456 384 456 355 c 0,37,38
 456 323 456 323 434 299 c 128,-1,39
 412 275 412 275 378 264 c 1,40,-1
 423 150 l 1,41,42
 424 142 424 142 455 142 c 1,43,-1
 451 122 l 1,44,-1
 425 122 l 2,45,46
 389 122 389 122 378 127 c 128,-1,47
 367 132 367 132 359 151 c 2,48,-1
 318 255 l 1,49,-1
 279 255 l 1,50,-1
 261 149 l 1,51,52
 262 142 262 142 291 142 c 1,53,-1
 287 122 l 1,54,-1
 169 122 l 1,26,-1
303 398 m 1,55,-1
 283 282 l 1,56,-1
 320 282 l 2,57,58
 361 282 361 282 378.5 300.5 c 128,-1,59
 396 319 396 319 396 359 c 0,60,61
 396 398 396 398 334 398 c 2,62,-1
 303 398 l 1,55,-1
EndSplineSet
EndChar

StartChar: macron
Encoding: 175 175 113
Width: 384
GlyphClass: 2
Flags: W
LayerCount: 2
Fore
SplineSet
153 558 m 1,0,-1
 417 558 l 1,1,-1
 410 514 l 1,2,-1
 146 514 l 1,3,-1
 153 558 l 1,0,-1
EndSplineSet
EndChar

StartChar: degree
Encoding: 176 176 114
Width: 313
GlyphClass: 2
Flags: W
LayerCount: 2
Fore
SplineSet
209 589 m 0,0,1
 176 589 176 589 149 564 c 128,-1,2
 122 539 122 539 122 504 c 0,3,4
 122 478 122 478 139.5 461 c 128,-1,5
 157 444 157 444 184 444 c 0,6,7
 217 444 217 444 243.5 468.5 c 128,-1,8
 270 493 270 493 270 528 c 0,9,10
 270 554 270 554 253 571.5 c 128,-1,11
 236 589 236 589 209 589 c 0,0,1
81 498 m 0,12,13
 81 552 81 552 122.5 591 c 128,-1,14
 164 630 164 630 215 630 c 0,15,16
 257 630 257 630 284.5 602.5 c 128,-1,17
 312 575 312 575 312 534 c 0,18,19
 312 480 312 480 270 441.5 c 128,-1,20
 228 403 228 403 177 403 c 0,21,22
 135 403 135 403 108 430.5 c 128,-1,23
 81 458 81 458 81 498 c 0,12,13
EndSplineSet
EndChar

StartChar: plusminus
Encoding: 177 177 115
Width: 422
GlyphClass: 2
Flags: W
LayerCount: 2
Fore
SplineSet
56 178 m 1,0,-1
 342 178 l 1,1,-1
 334 134 l 1,2,-1
 48 134 l 1,3,-1
 56 178 l 1,0,-1
249 348 m 1,4,-1
 232 247 l 1,5,-1
 188 247 l 1,6,-1
 205 348 l 1,7,-1
 84 348 l 1,8,-1
 92 392 l 1,9,-1
 213 392 l 1,10,-1
 230 493 l 1,11,-1
 274 493 l 1,12,-1
 257 392 l 1,13,-1
 378 392 l 1,14,-1
 370 348 l 1,15,-1
 249 348 l 1,4,-1
EndSplineSet
EndChar

StartChar: uni00B2
Encoding: 178 178 116
Width: 362
GlyphClass: 2
Flags: W
LayerCount: 2
Fore
SplineSet
277 336 m 1,0,1
 304 346 304 346 322 379 c 1,2,-1
 344 379 l 1,3,-1
 300 280 l 1,4,-1
 41 280 l 1,5,-1
 42 285 l 2,6,7
 44 297 44 297 81.5 327.5 c 128,-1,8
 119 358 119 358 163 391.5 c 128,-1,9
 207 425 207 425 243.5 472 c 128,-1,10
 280 519 280 519 280 561 c 0,11,12
 280 610 280 610 226 610 c 0,13,14
 191 610 191 610 167 600 c 128,-1,15
 143 590 143 590 133.5 578 c 128,-1,16
 124 566 124 566 116 556 c 128,-1,17
 108 546 108 546 102 546 c 0,18,19
 91 546 91 546 94 557 c 1,20,21
 98 583 98 583 139 621.5 c 128,-1,22
 180 660 180 660 242 660 c 0,23,24
 357 660 357 660 357 578 c 0,25,26
 357 545 357 545 327.5 504.5 c 128,-1,27
 298 464 298 464 262.5 434.5 c 128,-1,28
 227 405 227 405 189 375 c 128,-1,29
 151 345 151 345 143 336 c 1,30,-1
 277 336 l 1,0,1
EndSplineSet
EndChar

StartChar: uni00B3
Encoding: 179 179 117
Width: 356
GlyphClass: 2
Flags: W
LayerCount: 2
Fore
SplineSet
346 584 m 0,0,1
 346 524 346 524 283 491 c 1,2,3
 336 469 336 469 336 416 c 0,4,5
 336 354 336 354 294.5 315 c 128,-1,6
 253 276 253 276 171 276 c 0,7,8
 135 276 135 276 105.5 287.5 c 128,-1,9
 76 299 76 299 63 312 c 128,-1,10
 50 325 50 325 50 335 c 0,11,12
 50 377 50 377 85 377 c 0,13,14
 96 377 96 377 101.5 366 c 128,-1,15
 107 355 107 355 109.5 341.5 c 128,-1,16
 112 328 112 328 127.5 317 c 128,-1,17
 143 306 143 306 172 306 c 0,18,19
 224 306 224 306 246.5 334.5 c 128,-1,20
 269 363 269 363 269 404 c 0,21,22
 269 464 269 464 220 464 c 0,23,24
 212 464 212 464 202 462 c 128,-1,25
 192 460 192 460 186 460 c 0,26,27
 179 460 179 460 174 464 c 128,-1,28
 169 468 169 468 170 473 c 0,29,30
 171 482 171 482 180 482 c 1,31,32
 182 483 182 483 187 484 c 0,33,34
 208 490 208 490 219.5 494 c 128,-1,35
 231 498 231 498 246.5 507 c 128,-1,36
 262 516 262 516 269.5 530.5 c 128,-1,37
 277 545 277 545 277 564 c 0,38,39
 277 585 277 585 261 597.5 c 128,-1,40
 245 610 245 610 217 610 c 0,41,42
 188 610 188 610 168.5 601.5 c 128,-1,43
 149 593 149 593 142 583.5 c 128,-1,44
 135 574 135 574 128 565.5 c 128,-1,45
 121 557 121 557 115 557 c 0,46,47
 110 557 110 557 108 561.5 c 128,-1,48
 106 566 106 566 107 569 c 0,49,50
 111 592 111 592 146 626 c 128,-1,51
 181 660 181 660 233 660 c 0,52,53
 346 660 346 660 346 584 c 0,0,1
EndSplineSet
EndChar

StartChar: acute
Encoding: 180 180 118
Width: 300
GlyphClass: 2
Flags: W
LayerCount: 2
Fore
SplineSet
245 662 m 1,0,-1
 351 662 l 1,1,-1
 170 500 l 1,2,-1
 144 500 l 1,3,-1
 245 662 l 1,0,-1
EndSplineSet
EndChar

StartChar: uni00B5
Encoding: 181 181 119
Width: 582
GlyphClass: 2
Flags: W
LayerCount: 2
Fore
SplineSet
120 -145 m 0,0,1
 120 -171 120 -171 102.5 -185.5 c 128,-1,2
 85 -200 85 -200 62 -200 c 0,3,4
 43 -200 43 -200 28 -188 c 128,-1,5
 13 -176 13 -176 13 -150 c 0,6,7
 13 -146 13 -146 15 -134 c 2,8,-1
 111 440 l 1,9,-1
 201 440 l 1,10,-1
 148 125 l 2,11,12
 145 110 145 110 145 96 c 0,13,14
 145 24 145 24 223 24 c 0,15,16
 286 24 286 24 354 96 c 1,17,-1
 412 440 l 1,18,-1
 502 440 l 1,19,-1
 442 83 l 2,20,21
 440 67 440 67 440 61 c 0,22,23
 440 20 440 20 467 20 c 0,24,25
 480 20 480 20 492.5 27.5 c 128,-1,26
 505 35 505 35 506 45 c 1,27,-1
 524 45 l 1,28,29
 519 17 519 17 496 3.5 c 128,-1,30
 473 -10 473 -10 422 -10 c 0,31,32
 357 -10 357 -10 353 61 c 1,33,34
 282 -10 282 -10 203 -10 c 0,35,36
 118 -10 118 -10 83 24 c 1,37,-1
 73 -33 l 2,38,39
 72 -41 72 -41 72 -55 c 0,40,41
 72 -86 72 -86 96 -106 c 128,-1,42
 120 -126 120 -126 120 -145 c 0,0,1
EndSplineSet
EndChar

StartChar: paragraph
Encoding: 182 182 120
Width: 533
GlyphClass: 2
Flags: W
LayerCount: 2
Fore
SplineSet
83 0 m 1,0,-1
 87 21 l 1,1,2
 142 21 142 21 153 41 c 1,3,-1
 191 268 l 1,4,5
 125 275 125 275 90 309 c 128,-1,6
 55 343 55 343 55 397 c 0,7,8
 55 474 55 474 117.5 529.5 c 128,-1,9
 180 585 180 585 302 585 c 2,10,-1
 542 585 l 1,11,-1
 538 564 l 1,12,13
 483 564 483 564 472 544 c 1,14,-1
 388 41 l 1,15,16
 394 21 394 21 448 21 c 1,17,-1
 444 0 l 1,18,-1
 289 0 l 1,19,-1
 381 551 l 1,20,-1
 330 551 l 1,21,-1
 238 0 l 1,22,-1
 83 0 l 1,0,-1
EndSplineSet
EndChar

StartChar: periodcentered
Encoding: 183 183 121
Width: 229
GlyphClass: 2
Flags: W
LayerCount: 2
Fore
SplineSet
60 292 m 0,0,1
 60 320 60 320 81 342 c 128,-1,2
 102 364 102 364 130 364 c 0,3,4
 151 364 151 364 166.5 349 c 128,-1,5
 182 334 182 334 182 313 c 0,6,7
 182 286 182 286 160 263 c 128,-1,8
 138 240 138 240 110 240 c 0,9,10
 90 240 90 240 75 255 c 128,-1,11
 60 270 60 270 60 292 c 0,0,1
EndSplineSet
EndChar

StartChar: cedilla
Encoding: 184 184 122
Width: 304
GlyphClass: 2
Flags: W
LayerCount: 2
Fore
SplineSet
55 -177 m 0,0,1
 97 -177 97 -177 116.5 -161 c 128,-1,2
 136 -145 136 -145 136 -121 c 0,3,4
 136 -86 136 -86 82 -86 c 1,5,-1
 126 12 l 1,6,-1
 164 12 l 1,7,-1
 135 -55 l 1,8,9
 164 -55 164 -55 194 -69.5 c 128,-1,10
 224 -84 224 -84 224 -113 c 0,11,12
 224 -149 224 -149 194.5 -174 c 128,-1,13
 165 -199 165 -199 101 -199 c 0,14,15
 67 -199 67 -199 28 -192 c 1,16,-1
 31 -175 l 1,17,18
 49 -177 49 -177 55 -177 c 0,0,1
EndSplineSet
EndChar

StartChar: uni00B9
Encoding: 185 185 123
Width: 244
GlyphClass: 2
Flags: W
LayerCount: 2
Fore
SplineSet
81 508 m 1,0,1
 87 516 87 516 104.5 540 c 128,-1,2
 122 564 122 564 134.5 580 c 128,-1,3
 147 596 147 596 162.5 615.5 c 128,-1,4
 178 635 178 635 189.5 645 c 128,-1,5
 201 655 201 655 207 655 c 2,6,-1
 225 655 l 1,7,-1
 167 313 l 1,8,9
 171 303 171 303 209 303 c 1,10,-1
 205 280 l 1,11,-1
 49 280 l 1,12,-1
 53 303 l 1,13,14
 88 303 88 303 96 313 c 1,15,-1
 133 530 l 1,16,17
 127 526 127 526 97 499 c 1,18,-1
 81 508 l 1,0,1
EndSplineSet
EndChar

StartChar: ordmasculine
Encoding: 186 186 124
Width: 371
GlyphClass: 2
Flags: W
LayerCount: 2
Fore
SplineSet
48 155 m 1,0,-1
 291 155 l 1,1,-1
 287 129 l 1,2,-1
 44 129 l 1,3,-1
 48 155 l 1,0,-1
206 429 m 0,4,5
 175 429 175 429 155 393 c 128,-1,6
 135 357 135 357 135 312 c 0,7,8
 135 240 135 240 192 240 c 0,9,10
 225 240 225 240 244.5 276 c 128,-1,11
 264 312 264 312 264 361 c 0,12,13
 264 429 264 429 206 429 c 0,4,5
182 215 m 0,14,15
 130 215 130 215 103 242 c 128,-1,16
 76 269 76 269 76 313 c 0,17,18
 76 375 76 375 114 415 c 128,-1,19
 152 455 152 455 218 455 c 0,20,21
 323 455 323 455 323 362 c 0,22,23
 323 298 323 298 286 256.5 c 128,-1,24
 249 215 249 215 182 215 c 0,14,15
EndSplineSet
EndChar

StartChar: guillemotright
Encoding: 187 187 125
Width: 439
GlyphClass: 2
Flags: W
LayerCount: 2
Fore
SplineSet
389 274 m 2,0,-1
 211 180 l 1,1,-1
 215 206 l 1,2,-1
 318 299 l 1,3,-1
 247 392 l 1,4,-1
 251 418 l 1,5,-1
 397 324 l 2,6,7
 409 316 409 316 406 299 c 0,8,9
 402 281 402 281 389 274 c 2,0,-1
229 274 m 2,10,-1
 51 180 l 1,11,-1
 55 206 l 1,12,-1
 158 299 l 1,13,-1
 87 392 l 1,14,-1
 91 418 l 1,15,-1
 237 324 l 2,16,17
 249 316 249 316 246 299 c 0,18,19
 242 281 242 281 229 274 c 2,10,-1
EndSplineSet
EndChar

StartChar: onequarter
Encoding: 188 188 126
Width: 696
GlyphClass: 2
Flags: W
LayerCount: 2
Fore
SplineSet
77 508 m 1,0,1
 83 516 83 516 100.5 540 c 128,-1,2
 118 564 118 564 130.5 580 c 128,-1,3
 143 596 143 596 158.5 615.5 c 128,-1,4
 174 635 174 635 185.5 645 c 128,-1,5
 197 655 197 655 203 655 c 2,6,-1
 221 655 l 1,7,-1
 163 313 l 1,8,9
 167 303 167 303 205 303 c 1,10,-1
 201 280 l 1,11,-1
 45 280 l 1,12,-1
 49 303 l 1,13,14
 84 303 84 303 92 313 c 1,15,-1
 129 530 l 1,16,17
 123 526 123 526 93 499 c 1,18,-1
 77 508 l 1,0,1
634 375 m 1,19,-1
 593 134 l 1,20,-1
 648 134 l 1,21,-1
 643 105 l 1,22,-1
 588 105 l 1,23,-1
 576 33 l 1,24,25
 580 23 580 23 617 23 c 1,26,-1
 613 0 l 1,27,-1
 459 0 l 1,28,-1
 463 23 l 1,29,30
 499 23 499 23 506 33 c 1,31,-1
 518 105 l 1,32,-1
 357 105 l 1,33,-1
 592 375 l 1,34,-1
 634 375 l 1,19,-1
523 134 m 1,35,-1
 548 284 l 1,36,-1
 418 134 l 1,37,-1
 523 134 l 1,35,-1
70 -10 m 1,38,-1
 563 612 l 1,39,-1
 589 594 l 1,40,-1
 96 -28 l 1,41,-1
 70 -10 l 1,38,-1
EndSplineSet
EndChar

StartChar: onehalf
Encoding: 189 189 127
Width: 722
GlyphClass: 2
Flags: W
LayerCount: 2
Fore
SplineSet
77 508 m 1,0,1
 83 516 83 516 100.5 540 c 128,-1,2
 118 564 118 564 130.5 580 c 128,-1,3
 143 596 143 596 158.5 615.5 c 128,-1,4
 174 635 174 635 185.5 645 c 128,-1,5
 197 655 197 655 203 655 c 2,6,-1
 221 655 l 1,7,-1
 163 313 l 1,8,9
 167 303 167 303 205 303 c 1,10,-1
 201 280 l 1,11,-1
 45 280 l 1,12,-1
 49 303 l 1,13,14
 84 303 84 303 92 313 c 1,15,-1
 129 530 l 1,16,17
 123 526 123 526 93 499 c 1,18,-1
 77 508 l 1,0,1
601 56 m 1,19,20
 628 66 628 66 646 99 c 1,21,-1
 668 99 l 1,22,-1
 624 0 l 1,23,-1
 365 0 l 1,24,-1
 366 5 l 2,25,26
 368 17 368 17 405.5 47.5 c 128,-1,27
 443 78 443 78 487 111.5 c 128,-1,28
 531 145 531 145 567.5 192 c 128,-1,29
 604 239 604 239 604 281 c 0,30,31
 604 330 604 330 550 330 c 0,32,33
 515 330 515 330 491 320 c 128,-1,34
 467 310 467 310 457.5 298 c 128,-1,35
 448 286 448 286 440 276 c 128,-1,36
 432 266 432 266 426 266 c 0,37,38
 415 266 415 266 418 277 c 1,39,40
 422 303 422 303 463 341.5 c 128,-1,41
 504 380 504 380 566 380 c 0,42,43
 681 380 681 380 681 298 c 0,44,45
 681 265 681 265 651.5 224.5 c 128,-1,46
 622 184 622 184 586.5 154.5 c 128,-1,47
 551 125 551 125 513 95 c 128,-1,48
 475 65 475 65 467 56 c 1,49,-1
 601 56 l 1,19,20
46 -10 m 1,50,-1
 539 612 l 1,51,-1
 565 594 l 1,52,-1
 72 -28 l 1,53,-1
 46 -10 l 1,50,-1
EndSplineSet
EndChar

StartChar: threequarters
Encoding: 190 190 128
Width: 732
GlyphClass: 2
Flags: W
LayerCount: 2
Fore
SplineSet
339 584 m 0,0,1
 339 524 339 524 276 491 c 1,2,3
 329 469 329 469 329 416 c 0,4,5
 329 354 329 354 287.5 315 c 128,-1,6
 246 276 246 276 164 276 c 0,7,8
 128 276 128 276 98.5 287.5 c 128,-1,9
 69 299 69 299 56 312 c 128,-1,10
 43 325 43 325 43 335 c 0,11,12
 43 377 43 377 78 377 c 0,13,14
 89 377 89 377 94.5 366 c 128,-1,15
 100 355 100 355 102.5 341.5 c 128,-1,16
 105 328 105 328 120.5 317 c 128,-1,17
 136 306 136 306 165 306 c 0,18,19
 217 306 217 306 239.5 334.5 c 128,-1,20
 262 363 262 363 262 404 c 0,21,22
 262 464 262 464 213 464 c 0,23,24
 205 464 205 464 195 462 c 128,-1,25
 185 460 185 460 179 460 c 0,26,27
 172 460 172 460 167 464 c 128,-1,28
 162 468 162 468 163 473 c 0,29,30
 164 482 164 482 173 482 c 1,31,32
 175 483 175 483 180 484 c 0,33,34
 201 490 201 490 212.5 494 c 128,-1,35
 224 498 224 498 239.5 507 c 128,-1,36
 255 516 255 516 262.5 530.5 c 128,-1,37
 270 545 270 545 270 564 c 0,38,39
 270 585 270 585 254 597.5 c 128,-1,40
 238 610 238 610 210 610 c 0,41,42
 181 610 181 610 161.5 601.5 c 128,-1,43
 142 593 142 593 135 583.5 c 128,-1,44
 128 574 128 574 121 565.5 c 128,-1,45
 114 557 114 557 108 557 c 0,46,47
 103 557 103 557 101 561.5 c 128,-1,48
 99 566 99 566 100 569 c 0,49,50
 104 592 104 592 139 626 c 128,-1,51
 174 660 174 660 226 660 c 0,52,53
 339 660 339 660 339 584 c 0,0,1
670 375 m 1,54,-1
 629 134 l 1,55,-1
 684 134 l 1,56,-1
 679 105 l 1,57,-1
 624 105 l 1,58,-1
 612 33 l 1,59,60
 616 23 616 23 653 23 c 1,61,-1
 649 0 l 1,62,-1
 495 0 l 1,63,-1
 499 23 l 1,64,65
 535 23 535 23 542 33 c 1,66,-1
 554 105 l 1,67,-1
 393 105 l 1,68,-1
 628 375 l 1,69,-1
 670 375 l 1,54,-1
559 134 m 1,70,-1
 584 284 l 1,71,-1
 454 134 l 1,72,-1
 559 134 l 1,70,-1
116 -10 m 1,73,-1
 609 612 l 1,74,-1
 635 594 l 1,75,-1
 142 -28 l 1,76,-1
 116 -10 l 1,73,-1
EndSplineSet
EndChar

StartChar: questiondown
Encoding: 191 191 129
Width: 395
GlyphClass: 2
Flags: W
LayerCount: 2
Fore
SplineSet
311 478 m 0,0,1
 311 450 311 450 290 428 c 128,-1,2
 269 406 269 406 241 406 c 0,3,4
 220 406 220 406 204.5 421 c 128,-1,5
 189 436 189 436 189 457 c 0,6,7
 189 484 189 484 211 507 c 128,-1,8
 233 530 233 530 261 530 c 0,9,10
 281 530 281 530 296 515 c 128,-1,11
 311 500 311 500 311 478 c 0,0,1
256 34 m 0,12,13
 256 52 256 52 268 63.5 c 128,-1,14
 280 75 280 75 296 75 c 0,15,16
 310 75 310 75 320 65.5 c 128,-1,17
 330 56 330 56 330 37 c 0,18,19
 330 -19 330 -19 279 -64.5 c 128,-1,20
 228 -110 228 -110 149 -110 c 0,21,22
 68 -110 68 -110 32.5 -73 c 128,-1,23
 -3 -36 -3 -36 -3 17 c 0,24,25
 -3 65 -3 65 29 111.5 c 128,-1,26
 61 158 61 158 100 188.5 c 128,-1,27
 139 219 139 219 174.5 255.5 c 128,-1,28
 210 292 210 292 215 320 c 0,29,30
 216 325 216 325 221 329.5 c 128,-1,31
 226 334 226 334 230 334 c 128,-1,32
 234 334 234 334 238 329.5 c 128,-1,33
 242 325 242 325 241 320 c 0,34,35
 235 286 235 286 217 254 c 128,-1,36
 199 222 199 222 177 196.5 c 128,-1,37
 155 171 155 171 134 143 c 128,-1,38
 113 115 113 115 99 77.5 c 128,-1,39
 85 40 85 40 85 -4 c 0,40,41
 85 -44 85 -44 104 -62 c 128,-1,42
 123 -80 123 -80 164 -80 c 128,-1,43
 205 -80 205 -80 234.5 -55 c 128,-1,44
 264 -30 264 -30 264 -1 c 0,45,46
 264 7 264 7 260 17 c 128,-1,47
 256 27 256 27 256 34 c 0,12,13
EndSplineSet
EndChar

StartChar: AE
Encoding: 198 198 136
Width: 760
GlyphClass: 2
Flags: W
AnchorPoint: "Anchor-5" 470 620 basechar 0
LayerCount: 2
Fore
SplineSet
-60 0 m 1,0,-1
 -56 21 l 1,1,2
 -4 21 -4 21 10 42 c 1,3,-1
 10 41 l 1,4,-1
 382 553 l 1,5,6
 372 564 372 564 327 564 c 1,7,-1
 331 585 l 1,8,-1
 755 585 l 1,9,-1
 739 488 l 1,10,-1
 718 488 l 1,11,12
 721 509 721 509 721 522 c 0,13,14
 721 545 721 545 708 551 c 1,15,-1
 501 551 l 1,16,-1
 463 321 l 1,17,-1
 603 321 l 1,18,19
 624 329 624 329 633 384 c 1,20,-1
 654 384 l 1,21,-1
 627 224 l 1,22,-1
 606 224 l 1,23,24
 610 252 610 252 610 258 c 0,25,26
 610 281 610 281 597 287 c 1,27,-1
 457 287 l 1,28,-1
 415 34 l 1,29,-1
 643 34 l 1,30,31
 669 44 669 44 698 97 c 1,32,-1
 718 97 l 1,33,-1
 678 0 l 1,34,-1
 254 0 l 1,35,-1
 258 21 l 1,36,37
 313 21 313 21 324 41 c 1,38,-1
 348 186 l 1,39,-1
 155 186 l 1,40,-1
 48 39 l 1,41,42
 54 21 54 21 108 21 c 1,43,-1
 104 0 l 1,44,-1
 28 0 l 1,45,-1
 43 32 l 1,46,-1
 20 0 l 1,47,-1
 -60 0 l 1,0,-1
179 219 m 1,48,-1
 354 219 l 1,49,-1
 406 530 l 1,50,-1
 179 219 l 1,48,-1
EndSplineSet
EndChar

StartChar: Ccedilla
Encoding: 199 199 137
Width: 565
GlyphClass: 2
Flags: W
LayerCount: 2
Fore
SplineSet
200 -177 m 1,0,-1
 200 -178 l 1,1,2
 242 -178 242 -178 261.5 -162 c 128,-1,3
 281 -146 281 -146 281 -122 c 0,4,5
 281 -87 281 -87 227 -87 c 1,6,-1
 262 -10 l 1,7,8
 158 -2 158 -2 102 64.5 c 128,-1,9
 46 131 46 131 46 228 c 0,10,11
 46 310 46 310 79 381 c 128,-1,12
 112 452 112 452 164 497.5 c 128,-1,13
 216 543 216 543 279.5 568.5 c 128,-1,14
 343 594 343 594 406 594 c 0,15,16
 436 594 436 594 471 579 c 128,-1,17
 506 564 506 564 512 564 c 0,18,19
 524 564 524 564 527 584 c 1,20,-1
 550 584 l 1,21,-1
 539 457 l 1,22,-1
 517 457 l 1,23,24
 517 502 517 502 489 531 c 128,-1,25
 461 560 461 560 401 560 c 0,26,27
 300 560 300 560 226 464 c 128,-1,28
 152 368 152 368 152 230 c 0,29,30
 152 131 152 131 198.5 77 c 128,-1,31
 245 23 245 23 315 23 c 0,32,33
 365 23 365 23 419.5 57.5 c 128,-1,34
 474 92 474 92 495 131 c 1,35,-1
 517 119 l 1,36,37
 444 -5 444 -5 300 -10 c 1,38,-1
 280 -55 l 1,39,40
 309 -55 309 -55 339 -69.5 c 128,-1,41
 369 -84 369 -84 369 -113 c 0,42,43
 369 -149 369 -149 339.5 -174 c 128,-1,44
 310 -199 310 -199 246 -199 c 0,45,46
 212 -199 212 -199 173 -192 c 1,47,-1
 176 -175 l 1,48,49
 194 -177 194 -177 200 -177 c 1,0,-1
EndSplineSet
EndChar

StartChar: Eth
Encoding: 208 208 146
Width: 611
GlyphClass: 2
Flags: W
AnchorPoint: "Anchor-5" 318 690 basechar 0
LayerCount: 2
Fore
SplineSet
-3 -1 m 1,0,-1
 0 20 l 1,1,2
 56 20 56 20 67 40 c 1,3,-1
 86 154 l 2,4,5
 109 291 109 291 197.5 369 c 128,-1,6
 286 447 286 447 461 457 c 1,7,8
 442 506 442 506 404 530.5 c 128,-1,9
 366 555 366 555 320 555 c 2,10,-1
 245 555 l 1,11,-1
 231 470 l 1,12,-1
 191 470 l 1,13,-1
 205 555 l 1,14,-1
 107 555 l 1,15,16
 85 546 85 546 76 492 c 1,17,-1
 55 492 l 1,18,-1
 71 585 l 1,19,-1
 210 585 l 1,20,-1
 222 655 l 1,21,-1
 262 655 l 1,22,-1
 250 585 l 1,23,-1
 325 585 l 2,24,25
 442 585 442 585 509 521 c 128,-1,26
 576 457 576 457 576 351 c 0,27,28
 576 197 576 197 476.5 98 c 128,-1,29
 377 -1 377 -1 239 -1 c 2,30,-1
 -3 -1 l 1,0,-1
470 427 m 1,31,32
 340 419 340 419 270 354.5 c 128,-1,33
 200 290 200 290 184 192 c 2,34,-1
 158 33 l 1,35,-1
 245 33 l 2,36,37
 281 33 281 33 320.5 55 c 128,-1,38
 360 77 360 77 395.5 117 c 128,-1,39
 431 157 431 157 454 222 c 128,-1,40
 477 287 477 287 477 363 c 0,41,42
 477 394 477 394 470 427 c 1,31,32
EndSplineSet
EndChar

StartChar: multiply
Encoding: 215 215 153
Width: 420
GlyphClass: 2
Flags: W
LayerCount: 2
Fore
SplineSet
250 318 m 1,0,-1
 357 190 l 1,1,-1
 321 159 l 1,2,-1
 214 287 l 1,3,-1
 65 159 l 1,4,-1
 39 190 l 1,5,-1
 188 318 l 1,6,-1
 82 446 l 1,7,-1
 118 477 l 1,8,-1
 224 349 l 1,9,-1
 374 477 l 1,10,-1
 400 446 l 1,11,-1
 250 318 l 1,0,-1
EndSplineSet
EndChar

StartChar: Oslash
Encoding: 216 216 154
Width: 644
GlyphClass: 2
Flags: W
LayerCount: 2
Fore
SplineSet
159 -28 m 1,0,-1
 130 -10 l 1,1,-1
 151 23 l 1,2,3
 100 54 100 54 73 109.5 c 128,-1,4
 46 165 46 165 46 234 c 0,5,6
 46 382 46 382 145.5 488.5 c 128,-1,7
 245 595 245 595 379 595 c 0,8,9
 443 595 443 595 492 569 c 1,10,-1
 519 612 l 1,11,-1
 548 594 l 1,12,-1
 521 550 l 1,13,14
 610 482 610 482 610 350 c 0,15,16
 610 203 610 203 510 96.5 c 128,-1,17
 410 -10 410 -10 277 -10 c 0,18,19
 223 -10 223 -10 181 8 c 1,20,-1
 159 -28 l 1,0,-1
482 488 m 1,21,-1
 208 51 l 1,22,23
 240 24 240 24 287 24 c 0,24,25
 354 24 354 24 406.5 76 c 128,-1,26
 459 128 459 128 484 202 c 128,-1,27
 509 276 509 276 509 353 c 0,28,29
 509 434 509 434 482 488 c 1,21,-1
461 519 m 1,30,31
 425 561 425 561 369 561 c 0,32,33
 302 561 302 561 249.5 508.5 c 128,-1,34
 197 456 197 456 171.5 381.5 c 128,-1,35
 146 307 146 307 146 229 c 0,36,37
 146 133 146 133 185 77 c 1,38,-1
 461 519 l 1,30,31
EndSplineSet
EndChar

StartChar: Thorn
Encoding: 222 222 160
Width: 526
GlyphClass: 2
Flags: W
LayerCount: 2
Fore
SplineSet
2 0 m 1,0,-1
 6 21 l 1,1,2
 61 21 61 21 72 41 c 1,3,-1
 156 544 l 1,4,5
 150 564 150 564 96 564 c 1,6,-1
 100 585 l 1,7,-1
 318 585 l 1,8,-1
 314 564 l 1,9,10
 259 564 259 564 248 544 c 1,11,-1
 234 460 l 1,12,-1
 286 460 l 2,13,14
 402 460 402 460 458 423.5 c 128,-1,15
 514 387 514 387 514 329 c 0,16,17
 514 243 514 243 442 192 c 128,-1,18
 370 141 370 141 245 141 c 2,19,-1
 181 141 l 1,20,-1
 164 41 l 1,21,22
 170 21 170 21 224 21 c 1,23,-1
 220 0 l 1,24,-1
 2 0 l 1,0,-1
228 426 m 1,25,-1
 186 175 l 1,26,-1
 250 175 l 2,27,28
 415 175 415 175 415 339 c 0,29,30
 415 382 415 382 384.5 404 c 128,-1,31
 354 426 354 426 280 426 c 2,32,-1
 228 426 l 1,25,-1
EndSplineSet
EndChar

StartChar: germandbls
Encoding: 223 223 161
Width: 501
GlyphClass: 2
Flags: W
LayerCount: 2
Fore
SplineSet
109 -44 m 2,0,1
 100 -95 100 -95 59 -117.5 c 128,-1,2
 18 -140 18 -140 -60 -140 c 1,3,-1
 -57 -117 l 1,4,5
 -29 -117 -29 -117 -8 -94.5 c 128,-1,6
 13 -72 13 -72 20 -34 c 2,7,-1
 105 474 l 2,8,9
 119 555 119 555 168.5 592.5 c 128,-1,10
 218 630 218 630 277 630 c 0,11,12
 357 630 357 630 391.5 605 c 128,-1,13
 426 580 426 580 426 532 c 0,14,15
 426 474 426 474 391.5 428.5 c 128,-1,16
 357 383 357 383 302 359 c 1,17,18
 368 347 368 347 414 302 c 128,-1,19
 460 257 460 257 460 206 c 0,20,21
 460 113 460 113 400 51.5 c 128,-1,22
 340 -10 340 -10 263 -10 c 0,23,24
 207 -10 207 -10 182 16.5 c 128,-1,25
 157 43 157 43 157 68 c 0,26,27
 157 126 157 126 202 126 c 0,28,29
 214 126 214 126 217.5 109.5 c 128,-1,30
 221 93 221 93 220 73 c 128,-1,31
 219 53 219 53 229 36.5 c 128,-1,32
 239 20 239 20 262 20 c 0,33,34
 297 20 297 20 335.5 72.5 c 128,-1,35
 374 125 374 125 374 193 c 0,36,37
 374 251 374 251 334 297.5 c 128,-1,38
 294 344 294 344 237 344 c 0,39,40
 229 344 229 344 225 347 c 128,-1,41
 221 350 221 350 222 354 c 0,42,43
 224 363 224 363 241 368 c 1,44,45
 274 380 274 380 309 426.5 c 128,-1,46
 344 473 344 473 344 517 c 0,47,48
 344 549 344 549 331 574.5 c 128,-1,49
 318 600 318 600 286 600 c 0,50,51
 259 600 259 600 233 570.5 c 128,-1,52
 207 541 207 541 198 488 c 2,53,-1
 109 -44 l 2,0,1
EndSplineSet
EndChar

StartChar: ae
Encoding: 230 230 168
Width: 763
GlyphClass: 2
Flags: W
AnchorPoint: "Anchor-5" 405 515 basechar 0
LayerCount: 2
Fore
SplineSet
406 239 m 1,0,-1
 555 259 l 1,1,2
 598 266 598 266 620.5 282 c 128,-1,3
 643 298 643 298 643 330 c 0,4,5
 643 364 643 364 619.5 392 c 128,-1,6
 596 420 596 420 543 420 c 0,7,8
 502 420 502 420 460.5 369 c 128,-1,9
 419 318 419 318 406 239 c 1,0,-1
160 335 m 0,10,11
 160 313 160 313 144.5 301.5 c 128,-1,12
 129 290 129 290 108 290 c 0,13,14
 92 290 92 290 82.5 300.5 c 128,-1,15
 73 311 73 311 73 328 c 0,16,17
 73 387 73 387 124.5 418.5 c 128,-1,18
 176 450 176 450 257 450 c 0,19,20
 357 450 357 450 393 394 c 1,21,22
 457 450 457 450 552 450 c 0,23,24
 645 450 645 450 689 408.5 c 128,-1,25
 733 367 733 367 733 316 c 0,26,27
 733 285 733 285 707.5 265.5 c 128,-1,28
 682 246 682 246 597 234 c 2,29,-1
 404 208 l 1,30,31
 404 133 404 133 438.5 80.5 c 128,-1,32
 473 28 473 28 526 28 c 0,33,34
 614 28 614 28 677 94 c 1,35,-1
 699 82 l 1,36,37
 662 35 662 35 612 12.5 c 128,-1,38
 562 -10 562 -10 485 -10 c 0,39,40
 387 -10 387 -10 339 55 c 1,41,42
 277 -10 277 -10 138 -10 c 0,43,44
 6 -10 6 -10 6 83 c 0,45,46
 6 119 6 119 25 145.5 c 128,-1,47
 44 172 44 172 81.5 188 c 128,-1,48
 119 204 119 204 152 213.5 c 128,-1,49
 185 223 185 223 237 233.5 c 128,-1,50
 289 244 289 244 313 251 c 1,51,52
 321 286 321 286 321 325 c 0,53,54
 321 371 321 371 302.5 392.5 c 128,-1,55
 284 414 284 414 241 414 c 0,56,57
 152 414 152 414 131 366 c 1,58,59
 160 366 160 366 160 335 c 0,10,11
309 230 m 1,60,61
 275 224 275 224 253 219 c 128,-1,62
 231 214 231 214 198.5 202.5 c 128,-1,63
 166 191 166 191 146.5 176.5 c 128,-1,64
 127 162 127 162 112.5 137.5 c 128,-1,65
 98 113 98 113 98 82 c 0,66,67
 98 24 98 24 161 24 c 0,68,69
 270 24 270 24 327 73 c 1,70,71
 305 114 305 114 305 175 c 0,72,73
 305 206 305 206 309 230 c 1,60,61
EndSplineSet
EndChar

StartChar: ccedilla
Encoding: 231 231 169
Width: 479
GlyphClass: 2
Flags: W
LayerCount: 2
Fore
SplineSet
137 -177 m 1,0,-1
 137 -175 l 1,1,2
 179 -175 179 -175 198.5 -159 c 128,-1,3
 218 -143 218 -143 218 -119 c 0,4,5
 218 -84 218 -84 164 -84 c 1,6,-1
 198 -8 l 1,7,8
 129 -4 129 -4 80.5 39 c 128,-1,9
 32 82 32 82 32 176 c 0,10,11
 32 295 32 295 104 373 c 128,-1,12
 176 451 176 451 296 451 c 0,13,14
 445 451 445 451 445 363 c 0,15,16
 445 333 445 333 430.5 314 c 128,-1,17
 416 295 416 295 392 295 c 0,18,19
 353 295 353 295 353 324 c 0,20,21
 353 347 353 347 367 359 c 128,-1,22
 381 371 381 371 395 371 c 1,23,24
 391 421 391 421 301 421 c 0,25,26
 231 421 231 421 180.5 359.5 c 128,-1,27
 130 298 130 298 130 203 c 0,28,29
 130 131 130 131 165.5 80 c 128,-1,30
 201 29 201 29 253 29 c 0,31,32
 341 29 341 29 404 95 c 1,33,-1
 426 83 l 1,34,35
 360 -2 360 -2 237 -9 c 1,36,-1
 217 -55 l 1,37,38
 246 -55 246 -55 276 -69.5 c 128,-1,39
 306 -84 306 -84 306 -113 c 0,40,41
 306 -149 306 -149 276.5 -174 c 128,-1,42
 247 -199 247 -199 183 -199 c 0,43,44
 149 -199 149 -199 110 -192 c 1,45,-1
 113 -175 l 1,46,47
 131 -177 131 -177 137 -177 c 1,0,-1
EndSplineSet
EndChar

StartChar: eth
Encoding: 240 240 178
Width: 531
GlyphClass: 2
Flags: W
LayerCount: 2
Fore
SplineSet
225 -10 m 0,0,1
 129 -10 129 -10 80.5 38.5 c 128,-1,2
 32 87 32 87 32 171 c 0,3,4
 32 294 32 294 98.5 372 c 128,-1,5
 165 450 165 450 295 450 c 0,6,7
 332 450 332 450 360 444 c 1,8,9
 339 490 339 490 304 532 c 1,10,-1
 212 484 l 1,11,-1
 200 513 l 1,12,-1
 282 556 l 1,13,14
 265 573 265 573 247.5 587 c 128,-1,15
 230 601 230 601 221 606 c 2,16,-1
 212 612 l 1,17,-1
 226 630 l 1,18,19
 270 613 270 613 322 577 c 1,20,-1
 418 628 l 1,21,-1
 430 599 l 1,22,-1
 350 556 l 1,23,24
 488 444 488 444 488 281 c 0,25,26
 488 153 488 153 422.5 71.5 c 128,-1,27
 357 -10 357 -10 225 -10 c 0,0,1
273 419 m 0,28,29
 206 419 206 419 167.5 342 c 128,-1,30
 129 265 129 265 129 168 c 0,31,32
 129 93 129 93 159 56.5 c 128,-1,33
 189 20 189 20 243 20 c 0,34,35
 289 20 289 20 324 59.5 c 128,-1,36
 359 99 359 99 375 157.5 c 128,-1,37
 391 216 391 216 391 282 c 0,38,39
 391 353 391 353 362 386 c 128,-1,40
 333 419 333 419 273 419 c 0,28,29
EndSplineSet
EndChar

StartChar: divide
Encoding: 247 247 185
Width: 481
GlyphClass: 2
Flags: W
LayerCount: 2
Fore
SplineSet
216 449 m 0,0,1
 216 475 216 475 236 496 c 128,-1,2
 256 517 256 517 283 517 c 0,3,4
 303 517 303 517 317.5 502.5 c 128,-1,5
 332 488 332 488 332 468 c 0,6,7
 332 443 332 443 311 421 c 128,-1,8
 290 399 290 399 264 399 c 0,9,10
 245 399 245 399 230.5 414 c 128,-1,11
 216 429 216 429 216 449 c 0,0,1
169 169 m 0,12,13
 169 195 169 195 189 216 c 128,-1,14
 209 237 209 237 236 237 c 0,15,16
 256 237 256 237 270.5 222.5 c 128,-1,17
 285 208 285 208 285 188 c 0,18,19
 285 163 285 163 264 141 c 128,-1,20
 243 119 243 119 217 119 c 0,21,22
 198 119 198 119 183.5 134 c 128,-1,23
 169 149 169 149 169 169 c 0,12,13
57 340 m 1,24,-1
 451 340 l 1,25,-1
 444 296 l 1,26,-1
 50 296 l 1,27,-1
 57 340 l 1,24,-1
EndSplineSet
EndChar

StartChar: oslash
Encoding: 248 248 186
Width: 547
GlyphClass: 2
Flags: W
AnchorPoint: "Anchor-5" 319 515 basechar 0
LayerCount: 2
Fore
SplineSet
116 -35 m 1,0,-1
 89 -15 l 1,1,-1
 113 19 l 1,2,3
 32 66 32 66 32 176 c 0,4,5
 32 296 32 296 103 373 c 128,-1,6
 174 450 174 450 304 450 c 0,7,8
 360 450 360 450 403 434 c 1,9,-1
 432 475 l 1,10,-1
 459 455 l 1,11,-1
 434 419 l 1,12,13
 506 375 506 375 506 272 c 0,14,15
 506 150 506 150 435 70 c 128,-1,16
 364 -10 364 -10 234 -10 c 0,17,18
 184 -10 184 -10 144 4 c 1,19,-1
 116 -35 l 1,0,-1
392 360 m 1,20,-1
 173 47 l 1,21,22
 203 20 203 20 252 20 c 0,23,24
 322 20 322 20 365.5 95.5 c 128,-1,25
 409 171 409 171 409 273 c 0,26,27
 409 326 409 326 392 360 c 1,20,-1
372 389 m 1,28,29
 342 419 342 419 282 419 c 0,30,31
 214 419 214 419 171.5 345 c 128,-1,32
 129 271 129 271 129 176 c 0,33,34
 129 113 129 113 151 74 c 1,35,-1
 372 389 l 1,28,29
EndSplineSet
EndChar

StartChar: thorn
Encoding: 254 254 192
Width: 523
GlyphClass: 2
Flags: W
LayerCount: 2
Fore
SplineSet
-69 -192 m 1,0,-1
 -66 -171 l 1,1,2
 -10 -171 -10 -171 1 -151 c 1,3,-1
 119 559 l 1,4,5
 59 564 59 564 57 564 c 1,6,-1
 61 587 l 1,7,8
 80 587 80 587 139 608.5 c 128,-1,9
 198 630 198 630 221 630 c 1,10,-1
 175 356 l 1,11,12
 247 450 247 450 353 450 c 0,13,14
 425 450 425 450 456 412.5 c 128,-1,15
 487 375 487 375 487 315 c 0,16,17
 487 153 487 153 382 70.5 c 128,-1,18
 277 -12 277 -12 114 -12 c 1,19,-1
 91 -151 l 1,20,21
 97 -171 97 -171 150 -171 c 1,22,-1
 147 -192 l 1,23,-1
 -69 -192 l 1,0,-1
164 285 m 1,24,-1
 119 17 l 1,25,26
 237 19 237 19 313.5 92 c 128,-1,27
 390 165 390 165 390 311 c 0,28,29
 390 360 390 360 376 388 c 128,-1,30
 362 416 362 416 338 416 c 0,31,32
 282 416 282 416 237.5 377.5 c 128,-1,33
 193 339 193 339 164 285 c 1,24,-1
EndSplineSet
EndChar

StartChar: Amacron
Encoding: 256 256 194
Width: 543
GlyphClass: 2
Flags: W
LayerCount: 2
Fore
SplineSet
211 678 m 1,0,-1
 475 678 l 1,1,-1
 468 634 l 1,2,-1
 204 634 l 1,3,-1
 211 678 l 1,0,-1
296 0 m 1,4,-1
 300 21 l 1,5,6
 346 21 346 21 360 33 c 1,7,-1
 329 186 l 1,8,-1
 137 186 l 1,9,-1
 61 39 l 1,10,11
 68 21 68 21 120 21 c 1,12,-1
 116 0 l 1,13,-1
 -48 0 l 1,14,-1
 -44 21 l 1,15,16
 12 21 12 21 22 42 c 2,17,-1
 307 585 l 1,18,-1
 355 585 l 1,19,-1
 458 42 l 2,20,21
 462 21 462 21 519 21 c 1,22,-1
 515 0 l 1,23,-1
 296 0 l 1,4,-1
277 452 m 1,24,-1
 155 219 l 1,25,-1
 323 219 l 1,26,-1
 277 452 l 1,24,-1
EndSplineSet
EndChar

StartChar: amacron
Encoding: 257 257 195
Width: 482
GlyphClass: 2
Flags: W
LayerCount: 2
Fore
SplineSet
137 573 m 1,0,-1
 401 573 l 1,1,-1
 394 529 l 1,2,-1
 130 529 l 1,3,-1
 137 573 l 1,0,-1
160 336 m 0,4,5
 160 314 160 314 145 302 c 128,-1,6
 130 290 130 290 109 290 c 0,7,8
 93 290 93 290 83 300.5 c 128,-1,9
 73 311 73 311 73 328 c 0,10,11
 73 386 73 386 124.5 418 c 128,-1,12
 176 450 176 450 257 450 c 0,13,14
 337 450 337 450 375 414.5 c 128,-1,15
 413 379 413 379 413 320 c 0,16,17
 413 308 413 308 409 282 c 2,18,-1
 380 106 l 2,19,20
 378 90 378 90 378 84 c 0,21,22
 378 55 378 55 391.5 39 c 128,-1,23
 405 23 405 23 429 23 c 1,24,-1
 425 0 l 1,25,26
 326 0 326 0 298 37 c 1,27,28
 228 -10 228 -10 138 -10 c 0,29,30
 6 -10 6 -10 6 83 c 0,31,32
 6 109 6 109 16.5 130.5 c 128,-1,33
 27 152 27 152 47 166.5 c 128,-1,34
 67 181 67 181 89.5 192 c 128,-1,35
 112 203 112 203 143 211.5 c 128,-1,36
 174 220 174 220 200 226 c 128,-1,37
 226 232 226 232 259.5 239 c 128,-1,38
 293 246 293 246 314 252 c 1,39,40
 321 301 321 301 321 325 c 0,41,42
 321 368 321 368 299 391 c 128,-1,43
 277 414 277 414 241 414 c 0,44,45
 152 414 152 414 131 366 c 1,46,47
 160 366 160 366 160 336 c 0,4,5
310 230 m 1,48,49
 297 226 297 226 265.5 218 c 128,-1,50
 234 210 234 210 216.5 204.5 c 128,-1,51
 199 199 199 199 173.5 187.5 c 128,-1,52
 148 176 148 176 134 163 c 128,-1,53
 120 150 120 150 109.5 129 c 128,-1,54
 99 108 99 108 99 81 c 0,55,56
 99 24 99 24 161 24 c 0,57,58
 230 24 230 24 288 58 c 1,59,60
 286 68 286 68 286 75 c 128,-1,61
 286 82 286 82 288 96 c 2,62,-1
 310 230 l 1,48,49
EndSplineSet
EndChar

StartChar: Abreve
Encoding: 258 258 196
Width: 543
GlyphClass: 2
Flags: W
LayerCount: 2
Fore
SplineSet
341 630 m 0,0,1
 287 630 287 630 261 662.5 c 128,-1,2
 235 695 235 695 235 736 c 0,3,4
 235 748 235 748 236 754 c 1,5,-1
 264 754 l 1,6,-1
 264 749 l 2,7,8
 264 730 264 730 286.5 716 c 128,-1,9
 309 702 309 702 353 702 c 0,10,11
 400 702 400 702 428.5 717.5 c 128,-1,12
 457 733 457 733 460 754 c 1,13,-1
 488 754 l 1,14,15
 481 710 481 710 442 670 c 128,-1,16
 403 630 403 630 341 630 c 0,0,1
296 0 m 1,17,-1
 300 21 l 1,18,19
 346 21 346 21 360 33 c 1,20,-1
 329 186 l 1,21,-1
 137 186 l 1,22,-1
 61 39 l 1,23,24
 68 21 68 21 120 21 c 1,25,-1
 116 0 l 1,26,-1
 -48 0 l 1,27,-1
 -44 21 l 1,28,29
 12 21 12 21 22 42 c 2,30,-1
 307 585 l 1,31,-1
 355 585 l 1,32,-1
 458 42 l 2,33,34
 462 21 462 21 519 21 c 1,35,-1
 515 0 l 1,36,-1
 296 0 l 1,17,-1
277 452 m 1,37,-1
 155 219 l 1,38,-1
 323 219 l 1,39,-1
 277 452 l 1,37,-1
EndSplineSet
EndChar

StartChar: abreve
Encoding: 259 259 197
Width: 482
GlyphClass: 2
Flags: W
LayerCount: 2
Fore
SplineSet
267 525 m 0,0,1
 213 525 213 525 187 557.5 c 128,-1,2
 161 590 161 590 161 631 c 0,3,4
 161 643 161 643 162 649 c 1,5,-1
 190 649 l 1,6,-1
 190 644 l 2,7,8
 190 625 190 625 212.5 611 c 128,-1,9
 235 597 235 597 279 597 c 0,10,11
 326 597 326 597 354.5 612.5 c 128,-1,12
 383 628 383 628 386 649 c 1,13,-1
 414 649 l 1,14,15
 407 605 407 605 368 565 c 128,-1,16
 329 525 329 525 267 525 c 0,0,1
160 336 m 0,17,18
 160 314 160 314 145 302 c 128,-1,19
 130 290 130 290 109 290 c 0,20,21
 93 290 93 290 83 300.5 c 128,-1,22
 73 311 73 311 73 328 c 0,23,24
 73 386 73 386 124.5 418 c 128,-1,25
 176 450 176 450 257 450 c 0,26,27
 337 450 337 450 375 414.5 c 128,-1,28
 413 379 413 379 413 320 c 0,29,30
 413 308 413 308 409 282 c 2,31,-1
 380 106 l 2,32,33
 378 90 378 90 378 84 c 0,34,35
 378 55 378 55 391.5 39 c 128,-1,36
 405 23 405 23 429 23 c 1,37,-1
 425 0 l 1,38,39
 326 0 326 0 298 37 c 1,40,41
 228 -10 228 -10 138 -10 c 0,42,43
 6 -10 6 -10 6 83 c 0,44,45
 6 109 6 109 16.5 130.5 c 128,-1,46
 27 152 27 152 47 166.5 c 128,-1,47
 67 181 67 181 89.5 192 c 128,-1,48
 112 203 112 203 143 211.5 c 128,-1,49
 174 220 174 220 200 226 c 128,-1,50
 226 232 226 232 259.5 239 c 128,-1,51
 293 246 293 246 314 252 c 1,52,53
 321 301 321 301 321 325 c 0,54,55
 321 368 321 368 299 391 c 128,-1,56
 277 414 277 414 241 414 c 0,57,58
 152 414 152 414 131 366 c 1,59,60
 160 366 160 366 160 336 c 0,17,18
310 230 m 1,61,62
 297 226 297 226 265.5 218 c 128,-1,63
 234 210 234 210 216.5 204.5 c 128,-1,64
 199 199 199 199 173.5 187.5 c 128,-1,65
 148 176 148 176 134 163 c 128,-1,66
 120 150 120 150 109.5 129 c 128,-1,67
 99 108 99 108 99 81 c 0,68,69
 99 24 99 24 161 24 c 0,70,71
 230 24 230 24 288 58 c 1,72,73
 286 68 286 68 286 75 c 128,-1,74
 286 82 286 82 288 96 c 2,75,-1
 310 230 l 1,61,62
EndSplineSet
EndChar

StartChar: Aogonek
Encoding: 260 260 198
Width: 543
GlyphClass: 2
Flags: W
LayerCount: 2
Fore
SplineSet
278 452 m 1,0,-1
 156 219 l 1,1,-1
 324 219 l 1,2,-1
 278 452 l 1,0,-1
297 0 m 1,3,-1
 300 22 l 1,4,5
 346 22 346 22 360 34 c 1,6,-1
 329 187 l 1,7,-1
 137 187 l 1,8,-1
 61 40 l 1,9,10
 68 22 68 22 120 22 c 1,11,-1
 116 1 l 1,12,-1
 -48 1 l 1,13,-1
 -44 22 l 1,14,15
 12 22 12 22 22 43 c 2,16,-1
 307 586 l 1,17,-1
 355 586 l 1,18,-1
 458 43 l 2,19,20
 462 22 462 22 519 22 c 1,21,-1
 515 1 l 1,22,-1
 463 1 l 1,23,24
 423 -44 423 -44 423 -82 c 0,25,26
 423 -166 423 -166 495 -166 c 0,27,28
 501 -166 501 -166 509.5 -162 c 128,-1,29
 518 -158 518 -158 524 -154 c 2,30,-1
 529 -150 l 1,31,-1
 537 -168 l 1,32,33
 512 -200 512 -200 453 -200 c 0,34,35
 367 -200 367 -200 367 -126 c 0,36,37
 367 -58 367 -58 437 0 c 1,38,-1
 297 0 l 1,3,-1
EndSplineSet
EndChar

StartChar: aogonek
Encoding: 261 261 199
Width: 482
GlyphClass: 2
Flags: W
LayerCount: 2
Fore
SplineSet
311 230 m 1,0,1
 298 226 298 226 266.5 218 c 128,-1,2
 235 210 235 210 217.5 204.5 c 128,-1,3
 200 199 200 199 174.5 187.5 c 128,-1,4
 149 176 149 176 135 163 c 128,-1,5
 121 150 121 150 110.5 129 c 128,-1,6
 100 108 100 108 100 81 c 0,7,8
 100 24 100 24 162 24 c 0,9,10
 231 24 231 24 289 58 c 1,11,12
 287 68 287 68 287 75 c 128,-1,13
 287 82 287 82 289 96 c 2,14,-1
 311 230 l 1,0,1
161 336 m 1,15,-1
 160 336 l 1,16,17
 160 314 160 314 145 302 c 128,-1,18
 130 290 130 290 109 290 c 0,19,20
 93 290 93 290 83 300.5 c 128,-1,21
 73 311 73 311 73 328 c 0,22,23
 73 386 73 386 124.5 418 c 128,-1,24
 176 450 176 450 257 450 c 0,25,26
 337 450 337 450 375 414.5 c 128,-1,27
 413 379 413 379 413 320 c 0,28,29
 413 308 413 308 409 282 c 2,30,-1
 380 106 l 2,31,32
 378 90 378 90 378 84 c 0,33,34
 378 55 378 55 391.5 39 c 128,-1,35
 405 23 405 23 429 23 c 1,36,-1
 425 0 l 1,37,38
 409 0 409 0 385 2 c 1,39,40
 344 -45 344 -45 344 -82 c 0,41,42
 344 -166 344 -166 416 -166 c 0,43,44
 422 -166 422 -166 430.5 -162 c 128,-1,45
 439 -158 439 -158 444 -154 c 2,46,-1
 450 -150 l 1,47,-1
 458 -168 l 1,48,49
 433 -200 433 -200 374 -200 c 0,50,51
 288 -200 288 -200 288 -126 c 0,52,53
 288 -55 288 -55 363 6 c 1,54,55
 318 13 318 13 299 37 c 1,56,57
 228 -10 228 -10 139 -10 c 0,58,59
 7 -10 7 -10 7 83 c 0,60,61
 7 109 7 109 17.5 130.5 c 128,-1,62
 28 152 28 152 48 166.5 c 128,-1,63
 68 181 68 181 90.5 192 c 128,-1,64
 113 203 113 203 144 211.5 c 128,-1,65
 175 220 175 220 201 226 c 128,-1,66
 227 232 227 232 260.5 239 c 128,-1,67
 294 246 294 246 315 252 c 1,68,69
 322 301 322 301 322 325 c 0,70,71
 322 368 322 368 300 391 c 128,-1,72
 278 414 278 414 242 414 c 0,73,74
 153 414 153 414 132 366 c 1,75,76
 161 366 161 366 161 336 c 1,15,-1
EndSplineSet
EndChar

StartChar: Cacute
Encoding: 262 262 200
Width: 564
GlyphClass: 2
Flags: W
LayerCount: 2
Fore
SplineSet
496 782 m 1,0,-1
 602 782 l 1,1,-1
 421 620 l 1,2,-1
 395 620 l 1,3,-1
 496 782 l 1,0,-1
400 561 m 0,4,5
 299 561 299 561 225 465 c 128,-1,6
 151 369 151 369 151 231 c 0,7,8
 151 132 151 132 197.5 78 c 128,-1,9
 244 24 244 24 314 24 c 0,10,11
 364 24 364 24 418.5 58.5 c 128,-1,12
 473 93 473 93 494 132 c 1,13,-1
 516 120 l 1,14,15
 440 -10 440 -10 288 -10 c 0,16,17
 171 -10 171 -10 108 58 c 128,-1,18
 45 126 45 126 45 229 c 0,19,20
 45 311 45 311 78 382 c 128,-1,21
 111 453 111 453 163 498.5 c 128,-1,22
 215 544 215 544 278.5 569.5 c 128,-1,23
 342 595 342 595 405 595 c 0,24,25
 434 595 434 595 470 580 c 128,-1,26
 506 565 506 565 511 565 c 0,27,28
 523 565 523 565 526 585 c 1,29,-1
 549 585 l 1,30,-1
 538 458 l 1,31,-1
 516 458 l 1,32,33
 516 503 516 503 488 532 c 128,-1,34
 460 561 460 561 400 561 c 0,4,5
EndSplineSet
EndChar

StartChar: cacute
Encoding: 263 263 201
Width: 478
GlyphClass: 2
Flags: W
LayerCount: 2
Fore
SplineSet
399 677 m 1,0,-1
 505 677 l 1,1,-1
 324 515 l 1,2,-1
 298 515 l 1,3,-1
 399 677 l 1,0,-1
352 323 m 0,4,5
 352 346 352 346 366 358 c 128,-1,6
 380 370 380 370 394 370 c 1,7,8
 390 420 390 420 300 420 c 0,9,10
 230 420 230 420 179.5 358.5 c 128,-1,11
 129 297 129 297 129 202 c 0,12,13
 129 130 129 130 164.5 79 c 128,-1,14
 200 28 200 28 252 28 c 0,15,16
 340 28 340 28 403 94 c 1,17,-1
 425 82 l 1,18,19
 388 35 388 35 338 12.5 c 128,-1,20
 288 -10 288 -10 211 -10 c 0,21,22
 138 -10 138 -10 84.5 33 c 128,-1,23
 31 76 31 76 31 175 c 0,24,25
 31 294 31 294 103 372 c 128,-1,26
 175 450 175 450 295 450 c 0,27,28
 444 450 444 450 444 362 c 0,29,30
 444 332 444 332 429.5 313 c 128,-1,31
 415 294 415 294 391 294 c 0,32,33
 352 294 352 294 352 323 c 0,4,5
EndSplineSet
EndChar

StartChar: Ccircumflex
Encoding: 264 264 202
Width: 564
GlyphClass: 2
Flags: W
LayerCount: 2
Fore
SplineSet
460 782 m 1,0,-1
 527 620 l 1,1,-1
 501 620 l 1,2,-1
 422 707 l 1,3,-1
 315 620 l 1,4,-1
 289 620 l 1,5,-1
 410 782 l 1,6,-1
 460 782 l 1,0,-1
400 561 m 0,7,8
 299 561 299 561 225 465 c 128,-1,9
 151 369 151 369 151 231 c 0,10,11
 151 132 151 132 197.5 78 c 128,-1,12
 244 24 244 24 314 24 c 0,13,14
 364 24 364 24 418.5 58.5 c 128,-1,15
 473 93 473 93 494 132 c 1,16,-1
 516 120 l 1,17,18
 440 -10 440 -10 288 -10 c 0,19,20
 171 -10 171 -10 108 58 c 128,-1,21
 45 126 45 126 45 229 c 0,22,23
 45 311 45 311 78 382 c 128,-1,24
 111 453 111 453 163 498.5 c 128,-1,25
 215 544 215 544 278.5 569.5 c 128,-1,26
 342 595 342 595 405 595 c 0,27,28
 434 595 434 595 470 580 c 128,-1,29
 506 565 506 565 511 565 c 0,30,31
 523 565 523 565 526 585 c 1,32,-1
 549 585 l 1,33,-1
 538 458 l 1,34,-1
 516 458 l 1,35,36
 516 503 516 503 488 532 c 128,-1,37
 460 561 460 561 400 561 c 0,7,8
EndSplineSet
EndChar

StartChar: ccircumflex
Encoding: 265 265 203
Width: 478
GlyphClass: 2
Flags: W
LayerCount: 2
Fore
SplineSet
363 677 m 1,0,-1
 430 515 l 1,1,-1
 404 515 l 1,2,-1
 325 602 l 1,3,-1
 218 515 l 1,4,-1
 192 515 l 1,5,-1
 313 677 l 1,6,-1
 363 677 l 1,0,-1
352 323 m 0,7,8
 352 346 352 346 366 358 c 128,-1,9
 380 370 380 370 394 370 c 1,10,11
 390 420 390 420 300 420 c 0,12,13
 230 420 230 420 179.5 358.5 c 128,-1,14
 129 297 129 297 129 202 c 0,15,16
 129 130 129 130 164.5 79 c 128,-1,17
 200 28 200 28 252 28 c 0,18,19
 340 28 340 28 403 94 c 1,20,-1
 425 82 l 1,21,22
 388 35 388 35 338 12.5 c 128,-1,23
 288 -10 288 -10 211 -10 c 0,24,25
 138 -10 138 -10 84.5 33 c 128,-1,26
 31 76 31 76 31 175 c 0,27,28
 31 294 31 294 103 372 c 128,-1,29
 175 450 175 450 295 450 c 0,30,31
 444 450 444 450 444 362 c 0,32,33
 444 332 444 332 429.5 313 c 128,-1,34
 415 294 415 294 391 294 c 0,35,36
 352 294 352 294 352 323 c 0,7,8
EndSplineSet
EndChar

StartChar: Cdotaccent
Encoding: 266 266 204
Width: 564
GlyphClass: 2
Flags: W
LayerCount: 2
Fore
SplineSet
365 664 m 0,0,1
 365 689 365 689 383.5 706 c 128,-1,2
 402 723 402 723 425 723 c 0,3,4
 444 723 444 723 456 710.5 c 128,-1,5
 468 698 468 698 468 680 c 0,6,7
 468 655 468 655 449.5 638 c 128,-1,8
 431 621 431 621 408 621 c 0,9,10
 389 621 389 621 377 633.5 c 128,-1,11
 365 646 365 646 365 664 c 0,0,1
400 561 m 0,12,13
 299 561 299 561 225 465 c 128,-1,14
 151 369 151 369 151 231 c 0,15,16
 151 132 151 132 197.5 78 c 128,-1,17
 244 24 244 24 314 24 c 0,18,19
 364 24 364 24 418.5 58.5 c 128,-1,20
 473 93 473 93 494 132 c 1,21,-1
 516 120 l 1,22,23
 440 -10 440 -10 288 -10 c 0,24,25
 171 -10 171 -10 108 58 c 128,-1,26
 45 126 45 126 45 229 c 0,27,28
 45 311 45 311 78 382 c 128,-1,29
 111 453 111 453 163 498.5 c 128,-1,30
 215 544 215 544 278.5 569.5 c 128,-1,31
 342 595 342 595 405 595 c 0,32,33
 434 595 434 595 470 580 c 128,-1,34
 506 565 506 565 511 565 c 0,35,36
 523 565 523 565 526 585 c 1,37,-1
 549 585 l 1,38,-1
 538 458 l 1,39,-1
 516 458 l 1,40,41
 516 503 516 503 488 532 c 128,-1,42
 460 561 460 561 400 561 c 0,12,13
EndSplineSet
EndChar

StartChar: cdotaccent
Encoding: 267 267 205
Width: 478
GlyphClass: 2
Flags: W
LayerCount: 2
Fore
SplineSet
268 559 m 0,0,1
 268 584 268 584 286.5 601 c 128,-1,2
 305 618 305 618 328 618 c 0,3,4
 347 618 347 618 359 605.5 c 128,-1,5
 371 593 371 593 371 575 c 0,6,7
 371 550 371 550 352.5 533 c 128,-1,8
 334 516 334 516 311 516 c 0,9,10
 292 516 292 516 280 528.5 c 128,-1,11
 268 541 268 541 268 559 c 0,0,1
352 323 m 0,12,13
 352 346 352 346 366 358 c 128,-1,14
 380 370 380 370 394 370 c 1,15,16
 390 420 390 420 300 420 c 0,17,18
 230 420 230 420 179.5 358.5 c 128,-1,19
 129 297 129 297 129 202 c 0,20,21
 129 130 129 130 164.5 79 c 128,-1,22
 200 28 200 28 252 28 c 0,23,24
 340 28 340 28 403 94 c 1,25,-1
 425 82 l 1,26,27
 388 35 388 35 338 12.5 c 128,-1,28
 288 -10 288 -10 211 -10 c 0,29,30
 138 -10 138 -10 84.5 33 c 128,-1,31
 31 76 31 76 31 175 c 0,32,33
 31 294 31 294 103 372 c 128,-1,34
 175 450 175 450 295 450 c 0,35,36
 444 450 444 450 444 362 c 0,37,38
 444 332 444 332 429.5 313 c 128,-1,39
 415 294 415 294 391 294 c 0,40,41
 352 294 352 294 352 323 c 0,12,13
EndSplineSet
EndChar

StartChar: Ccaron
Encoding: 268 268 206
Width: 564
GlyphClass: 2
Flags: W
LayerCount: 2
Fore
SplineSet
384 620 m 1,0,-1
 317 782 l 1,1,-1
 343 782 l 1,2,-1
 421 695 l 1,3,-1
 529 782 l 1,4,-1
 555 782 l 1,5,-1
 434 620 l 1,6,-1
 384 620 l 1,0,-1
400 561 m 0,7,8
 299 561 299 561 225 465 c 128,-1,9
 151 369 151 369 151 231 c 0,10,11
 151 132 151 132 197.5 78 c 128,-1,12
 244 24 244 24 314 24 c 0,13,14
 364 24 364 24 418.5 58.5 c 128,-1,15
 473 93 473 93 494 132 c 1,16,-1
 516 120 l 1,17,18
 440 -10 440 -10 288 -10 c 0,19,20
 171 -10 171 -10 108 58 c 128,-1,21
 45 126 45 126 45 229 c 0,22,23
 45 311 45 311 78 382 c 128,-1,24
 111 453 111 453 163 498.5 c 128,-1,25
 215 544 215 544 278.5 569.5 c 128,-1,26
 342 595 342 595 405 595 c 0,27,28
 434 595 434 595 470 580 c 128,-1,29
 506 565 506 565 511 565 c 0,30,31
 523 565 523 565 526 585 c 1,32,-1
 549 585 l 1,33,-1
 538 458 l 1,34,-1
 516 458 l 1,35,36
 516 503 516 503 488 532 c 128,-1,37
 460 561 460 561 400 561 c 0,7,8
EndSplineSet
EndChar

StartChar: ccaron
Encoding: 269 269 207
Width: 478
GlyphClass: 2
Flags: W
LayerCount: 2
Fore
SplineSet
287 515 m 1,0,-1
 220 677 l 1,1,-1
 246 677 l 1,2,-1
 324 590 l 1,3,-1
 432 677 l 1,4,-1
 458 677 l 1,5,-1
 337 515 l 1,6,-1
 287 515 l 1,0,-1
352 323 m 0,7,8
 352 346 352 346 366 358 c 128,-1,9
 380 370 380 370 394 370 c 1,10,11
 390 420 390 420 300 420 c 0,12,13
 230 420 230 420 179.5 358.5 c 128,-1,14
 129 297 129 297 129 202 c 0,15,16
 129 130 129 130 164.5 79 c 128,-1,17
 200 28 200 28 252 28 c 0,18,19
 340 28 340 28 403 94 c 1,20,-1
 425 82 l 1,21,22
 388 35 388 35 338 12.5 c 128,-1,23
 288 -10 288 -10 211 -10 c 0,24,25
 138 -10 138 -10 84.5 33 c 128,-1,26
 31 76 31 76 31 175 c 0,27,28
 31 294 31 294 103 372 c 128,-1,29
 175 450 175 450 295 450 c 0,30,31
 444 450 444 450 444 362 c 0,32,33
 444 332 444 332 429.5 313 c 128,-1,34
 415 294 415 294 391 294 c 0,35,36
 352 294 352 294 352 323 c 0,7,8
EndSplineSet
EndChar

StartChar: Dcaron
Encoding: 270 270 208
Width: 616
GlyphClass: 2
Flags: W
LayerCount: 2
Fore
SplineSet
308 620 m 1,0,-1
 241 782 l 1,1,-1
 267 782 l 1,2,-1
 345 695 l 1,3,-1
 453 782 l 1,4,-1
 479 782 l 1,5,-1
 358 620 l 1,6,-1
 308 620 l 1,0,-1
2 0 m 1,7,-1
 6 21 l 1,8,9
 61 21 61 21 72 41 c 1,10,-1
 156 544 l 1,11,12
 150 564 150 564 96 564 c 1,13,-1
 100 585 l 1,14,-1
 330 585 l 2,15,16
 447 585 447 585 514 521.5 c 128,-1,17
 581 458 581 458 581 352 c 0,18,19
 581 198 581 198 481.5 99 c 128,-1,20
 382 0 382 0 244 0 c 2,21,-1
 2 0 l 1,7,-1
250 556 m 1,22,-1
 163 34 l 1,23,-1
 250 34 l 2,24,25
 286 34 286 34 325.5 56 c 128,-1,26
 365 78 365 78 400.5 118 c 128,-1,27
 436 158 436 158 459 223 c 128,-1,28
 482 288 482 288 482 364 c 0,29,30
 482 459 482 459 436 507.5 c 128,-1,31
 390 556 390 556 325 556 c 2,32,-1
 250 556 l 1,22,-1
EndSplineSet
EndChar

StartChar: dcaron
Encoding: 271 271 209
Width: 566
GlyphClass: 2
Flags: W
LayerCount: 2
Fore
SplineSet
549 578 m 0,0,1
 549 607 549 607 568.5 618.5 c 128,-1,2
 588 630 588 630 604 630 c 0,3,4
 638 630 638 630 660 611 c 128,-1,5
 682 592 682 592 682 559 c 0,6,7
 682 527 682 527 665 500.5 c 128,-1,8
 648 474 648 474 620.5 458 c 128,-1,9
 593 442 593 442 574.5 434 c 128,-1,10
 556 426 556 426 536 420 c 1,11,-1
 541 448 l 1,12,13
 567 451 567 451 597 475.5 c 128,-1,14
 627 500 627 500 633 531 c 0,15,16
 636 550 636 550 635 553 c 128,-1,17
 634 556 634 556 627 556 c 0,18,19
 624 556 624 556 614.5 549.5 c 128,-1,20
 605 543 605 543 594 543 c 0,21,22
 549 543 549 543 549 578 c 0,0,1
394 430 m 1,23,-1
 416 559 l 1,24,25
 354 564 354 564 353 564 c 2,26,-1
 357 587 l 1,27,28
 376 587 376 587 435 608.5 c 128,-1,29
 494 630 494 630 517 630 c 1,30,-1
 430 106 l 2,31,32
 428 90 428 90 428 84 c 0,33,34
 428 55 428 55 441.5 39 c 128,-1,35
 455 23 455 23 479 23 c 1,36,-1
 475 0 l 1,37,38
 371 0 371 0 346 38 c 1,39,40
 288 -10 288 -10 200 -10 c 0,41,42
 172 -10 172 -10 144 -1.5 c 128,-1,43
 116 7 116 7 89.5 26 c 128,-1,44
 63 45 63 45 46.5 81 c 128,-1,45
 30 117 30 117 30 166 c 0,46,47
 30 300 30 300 108.5 377 c 128,-1,48
 187 454 187 454 300 454 c 0,49,50
 357 454 357 454 394 430 c 1,23,-1
338 61 m 1,51,52
 336 71 336 71 336 78 c 0,53,54
 336 84 336 84 338 96 c 2,55,-1
 389 398 l 1,56,57
 355 420 355 420 300 420 c 0,58,59
 241 420 241 420 184.5 354.5 c 128,-1,60
 128 289 128 289 128 188 c 0,61,62
 128 129 128 129 152.5 76.5 c 128,-1,63
 177 24 177 24 216 24 c 0,64,65
 289 24 289 24 338 61 c 1,51,52
EndSplineSet
EndChar

StartChar: Dcroat
Encoding: 272 272 210
Width: 616
GlyphClass: 2
Flags: W
LayerCount: 2
Fore
SplineSet
163 34 m 1,0,-1
 250 34 l 2,1,2
 286 34 286 34 325.5 56 c 128,-1,3
 365 78 365 78 400.5 118 c 128,-1,4
 436 158 436 158 459 223 c 128,-1,5
 482 288 482 288 482 364 c 0,6,7
 482 459 482 459 436 507.5 c 128,-1,8
 390 556 390 556 325 556 c 2,9,-1
 250 556 l 1,10,-1
 214 339 l 1,11,-1
 335 339 l 1,12,-1
 327 295 l 1,13,-1
 206 295 l 1,14,-1
 163 34 l 1,0,-1
156 544 m 1,15,16
 150 564 150 564 96 564 c 1,17,-1
 100 585 l 1,18,-1
 330 585 l 2,19,20
 447 585 447 585 514 521.5 c 128,-1,21
 581 458 581 458 581 352 c 0,22,23
 581 198 581 198 481.5 99 c 128,-1,24
 382 0 382 0 244 0 c 2,25,-1
 2 0 l 1,26,-1
 6 21 l 1,27,28
 61 21 61 21 72 41 c 1,29,-1
 114 295 l 1,30,-1
 63 295 l 1,31,-1
 71 339 l 1,32,-1
 122 339 l 1,33,-1
 156 544 l 1,15,16
EndSplineSet
EndChar

StartChar: dcroat
Encoding: 273 273 211
Width: 539
GlyphClass: 2
Flags: W
LayerCount: 2
Fore
SplineSet
338 61 m 1,0,1
 336 71 336 71 336 78 c 0,2,3
 336 84 336 84 338 96 c 2,4,-1
 389 398 l 1,5,6
 355 420 355 420 300 420 c 0,7,8
 241 420 241 420 184.5 354.5 c 128,-1,9
 128 289 128 289 128 188 c 0,10,11
 128 129 128 129 152.5 76.5 c 128,-1,12
 177 24 177 24 216 24 c 0,13,14
 289 24 289 24 338 61 c 1,0,1
492 480 m 1,15,-1
 430 106 l 2,16,17
 428 90 428 90 428 84 c 0,18,19
 428 55 428 55 441.5 39 c 128,-1,20
 455 23 455 23 479 23 c 1,21,-1
 475 0 l 1,22,23
 371 0 371 0 346 38 c 1,24,25
 288 -10 288 -10 200 -10 c 0,26,27
 172 -10 172 -10 144 -1.5 c 128,-1,28
 116 7 116 7 89.5 26 c 128,-1,29
 63 45 63 45 46.5 81 c 128,-1,30
 30 117 30 117 30 166 c 0,31,32
 30 300 30 300 108.5 377 c 128,-1,33
 187 454 187 454 300 454 c 0,34,35
 357 454 357 454 394 430 c 1,36,-1
 403 480 l 1,37,-1
 274 480 l 1,38,-1
 281 524 l 1,39,-1
 410 524 l 1,40,-1
 416 559 l 1,41,42
 354 564 354 564 353 564 c 2,43,-1
 357 587 l 1,44,45
 376 587 376 587 435 608.5 c 128,-1,46
 494 630 494 630 517 630 c 1,47,-1
 499 524 l 1,48,-1
 545 524 l 1,49,-1
 538 480 l 1,50,-1
 492 480 l 1,15,-1
EndSplineSet
EndChar

StartChar: Emacron
Encoding: 274 274 212
Width: 508
GlyphClass: 2
Flags: W
LayerCount: 2
Fore
SplineSet
203 678 m 1,0,-1
 467 678 l 1,1,-1
 460 634 l 1,2,-1
 196 634 l 1,3,-1
 203 678 l 1,0,-1
2 0 m 1,4,-1
 6 21 l 1,5,6
 61 21 61 21 72 41 c 1,7,-1
 156 544 l 1,8,9
 150 564 150 564 96 564 c 1,10,-1
 100 585 l 1,11,-1
 503 585 l 1,12,-1
 487 488 l 1,13,-1
 466 488 l 1,14,15
 469 509 469 509 469 522 c 0,16,17
 469 545 469 545 456 551 c 1,18,-1
 249 551 l 1,19,-1
 211 321 l 1,20,-1
 351 321 l 1,21,22
 372 329 372 329 381 384 c 1,23,-1
 402 384 l 1,24,-1
 375 224 l 1,25,-1
 354 224 l 1,26,27
 358 252 358 252 358 258 c 0,28,29
 358 281 358 281 345 287 c 1,30,-1
 205 287 l 1,31,-1
 163 34 l 1,32,-1
 391 34 l 1,33,34
 417 44 417 44 446 97 c 1,35,-1
 466 97 l 1,36,-1
 426 0 l 1,37,-1
 2 0 l 1,4,-1
EndSplineSet
EndChar

StartChar: emacron
Encoding: 275 275 213
Width: 490
GlyphClass: 2
Flags: W
LayerCount: 2
Fore
SplineSet
161 573 m 1,0,-1
 425 573 l 1,1,-1
 418 529 l 1,2,-1
 154 529 l 1,3,-1
 161 573 l 1,0,-1
460 316 m 0,4,5
 460 285 460 285 434.5 265.5 c 128,-1,6
 409 246 409 246 324 234 c 2,7,-1
 131 208 l 1,8,9
 131 133 131 133 165.5 80.5 c 128,-1,10
 200 28 200 28 253 28 c 0,11,12
 341 28 341 28 404 94 c 1,13,-1
 426 82 l 1,14,15
 389 35 389 35 339 12.5 c 128,-1,16
 289 -10 289 -10 212 -10 c 0,17,18
 139 -10 139 -10 85.5 33 c 128,-1,19
 32 76 32 76 32 175 c 0,20,21
 32 294 32 294 98 372 c 128,-1,22
 164 450 164 450 279 450 c 0,23,24
 372 450 372 450 416 408.5 c 128,-1,25
 460 367 460 367 460 316 c 0,4,5
133 239 m 1,26,-1
 282 259 l 1,27,28
 325 266 325 266 347.5 282 c 128,-1,29
 370 298 370 298 370 330 c 0,30,31
 370 364 370 364 346.5 392 c 128,-1,32
 323 420 323 420 270 420 c 0,33,34
 229 420 229 420 187.5 369 c 128,-1,35
 146 318 146 318 133 239 c 1,26,-1
EndSplineSet
EndChar

StartChar: Ebreve
Encoding: 276 276 214
Width: 508
GlyphClass: 2
Flags: W
LayerCount: 2
Fore
SplineSet
333 630 m 0,0,1
 279 630 279 630 253 662.5 c 128,-1,2
 227 695 227 695 227 736 c 0,3,4
 227 748 227 748 228 754 c 1,5,-1
 256 754 l 1,6,-1
 256 749 l 2,7,8
 256 730 256 730 278.5 716 c 128,-1,9
 301 702 301 702 345 702 c 0,10,11
 392 702 392 702 420.5 717.5 c 128,-1,12
 449 733 449 733 452 754 c 1,13,-1
 480 754 l 1,14,15
 473 710 473 710 434 670 c 128,-1,16
 395 630 395 630 333 630 c 0,0,1
2 0 m 1,17,-1
 6 21 l 1,18,19
 61 21 61 21 72 41 c 1,20,-1
 156 544 l 1,21,22
 150 564 150 564 96 564 c 1,23,-1
 100 585 l 1,24,-1
 503 585 l 1,25,-1
 487 488 l 1,26,-1
 466 488 l 1,27,28
 469 509 469 509 469 522 c 0,29,30
 469 545 469 545 456 551 c 1,31,-1
 249 551 l 1,32,-1
 211 321 l 1,33,-1
 351 321 l 1,34,35
 372 329 372 329 381 384 c 1,36,-1
 402 384 l 1,37,-1
 375 224 l 1,38,-1
 354 224 l 1,39,40
 358 252 358 252 358 258 c 0,41,42
 358 281 358 281 345 287 c 1,43,-1
 205 287 l 1,44,-1
 163 34 l 1,45,-1
 391 34 l 1,46,47
 417 44 417 44 446 97 c 1,48,-1
 466 97 l 1,49,-1
 426 0 l 1,50,-1
 2 0 l 1,17,-1
EndSplineSet
EndChar

StartChar: ebreve
Encoding: 277 277 215
Width: 490
GlyphClass: 2
Flags: W
LayerCount: 2
Fore
SplineSet
290 525 m 0,0,1
 236 525 236 525 210 557.5 c 128,-1,2
 184 590 184 590 184 631 c 0,3,4
 184 643 184 643 185 649 c 1,5,-1
 213 649 l 1,6,-1
 213 644 l 2,7,8
 213 625 213 625 235.5 611 c 128,-1,9
 258 597 258 597 302 597 c 0,10,11
 349 597 349 597 377.5 612.5 c 128,-1,12
 406 628 406 628 409 649 c 1,13,-1
 437 649 l 1,14,15
 430 605 430 605 391 565 c 128,-1,16
 352 525 352 525 290 525 c 0,0,1
460 316 m 0,17,18
 460 285 460 285 434.5 265.5 c 128,-1,19
 409 246 409 246 324 234 c 2,20,-1
 131 208 l 1,21,22
 131 133 131 133 165.5 80.5 c 128,-1,23
 200 28 200 28 253 28 c 0,24,25
 341 28 341 28 404 94 c 1,26,-1
 426 82 l 1,27,28
 389 35 389 35 339 12.5 c 128,-1,29
 289 -10 289 -10 212 -10 c 0,30,31
 139 -10 139 -10 85.5 33 c 128,-1,32
 32 76 32 76 32 175 c 0,33,34
 32 294 32 294 98 372 c 128,-1,35
 164 450 164 450 279 450 c 0,36,37
 372 450 372 450 416 408.5 c 128,-1,38
 460 367 460 367 460 316 c 0,17,18
133 239 m 1,39,-1
 282 259 l 1,40,41
 325 266 325 266 347.5 282 c 128,-1,42
 370 298 370 298 370 330 c 0,43,44
 370 364 370 364 346.5 392 c 128,-1,45
 323 420 323 420 270 420 c 0,46,47
 229 420 229 420 187.5 369 c 128,-1,48
 146 318 146 318 133 239 c 1,39,-1
EndSplineSet
EndChar

StartChar: Edotaccent
Encoding: 278 278 216
Width: 508
GlyphClass: 2
Flags: W
LayerCount: 2
Fore
SplineSet
289 664 m 0,0,1
 289 689 289 689 307.5 706 c 128,-1,2
 326 723 326 723 349 723 c 0,3,4
 368 723 368 723 380 710.5 c 128,-1,5
 392 698 392 698 392 680 c 0,6,7
 392 655 392 655 373.5 638 c 128,-1,8
 355 621 355 621 332 621 c 0,9,10
 313 621 313 621 301 633.5 c 128,-1,11
 289 646 289 646 289 664 c 0,0,1
2 0 m 1,12,-1
 6 21 l 1,13,14
 61 21 61 21 72 41 c 1,15,-1
 156 544 l 1,16,17
 150 564 150 564 96 564 c 1,18,-1
 100 585 l 1,19,-1
 503 585 l 1,20,-1
 487 488 l 1,21,-1
 466 488 l 1,22,23
 469 509 469 509 469 522 c 0,24,25
 469 545 469 545 456 551 c 1,26,-1
 249 551 l 1,27,-1
 211 321 l 1,28,-1
 351 321 l 1,29,30
 372 329 372 329 381 384 c 1,31,-1
 402 384 l 1,32,-1
 375 224 l 1,33,-1
 354 224 l 1,34,35
 358 252 358 252 358 258 c 0,36,37
 358 281 358 281 345 287 c 1,38,-1
 205 287 l 1,39,-1
 163 34 l 1,40,-1
 391 34 l 1,41,42
 417 44 417 44 446 97 c 1,43,-1
 466 97 l 1,44,-1
 426 0 l 1,45,-1
 2 0 l 1,12,-1
EndSplineSet
EndChar

StartChar: edotaccent
Encoding: 279 279 217
Width: 490
GlyphClass: 2
Flags: W
LayerCount: 2
Fore
SplineSet
246 559 m 0,0,1
 246 584 246 584 264.5 601 c 128,-1,2
 283 618 283 618 306 618 c 0,3,4
 325 618 325 618 337 605.5 c 128,-1,5
 349 593 349 593 349 575 c 0,6,7
 349 550 349 550 330.5 533 c 128,-1,8
 312 516 312 516 289 516 c 0,9,10
 270 516 270 516 258 528.5 c 128,-1,11
 246 541 246 541 246 559 c 0,0,1
460 316 m 0,12,13
 460 285 460 285 434.5 265.5 c 128,-1,14
 409 246 409 246 324 234 c 2,15,-1
 131 208 l 1,16,17
 131 133 131 133 165.5 80.5 c 128,-1,18
 200 28 200 28 253 28 c 0,19,20
 341 28 341 28 404 94 c 1,21,-1
 426 82 l 1,22,23
 389 35 389 35 339 12.5 c 128,-1,24
 289 -10 289 -10 212 -10 c 0,25,26
 139 -10 139 -10 85.5 33 c 128,-1,27
 32 76 32 76 32 175 c 0,28,29
 32 294 32 294 98 372 c 128,-1,30
 164 450 164 450 279 450 c 0,31,32
 372 450 372 450 416 408.5 c 128,-1,33
 460 367 460 367 460 316 c 0,12,13
133 239 m 1,34,-1
 282 259 l 1,35,36
 325 266 325 266 347.5 282 c 128,-1,37
 370 298 370 298 370 330 c 0,38,39
 370 364 370 364 346.5 392 c 128,-1,40
 323 420 323 420 270 420 c 0,41,42
 229 420 229 420 187.5 369 c 128,-1,43
 146 318 146 318 133 239 c 1,34,-1
EndSplineSet
EndChar

StartChar: Eogonek
Encoding: 280 280 218
Width: 507
GlyphClass: 2
Flags: W
LayerCount: 2
Fore
SplineSet
3 0 m 1,0,-1
 6 22 l 1,1,2
 61 22 61 22 72 42 c 1,3,-1
 156 545 l 1,4,5
 150 565 150 565 96 565 c 1,6,-1
 100 586 l 1,7,-1
 503 586 l 1,8,-1
 487 489 l 1,9,-1
 466 489 l 1,10,11
 469 510 469 510 469 523 c 0,12,13
 469 546 469 546 456 552 c 1,14,-1
 249 552 l 1,15,-1
 211 322 l 1,16,-1
 351 322 l 1,17,18
 372 330 372 330 381 385 c 1,19,-1
 402 385 l 1,20,-1
 375 225 l 1,21,-1
 354 225 l 1,22,23
 358 253 358 253 358 259 c 0,24,25
 358 282 358 282 345 288 c 1,26,-1
 205 288 l 1,27,-1
 163 35 l 1,28,-1
 391 35 l 1,29,30
 417 45 417 45 446 98 c 1,31,-1
 466 98 l 1,32,-1
 426 1 l 1,33,-1
 379 1 l 1,34,35
 339 -44 339 -44 339 -82 c 0,36,37
 339 -166 339 -166 411 -166 c 0,38,39
 417 -166 417 -166 425.5 -162 c 128,-1,40
 434 -158 434 -158 440 -154 c 2,41,-1
 445 -150 l 1,42,-1
 453 -168 l 1,43,44
 428 -200 428 -200 369 -200 c 0,45,46
 283 -200 283 -200 283 -126 c 0,47,48
 283 -58 283 -58 353 0 c 1,49,-1
 3 0 l 1,0,-1
EndSplineSet
EndChar

StartChar: eogonek
Encoding: 281 281 219
Width: 491
GlyphClass: 2
Flags: W
LayerCount: 2
Fore
SplineSet
134 239 m 1,0,-1
 283 259 l 1,1,2
 326 266 326 266 348.5 282 c 128,-1,3
 371 298 371 298 371 330 c 0,4,5
 371 364 371 364 347.5 392 c 128,-1,6
 324 420 324 420 271 420 c 0,7,8
 230 420 230 420 188.5 369 c 128,-1,9
 147 318 147 318 134 239 c 1,0,-1
461 316 m 1,10,-1
 462 317 l 1,11,12
 462 286 462 286 436.5 266.5 c 128,-1,13
 411 247 411 247 326 235 c 2,14,-1
 133 209 l 1,15,16
 133 134 133 134 167.5 81.5 c 128,-1,17
 202 29 202 29 255 29 c 0,18,19
 343 29 343 29 406 95 c 1,20,-1
 428 83 l 1,21,22
 370 7 370 7 266 -6 c 1,23,24
 232 -47 232 -47 232 -82 c 0,25,26
 232 -166 232 -166 304 -166 c 0,27,28
 310 -166 310 -166 318.5 -162 c 128,-1,29
 327 -158 327 -158 332 -154 c 2,30,-1
 338 -150 l 1,31,-1
 346 -168 l 1,32,33
 321 -200 321 -200 262 -200 c 0,34,35
 176 -200 176 -200 176 -126 c 0,36,37
 176 -66 176 -66 234 -10 c 1,38,-1
 213 -10 l 2,39,40
 140 -10 140 -10 86.5 33 c 128,-1,41
 33 76 33 76 33 175 c 0,42,43
 33 294 33 294 99 372 c 128,-1,44
 165 450 165 450 280 450 c 0,45,46
 373 450 373 450 417 408.5 c 128,-1,47
 461 367 461 367 461 316 c 1,10,-1
EndSplineSet
EndChar

StartChar: Ecaron
Encoding: 282 282 220
Width: 508
GlyphClass: 2
Flags: W
LayerCount: 2
Fore
SplineSet
308 620 m 1,0,-1
 241 782 l 1,1,-1
 267 782 l 1,2,-1
 345 695 l 1,3,-1
 453 782 l 1,4,-1
 479 782 l 1,5,-1
 358 620 l 1,6,-1
 308 620 l 1,0,-1
2 0 m 1,7,-1
 6 21 l 1,8,9
 61 21 61 21 72 41 c 1,10,-1
 156 544 l 1,11,12
 150 564 150 564 96 564 c 1,13,-1
 100 585 l 1,14,-1
 503 585 l 1,15,-1
 487 488 l 1,16,-1
 466 488 l 1,17,18
 469 509 469 509 469 522 c 0,19,20
 469 545 469 545 456 551 c 1,21,-1
 249 551 l 1,22,-1
 211 321 l 1,23,-1
 351 321 l 1,24,25
 372 329 372 329 381 384 c 1,26,-1
 402 384 l 1,27,-1
 375 224 l 1,28,-1
 354 224 l 1,29,30
 358 252 358 252 358 258 c 0,31,32
 358 281 358 281 345 287 c 1,33,-1
 205 287 l 1,34,-1
 163 34 l 1,35,-1
 391 34 l 1,36,37
 417 44 417 44 446 97 c 1,38,-1
 466 97 l 1,39,-1
 426 0 l 1,40,-1
 2 0 l 1,7,-1
EndSplineSet
EndChar

StartChar: ecaron
Encoding: 283 283 221
Width: 490
GlyphClass: 2
Flags: W
LayerCount: 2
Fore
SplineSet
265 515 m 1,0,-1
 198 677 l 1,1,-1
 224 677 l 1,2,-1
 302 590 l 1,3,-1
 410 677 l 1,4,-1
 436 677 l 1,5,-1
 315 515 l 1,6,-1
 265 515 l 1,0,-1
460 316 m 0,7,8
 460 285 460 285 434.5 265.5 c 128,-1,9
 409 246 409 246 324 234 c 2,10,-1
 131 208 l 1,11,12
 131 133 131 133 165.5 80.5 c 128,-1,13
 200 28 200 28 253 28 c 0,14,15
 341 28 341 28 404 94 c 1,16,-1
 426 82 l 1,17,18
 389 35 389 35 339 12.5 c 128,-1,19
 289 -10 289 -10 212 -10 c 0,20,21
 139 -10 139 -10 85.5 33 c 128,-1,22
 32 76 32 76 32 175 c 0,23,24
 32 294 32 294 98 372 c 128,-1,25
 164 450 164 450 279 450 c 0,26,27
 372 450 372 450 416 408.5 c 128,-1,28
 460 367 460 367 460 316 c 0,7,8
133 239 m 1,29,-1
 282 259 l 1,30,31
 325 266 325 266 347.5 282 c 128,-1,32
 370 298 370 298 370 330 c 0,33,34
 370 364 370 364 346.5 392 c 128,-1,35
 323 420 323 420 270 420 c 0,36,37
 229 420 229 420 187.5 369 c 128,-1,38
 146 318 146 318 133 239 c 1,29,-1
EndSplineSet
EndChar

StartChar: Gcircumflex
Encoding: 284 284 222
Width: 621
GlyphClass: 2
Flags: W
LayerCount: 2
Fore
SplineSet
459 782 m 1,0,-1
 526 620 l 1,1,-1
 500 620 l 1,2,-1
 421 707 l 1,3,-1
 314 620 l 1,4,-1
 288 620 l 1,5,-1
 409 782 l 1,6,-1
 459 782 l 1,0,-1
409 561 m 0,7,8
 308 561 308 561 227.5 457 c 128,-1,9
 147 353 147 353 147 215 c 0,10,11
 147 118 147 118 194 71 c 128,-1,12
 241 24 241 24 305 24 c 0,13,14
 360 24 360 24 414 43 c 1,15,-1
 449 248 l 1,16,17
 443 268 443 268 389 268 c 1,18,-1
 392 289 l 1,19,-1
 610 289 l 1,20,-1
 607 268 l 1,21,22
 552 268 552 268 541 248 c 1,23,-1
 512 80 l 1,24,25
 490 48 490 48 433.5 19 c 128,-1,26
 377 -10 377 -10 297 -10 c 0,27,28
 178 -10 178 -10 111 60 c 128,-1,29
 44 130 44 130 44 233 c 0,30,31
 44 314 44 314 78.5 384 c 128,-1,32
 113 454 113 454 167.5 499 c 128,-1,33
 222 544 222 544 286.5 569.5 c 128,-1,34
 351 595 351 595 414 595 c 0,35,36
 444 595 444 595 484 580 c 128,-1,37
 524 565 524 565 530 565 c 0,38,39
 542 565 542 565 545 585 c 1,40,-1
 568 585 l 1,41,-1
 557 458 l 1,42,-1
 535 458 l 1,43,44
 535 499 535 499 502 530 c 128,-1,45
 469 561 469 561 409 561 c 0,7,8
EndSplineSet
EndChar

StartChar: gcircumflex
Encoding: 285 285 223
Width: 517
GlyphClass: 2
Flags: W
LayerCount: 2
Fore
SplineSet
367 677 m 1,0,-1
 434 515 l 1,1,-1
 408 515 l 1,2,-1
 329 602 l 1,3,-1
 222 515 l 1,4,-1
 196 515 l 1,5,-1
 317 677 l 1,6,-1
 367 677 l 1,0,-1
102 -89 m 0,7,8
 102 -125 102 -125 69 -137 c 1,9,10
 92 -164 92 -164 180 -164 c 0,11,12
 229 -164 229 -164 264.5 -122 c 128,-1,13
 300 -80 300 -80 323 20 c 1,14,15
 272 -10 272 -10 200 -10 c 0,16,17
 171 -10 171 -10 143.5 -1.5 c 128,-1,18
 116 7 116 7 89.5 25 c 128,-1,19
 63 43 63 43 46.5 79 c 128,-1,20
 30 115 30 115 30 163 c 0,21,22
 30 297 30 297 108 373.5 c 128,-1,23
 186 450 186 450 299 450 c 0,24,25
 337 450 337 450 369.5 443 c 128,-1,26
 402 436 402 436 420.5 426.5 c 128,-1,27
 439 417 439 417 452 407.5 c 128,-1,28
 465 398 465 398 470 391 c 2,29,-1
 475 384 l 1,30,-1
 416 29 l 2,31,32
 399 -74 399 -74 339 -137 c 128,-1,33
 279 -200 279 -200 184 -200 c 0,34,35
 103 -200 103 -200 56.5 -173.5 c 128,-1,36
 10 -147 10 -147 10 -116 c 0,37,38
 10 -92 10 -92 26 -76 c 128,-1,39
 42 -60 42 -60 62 -60 c 0,40,41
 102 -60 102 -60 102 -89 c 0,7,8
330 53 m 1,42,-1
 388 400 l 1,43,44
 345 416 345 416 300 416 c 0,45,46
 235 416 235 416 179.5 342 c 128,-1,47
 124 268 124 268 124 158 c 0,48,49
 124 96 124 96 148.5 60 c 128,-1,50
 173 24 173 24 216 24 c 0,51,52
 282 24 282 24 330 53 c 1,42,-1
EndSplineSet
EndChar

StartChar: Gbreve
Encoding: 286 286 224
Width: 621
GlyphClass: 2
Flags: W
LayerCount: 2
Fore
SplineSet
408 630 m 0,0,1
 354 630 354 630 328 662.5 c 128,-1,2
 302 695 302 695 302 736 c 0,3,4
 302 748 302 748 303 754 c 1,5,-1
 331 754 l 1,6,-1
 331 749 l 2,7,8
 331 730 331 730 353.5 716 c 128,-1,9
 376 702 376 702 420 702 c 0,10,11
 467 702 467 702 495.5 717.5 c 128,-1,12
 524 733 524 733 527 754 c 1,13,-1
 555 754 l 1,14,15
 548 710 548 710 509 670 c 128,-1,16
 470 630 470 630 408 630 c 0,0,1
409 561 m 0,17,18
 308 561 308 561 227.5 457 c 128,-1,19
 147 353 147 353 147 215 c 0,20,21
 147 118 147 118 194 71 c 128,-1,22
 241 24 241 24 305 24 c 0,23,24
 360 24 360 24 414 43 c 1,25,-1
 449 248 l 1,26,27
 443 268 443 268 389 268 c 1,28,-1
 392 289 l 1,29,-1
 610 289 l 1,30,-1
 607 268 l 1,31,32
 552 268 552 268 541 248 c 1,33,-1
 512 80 l 1,34,35
 490 48 490 48 433.5 19 c 128,-1,36
 377 -10 377 -10 297 -10 c 0,37,38
 178 -10 178 -10 111 60 c 128,-1,39
 44 130 44 130 44 233 c 0,40,41
 44 314 44 314 78.5 384 c 128,-1,42
 113 454 113 454 167.5 499 c 128,-1,43
 222 544 222 544 286.5 569.5 c 128,-1,44
 351 595 351 595 414 595 c 0,45,46
 444 595 444 595 484 580 c 128,-1,47
 524 565 524 565 530 565 c 0,48,49
 542 565 542 565 545 585 c 1,50,-1
 568 585 l 1,51,-1
 557 458 l 1,52,-1
 535 458 l 1,53,54
 535 499 535 499 502 530 c 128,-1,55
 469 561 469 561 409 561 c 0,17,18
EndSplineSet
EndChar

StartChar: gbreve
Encoding: 287 287 225
Width: 517
GlyphClass: 2
Flags: W
LayerCount: 2
Fore
SplineSet
316 525 m 0,0,1
 262 525 262 525 236 557.5 c 128,-1,2
 210 590 210 590 210 631 c 0,3,4
 210 643 210 643 211 649 c 1,5,-1
 239 649 l 1,6,-1
 239 644 l 2,7,8
 239 625 239 625 261.5 611 c 128,-1,9
 284 597 284 597 328 597 c 0,10,11
 375 597 375 597 403.5 612.5 c 128,-1,12
 432 628 432 628 435 649 c 1,13,-1
 463 649 l 1,14,15
 456 605 456 605 417 565 c 128,-1,16
 378 525 378 525 316 525 c 0,0,1
102 -89 m 0,17,18
 102 -125 102 -125 69 -137 c 1,19,20
 92 -164 92 -164 180 -164 c 0,21,22
 229 -164 229 -164 264.5 -122 c 128,-1,23
 300 -80 300 -80 323 20 c 1,24,25
 272 -10 272 -10 200 -10 c 0,26,27
 171 -10 171 -10 143.5 -1.5 c 128,-1,28
 116 7 116 7 89.5 25 c 128,-1,29
 63 43 63 43 46.5 79 c 128,-1,30
 30 115 30 115 30 163 c 0,31,32
 30 297 30 297 108 373.5 c 128,-1,33
 186 450 186 450 299 450 c 0,34,35
 337 450 337 450 369.5 443 c 128,-1,36
 402 436 402 436 420.5 426.5 c 128,-1,37
 439 417 439 417 452 407.5 c 128,-1,38
 465 398 465 398 470 391 c 2,39,-1
 475 384 l 1,40,-1
 416 29 l 2,41,42
 399 -74 399 -74 339 -137 c 128,-1,43
 279 -200 279 -200 184 -200 c 0,44,45
 103 -200 103 -200 56.5 -173.5 c 128,-1,46
 10 -147 10 -147 10 -116 c 0,47,48
 10 -92 10 -92 26 -76 c 128,-1,49
 42 -60 42 -60 62 -60 c 0,50,51
 102 -60 102 -60 102 -89 c 0,17,18
330 53 m 1,52,-1
 388 400 l 1,53,54
 345 416 345 416 300 416 c 0,55,56
 235 416 235 416 179.5 342 c 128,-1,57
 124 268 124 268 124 158 c 0,58,59
 124 96 124 96 148.5 60 c 128,-1,60
 173 24 173 24 216 24 c 0,61,62
 282 24 282 24 330 53 c 1,52,-1
EndSplineSet
EndChar

StartChar: Gdotaccent
Encoding: 288 288 226
Width: 621
GlyphClass: 2
Flags: W
LayerCount: 2
Fore
SplineSet
364 664 m 0,0,1
 364 689 364 689 382.5 706 c 128,-1,2
 401 723 401 723 424 723 c 0,3,4
 443 723 443 723 455 710.5 c 128,-1,5
 467 698 467 698 467 680 c 0,6,7
 467 655 467 655 448.5 638 c 128,-1,8
 430 621 430 621 407 621 c 0,9,10
 388 621 388 621 376 633.5 c 128,-1,11
 364 646 364 646 364 664 c 0,0,1
409 561 m 0,12,13
 308 561 308 561 227.5 457 c 128,-1,14
 147 353 147 353 147 215 c 0,15,16
 147 118 147 118 194 71 c 128,-1,17
 241 24 241 24 305 24 c 0,18,19
 360 24 360 24 414 43 c 1,20,-1
 449 248 l 1,21,22
 443 268 443 268 389 268 c 1,23,-1
 392 289 l 1,24,-1
 610 289 l 1,25,-1
 607 268 l 1,26,27
 552 268 552 268 541 248 c 1,28,-1
 512 80 l 1,29,30
 490 48 490 48 433.5 19 c 128,-1,31
 377 -10 377 -10 297 -10 c 0,32,33
 178 -10 178 -10 111 60 c 128,-1,34
 44 130 44 130 44 233 c 0,35,36
 44 314 44 314 78.5 384 c 128,-1,37
 113 454 113 454 167.5 499 c 128,-1,38
 222 544 222 544 286.5 569.5 c 128,-1,39
 351 595 351 595 414 595 c 0,40,41
 444 595 444 595 484 580 c 128,-1,42
 524 565 524 565 530 565 c 0,43,44
 542 565 542 565 545 585 c 1,45,-1
 568 585 l 1,46,-1
 557 458 l 1,47,-1
 535 458 l 1,48,49
 535 499 535 499 502 530 c 128,-1,50
 469 561 469 561 409 561 c 0,12,13
EndSplineSet
EndChar

StartChar: gdotaccent
Encoding: 289 289 227
Width: 517
GlyphClass: 2
Flags: W
LayerCount: 2
Fore
SplineSet
272 559 m 0,0,1
 272 584 272 584 290.5 601 c 128,-1,2
 309 618 309 618 332 618 c 0,3,4
 351 618 351 618 363 605.5 c 128,-1,5
 375 593 375 593 375 575 c 0,6,7
 375 550 375 550 356.5 533 c 128,-1,8
 338 516 338 516 315 516 c 0,9,10
 296 516 296 516 284 528.5 c 128,-1,11
 272 541 272 541 272 559 c 0,0,1
102 -89 m 0,12,13
 102 -125 102 -125 69 -137 c 1,14,15
 92 -164 92 -164 180 -164 c 0,16,17
 229 -164 229 -164 264.5 -122 c 128,-1,18
 300 -80 300 -80 323 20 c 1,19,20
 272 -10 272 -10 200 -10 c 0,21,22
 171 -10 171 -10 143.5 -1.5 c 128,-1,23
 116 7 116 7 89.5 25 c 128,-1,24
 63 43 63 43 46.5 79 c 128,-1,25
 30 115 30 115 30 163 c 0,26,27
 30 297 30 297 108 373.5 c 128,-1,28
 186 450 186 450 299 450 c 0,29,30
 337 450 337 450 369.5 443 c 128,-1,31
 402 436 402 436 420.5 426.5 c 128,-1,32
 439 417 439 417 452 407.5 c 128,-1,33
 465 398 465 398 470 391 c 2,34,-1
 475 384 l 1,35,-1
 416 29 l 2,36,37
 399 -74 399 -74 339 -137 c 128,-1,38
 279 -200 279 -200 184 -200 c 0,39,40
 103 -200 103 -200 56.5 -173.5 c 128,-1,41
 10 -147 10 -147 10 -116 c 0,42,43
 10 -92 10 -92 26 -76 c 128,-1,44
 42 -60 42 -60 62 -60 c 0,45,46
 102 -60 102 -60 102 -89 c 0,12,13
330 53 m 1,47,-1
 388 400 l 1,48,49
 345 416 345 416 300 416 c 0,50,51
 235 416 235 416 179.5 342 c 128,-1,52
 124 268 124 268 124 158 c 0,53,54
 124 96 124 96 148.5 60 c 128,-1,55
 173 24 173 24 216 24 c 0,56,57
 282 24 282 24 330 53 c 1,47,-1
EndSplineSet
EndChar

StartChar: Gcommaaccent
Encoding: 290 290 228
Width: 621
GlyphClass: 2
Flags: W
LayerCount: 2
Fore
SplineSet
215 -90 m 0,0,1
 215 -61 215 -61 234.5 -49.5 c 128,-1,2
 254 -38 254 -38 270 -38 c 0,3,4
 304 -38 304 -38 326 -57 c 128,-1,5
 348 -76 348 -76 348 -109 c 0,6,7
 348 -141 348 -141 331 -167.5 c 128,-1,8
 314 -194 314 -194 286.5 -210 c 128,-1,9
 259 -226 259 -226 240.5 -234 c 128,-1,10
 222 -242 222 -242 202 -248 c 1,11,-1
 207 -220 l 1,12,13
 233 -217 233 -217 263 -192.5 c 128,-1,14
 293 -168 293 -168 299 -137 c 0,15,16
 302 -118 302 -118 301 -115 c 128,-1,17
 300 -112 300 -112 293 -112 c 0,18,19
 290 -112 290 -112 280.5 -118.5 c 128,-1,20
 271 -125 271 -125 260 -125 c 0,21,22
 215 -125 215 -125 215 -90 c 0,0,1
409 561 m 0,23,24
 308 561 308 561 227.5 457 c 128,-1,25
 147 353 147 353 147 215 c 0,26,27
 147 118 147 118 194 71 c 128,-1,28
 241 24 241 24 305 24 c 0,29,30
 360 24 360 24 414 43 c 1,31,-1
 449 248 l 1,32,33
 443 268 443 268 389 268 c 1,34,-1
 392 289 l 1,35,-1
 610 289 l 1,36,-1
 607 268 l 1,37,38
 552 268 552 268 541 248 c 1,39,-1
 512 80 l 1,40,41
 490 48 490 48 433.5 19 c 128,-1,42
 377 -10 377 -10 297 -10 c 0,43,44
 178 -10 178 -10 111 60 c 128,-1,45
 44 130 44 130 44 233 c 0,46,47
 44 314 44 314 78.5 384 c 128,-1,48
 113 454 113 454 167.5 499 c 128,-1,49
 222 544 222 544 286.5 569.5 c 128,-1,50
 351 595 351 595 414 595 c 0,51,52
 444 595 444 595 484 580 c 128,-1,53
 524 565 524 565 530 565 c 0,54,55
 542 565 542 565 545 585 c 1,56,-1
 568 585 l 1,57,-1
 557 458 l 1,58,-1
 535 458 l 1,59,60
 535 499 535 499 502 530 c 128,-1,61
 469 561 469 561 409 561 c 0,23,24
EndSplineSet
EndChar

StartChar: gcommaaccent
Encoding: 291 291 229
Width: 517
GlyphClass: 2
Flags: W
LayerCount: 2
Fore
SplineSet
369 568 m 0,0,1
 369 539 369 539 350 527.5 c 128,-1,2
 331 516 331 516 315 516 c 0,3,4
 281 516 281 516 258.5 535 c 128,-1,5
 236 554 236 554 236 587 c 0,6,7
 236 619 236 619 253 645.5 c 128,-1,8
 270 672 270 672 297.5 688 c 128,-1,9
 325 704 325 704 343.5 712 c 128,-1,10
 362 720 362 720 382 726 c 1,11,-1
 377 698 l 1,12,13
 351 695 351 695 321 670.5 c 128,-1,14
 291 646 291 646 285 615 c 0,15,16
 282 596 282 596 283 593 c 128,-1,17
 284 590 284 590 291 590 c 0,18,19
 294 590 294 590 303.5 596.5 c 128,-1,20
 313 603 313 603 324 603 c 0,21,22
 369 603 369 603 369 568 c 0,0,1
102 -89 m 0,23,24
 102 -125 102 -125 69 -137 c 1,25,26
 92 -164 92 -164 180 -164 c 0,27,28
 229 -164 229 -164 264.5 -122 c 128,-1,29
 300 -80 300 -80 323 20 c 1,30,31
 272 -10 272 -10 200 -10 c 0,32,33
 171 -10 171 -10 143.5 -1.5 c 128,-1,34
 116 7 116 7 89.5 25 c 128,-1,35
 63 43 63 43 46.5 79 c 128,-1,36
 30 115 30 115 30 163 c 0,37,38
 30 297 30 297 108 373.5 c 128,-1,39
 186 450 186 450 299 450 c 0,40,41
 337 450 337 450 369.5 443 c 128,-1,42
 402 436 402 436 420.5 426.5 c 128,-1,43
 439 417 439 417 452 407.5 c 128,-1,44
 465 398 465 398 470 391 c 2,45,-1
 475 384 l 1,46,-1
 416 29 l 2,47,48
 399 -74 399 -74 339 -137 c 128,-1,49
 279 -200 279 -200 184 -200 c 0,50,51
 103 -200 103 -200 56.5 -173.5 c 128,-1,52
 10 -147 10 -147 10 -116 c 0,53,54
 10 -92 10 -92 26 -76 c 128,-1,55
 42 -60 42 -60 62 -60 c 0,56,57
 102 -60 102 -60 102 -89 c 0,23,24
330 53 m 1,58,-1
 388 400 l 1,59,60
 345 416 345 416 300 416 c 0,61,62
 235 416 235 416 179.5 342 c 128,-1,63
 124 268 124 268 124 158 c 0,64,65
 124 96 124 96 148.5 60 c 128,-1,66
 173 24 173 24 216 24 c 0,67,68
 282 24 282 24 330 53 c 1,58,-1
EndSplineSet
EndChar

StartChar: Hcircumflex
Encoding: 292 292 230
Width: 656
GlyphClass: 2
Flags: W
LayerCount: 2
Fore
SplineSet
442 782 m 1,0,-1
 509 620 l 1,1,-1
 483 620 l 1,2,-1
 404 707 l 1,3,-1
 297 620 l 1,4,-1
 271 620 l 1,5,-1
 392 782 l 1,6,-1
 442 782 l 1,0,-1
2 0 m 1,7,-1
 6 21 l 1,8,9
 61 21 61 21 72 41 c 1,10,-1
 156 544 l 1,11,12
 150 564 150 564 96 564 c 1,13,-1
 100 585 l 1,14,-1
 318 585 l 1,15,-1
 314 564 l 1,16,17
 259 564 259 564 248 544 c 1,18,-1
 211 321 l 1,19,-1
 467 321 l 1,20,-1
 504 544 l 1,21,22
 498 564 498 564 444 564 c 1,23,-1
 448 585 l 1,24,-1
 666 585 l 1,25,-1
 662 564 l 1,26,27
 607 564 607 564 596 544 c 1,28,-1
 512 41 l 1,29,30
 518 21 518 21 572 21 c 1,31,-1
 568 0 l 1,32,-1
 350 0 l 1,33,-1
 354 21 l 1,34,35
 409 21 409 21 420 41 c 1,36,-1
 461 287 l 1,37,-1
 205 287 l 1,38,-1
 164 41 l 1,39,40
 170 21 170 21 224 21 c 1,41,-1
 220 0 l 1,42,-1
 2 0 l 1,7,-1
EndSplineSet
EndChar

StartChar: hcircumflex
Encoding: 293 293 231
Width: 533
GlyphClass: 2
Flags: W
LayerCount: 2
Fore
SplineSet
235 817 m 1,0,-1
 302 655 l 1,1,-1
 276 655 l 1,2,-1
 197 742 l 1,3,-1
 90 655 l 1,4,-1
 64 655 l 1,5,-1
 185 817 l 1,6,-1
 235 817 l 1,0,-1
429 106 m 2,7,8
 427 90 427 90 427 84 c 0,9,10
 427 55 427 55 440.5 39 c 128,-1,11
 454 23 454 23 478 23 c 1,12,-1
 474 0 l 1,13,14
 404 0 404 0 369.5 18 c 128,-1,15
 335 36 335 36 335 76 c 0,16,17
 335 82 335 82 337 96 c 2,18,-1
 374 319 l 2,19,20
 377 334 377 334 377 347 c 0,21,22
 377 416 377 416 299 416 c 0,23,24
 231 416 231 416 166 298 c 1,25,-1
 116 0 l 1,26,-1
 26 0 l 1,27,-1
 120 559 l 1,28,29
 58 564 58 564 57 564 c 2,30,-1
 61 587 l 1,31,32
 80 587 80 587 139 608.5 c 128,-1,33
 198 630 198 630 221 630 c 1,34,-1
 178 370 l 1,35,36
 238 450 238 450 310 450 c 0,37,38
 393 450 393 450 430 427 c 128,-1,39
 467 404 467 404 467 350 c 0,40,41
 467 340 467 340 463 312 c 2,42,-1
 429 106 l 2,7,8
EndSplineSet
EndChar

StartChar: Hbar
Encoding: 294 294 232
Width: 656
GlyphClass: 2
Flags: W
LayerCount: 2
Fore
SplineSet
85 420 m 1,0,-1
 93 464 l 1,1,-1
 144 464 l 1,2,-1
 157 544 l 1,3,4
 151 564 151 564 97 564 c 1,5,-1
 101 585 l 1,6,-1
 319 585 l 1,7,-1
 315 564 l 1,8,9
 260 564 260 564 249 544 c 1,10,-1
 236 464 l 1,11,-1
 492 464 l 1,12,-1
 505 544 l 1,13,14
 499 564 499 564 445 564 c 1,15,-1
 449 585 l 1,16,-1
 667 585 l 1,17,-1
 663 564 l 1,18,19
 608 564 608 564 597 544 c 1,20,-1
 584 464 l 1,21,-1
 638 464 l 1,22,-1
 630 420 l 1,23,-1
 576 420 l 1,24,-1
 513 41 l 1,25,26
 519 21 519 21 573 21 c 1,27,-1
 569 0 l 1,28,-1
 351 0 l 1,29,-1
 355 21 l 1,30,31
 410 21 410 21 421 41 c 1,32,-1
 462 287 l 1,33,-1
 206 287 l 1,34,-1
 165 41 l 1,35,36
 171 21 171 21 225 21 c 1,37,-1
 221 0 l 1,38,-1
 3 0 l 1,39,-1
 7 21 l 1,40,41
 62 21 62 21 73 41 c 1,42,-1
 136 420 l 1,43,-1
 85 420 l 1,0,-1
484 420 m 1,44,-1
 228 420 l 1,45,-1
 212 321 l 1,46,-1
 468 321 l 1,47,-1
 484 420 l 1,44,-1
EndSplineSet
EndChar

StartChar: hbar
Encoding: 295 295 233
Width: 533
GlyphClass: 2
Flags: W
LayerCount: 2
Fore
SplineSet
53 484 m 1,0,-1
 61 528 l 1,1,-1
 115 528 l 1,2,-1
 120 559 l 1,3,4
 58 564 58 564 57 564 c 2,5,-1
 61 587 l 1,6,7
 80 587 80 587 139 608.5 c 128,-1,8
 198 630 198 630 221 630 c 1,9,-1
 204 528 l 1,10,-1
 352 528 l 1,11,-1
 344 484 l 1,12,-1
 197 484 l 1,13,-1
 178 370 l 1,14,15
 238 450 238 450 310 450 c 0,16,17
 393 450 393 450 430 427 c 128,-1,18
 467 404 467 404 467 350 c 0,19,20
 467 340 467 340 463 312 c 2,21,-1
 429 106 l 2,22,23
 427 90 427 90 427 84 c 0,24,25
 427 55 427 55 440.5 39 c 128,-1,26
 454 23 454 23 478 23 c 1,27,-1
 474 0 l 1,28,29
 404 0 404 0 369.5 18 c 128,-1,30
 335 36 335 36 335 76 c 0,31,32
 335 82 335 82 337 96 c 2,33,-1
 374 319 l 2,34,35
 377 334 377 334 377 347 c 0,36,37
 377 416 377 416 299 416 c 0,38,39
 231 416 231 416 166 298 c 1,40,-1
 116 0 l 1,41,-1
 26 0 l 1,42,-1
 107 484 l 1,43,-1
 53 484 l 1,0,-1
EndSplineSet
EndChar

StartChar: Itilde
Encoding: 296 296 234
Width: 308
GlyphClass: 2
Flags: W
LayerCount: 2
Fore
SplineSet
288 620 m 0,0,1
 266 620 266 620 211.5 649.5 c 128,-1,2
 157 679 157 679 143 679 c 0,3,4
 115 679 115 679 101.5 664.5 c 128,-1,5
 88 650 88 650 83 620 c 1,6,-1
 64 620 l 1,7,8
 82 732 82 732 158 732 c 0,9,10
 180 732 180 732 235.5 702.5 c 128,-1,11
 291 673 291 673 305 673 c 0,12,13
 333 673 333 673 346 687.5 c 128,-1,14
 359 702 359 702 364 732 c 1,15,-1
 383 732 l 1,16,17
 365 620 365 620 288 620 c 0,0,1
2 0 m 1,18,-1
 6 21 l 1,19,20
 61 21 61 21 72 41 c 1,21,-1
 156 544 l 1,22,23
 150 564 150 564 96 564 c 1,24,-1
 100 585 l 1,25,-1
 318 585 l 1,26,-1
 314 564 l 1,27,28
 259 564 259 564 248 544 c 1,29,-1
 164 41 l 1,30,31
 170 21 170 21 224 21 c 1,32,-1
 220 0 l 1,33,-1
 2 0 l 1,18,-1
EndSplineSet
EndChar

StartChar: itilde
Encoding: 297 297 235
Width: 243
GlyphClass: 2
Flags: W
LayerCount: 2
Fore
SplineSet
248 515 m 0,0,1
 226 515 226 515 171.5 544.5 c 128,-1,2
 117 574 117 574 103 574 c 0,3,4
 75 574 75 574 61.5 559.5 c 128,-1,5
 48 545 48 545 43 515 c 1,6,-1
 24 515 l 1,7,8
 42 627 42 627 118 627 c 0,9,10
 140 627 140 627 195.5 597.5 c 128,-1,11
 251 568 251 568 265 568 c 0,12,13
 293 568 293 568 306 582.5 c 128,-1,14
 319 597 319 597 324 627 c 1,15,-1
 343 627 l 1,16,17
 325 515 325 515 248 515 c 0,0,1
106 379 m 1,18,19
 97 380 97 380 83 381 c 128,-1,20
 69 382 69 382 60 383 c 128,-1,21
 51 384 51 384 44 384 c 1,22,-1
 48 407 l 1,23,24
 67 407 67 407 126 428.5 c 128,-1,25
 185 450 185 450 208 450 c 1,26,-1
 133 0 l 1,27,-1
 43 0 l 1,28,-1
 106 379 l 1,18,19
EndSplineSet
EndChar

StartChar: Imacron
Encoding: 298 298 236
Width: 308
GlyphClass: 2
Flags: W
LayerCount: 2
Fore
SplineSet
84 678 m 1,0,-1
 348 678 l 1,1,-1
 341 634 l 1,2,-1
 77 634 l 1,3,-1
 84 678 l 1,0,-1
2 0 m 1,4,-1
 6 21 l 1,5,6
 61 21 61 21 72 41 c 1,7,-1
 156 544 l 1,8,9
 150 564 150 564 96 564 c 1,10,-1
 100 585 l 1,11,-1
 318 585 l 1,12,-1
 314 564 l 1,13,14
 259 564 259 564 248 544 c 1,15,-1
 164 41 l 1,16,17
 170 21 170 21 224 21 c 1,18,-1
 220 0 l 1,19,-1
 2 0 l 1,4,-1
EndSplineSet
EndChar

StartChar: imacron
Encoding: 299 299 237
Width: 243
GlyphClass: 2
Flags: W
LayerCount: 2
Fore
SplineSet
44 573 m 1,0,-1
 308 573 l 1,1,-1
 301 529 l 1,2,-1
 37 529 l 1,3,-1
 44 573 l 1,0,-1
106 379 m 1,4,5
 97 380 97 380 83 381 c 128,-1,6
 69 382 69 382 60 383 c 128,-1,7
 51 384 51 384 44 384 c 1,8,-1
 48 407 l 1,9,10
 67 407 67 407 126 428.5 c 128,-1,11
 185 450 185 450 208 450 c 1,12,-1
 133 0 l 1,13,-1
 43 0 l 1,14,-1
 106 379 l 1,4,5
EndSplineSet
EndChar

StartChar: Ibreve
Encoding: 300 300 238
Width: 308
GlyphClass: 2
Flags: W
LayerCount: 2
Fore
SplineSet
214 630 m 0,0,1
 160 630 160 630 134 662.5 c 128,-1,2
 108 695 108 695 108 736 c 0,3,4
 108 748 108 748 109 754 c 1,5,-1
 137 754 l 1,6,-1
 137 749 l 2,7,8
 137 730 137 730 159.5 716 c 128,-1,9
 182 702 182 702 226 702 c 0,10,11
 273 702 273 702 301.5 717.5 c 128,-1,12
 330 733 330 733 333 754 c 1,13,-1
 361 754 l 1,14,15
 354 710 354 710 315 670 c 128,-1,16
 276 630 276 630 214 630 c 0,0,1
2 0 m 1,17,-1
 6 21 l 1,18,19
 61 21 61 21 72 41 c 1,20,-1
 156 544 l 1,21,22
 150 564 150 564 96 564 c 1,23,-1
 100 585 l 1,24,-1
 318 585 l 1,25,-1
 314 564 l 1,26,27
 259 564 259 564 248 544 c 1,28,-1
 164 41 l 1,29,30
 170 21 170 21 224 21 c 1,31,-1
 220 0 l 1,32,-1
 2 0 l 1,17,-1
EndSplineSet
EndChar

StartChar: ibreve
Encoding: 301 301 239
Width: 243
GlyphClass: 2
Flags: W
LayerCount: 2
Fore
SplineSet
174 525 m 0,0,1
 120 525 120 525 94 557.5 c 128,-1,2
 68 590 68 590 68 631 c 0,3,4
 68 643 68 643 69 649 c 1,5,-1
 97 649 l 1,6,-1
 97 644 l 2,7,8
 97 625 97 625 119.5 611 c 128,-1,9
 142 597 142 597 186 597 c 0,10,11
 233 597 233 597 261.5 612.5 c 128,-1,12
 290 628 290 628 293 649 c 1,13,-1
 321 649 l 1,14,15
 314 605 314 605 275 565 c 128,-1,16
 236 525 236 525 174 525 c 0,0,1
106 379 m 1,17,18
 97 380 97 380 83 381 c 128,-1,19
 69 382 69 382 60 383 c 128,-1,20
 51 384 51 384 44 384 c 1,21,-1
 48 407 l 1,22,23
 67 407 67 407 126 428.5 c 128,-1,24
 185 450 185 450 208 450 c 1,25,-1
 133 0 l 1,26,-1
 43 0 l 1,27,-1
 106 379 l 1,17,18
EndSplineSet
EndChar

StartChar: Iogonek
Encoding: 302 302 240
Width: 306
GlyphClass: 2
Flags: W
LayerCount: 2
Fore
SplineSet
3 0 m 1,0,-1
 6 22 l 1,1,2
 61 22 61 22 72 42 c 1,3,-1
 156 545 l 1,4,5
 150 565 150 565 96 565 c 1,6,-1
 100 586 l 1,7,-1
 318 586 l 1,8,-1
 314 565 l 1,9,10
 259 565 259 565 248 545 c 1,11,-1
 164 42 l 1,12,13
 170 22 170 22 224 22 c 1,14,-1
 220 1 l 1,15,-1
 174 1 l 1,16,17
 134 -44 134 -44 134 -82 c 0,18,19
 134 -166 134 -166 206 -166 c 0,20,21
 212 -166 212 -166 220.5 -162 c 128,-1,22
 229 -158 229 -158 234 -154 c 2,23,-1
 240 -150 l 1,24,-1
 248 -168 l 1,25,26
 223 -200 223 -200 164 -200 c 0,27,28
 78 -200 78 -200 78 -126 c 0,29,30
 78 -58 78 -58 148 0 c 1,31,-1
 3 0 l 1,0,-1
EndSplineSet
EndChar

StartChar: iogonek
Encoding: 303 303 241
Width: 240
GlyphClass: 2
Flags: W
LayerCount: 2
Fore
SplineSet
105 379 m 1,0,-1
 104 380 l 1,1,2
 95 381 95 381 81 382 c 128,-1,3
 67 383 67 383 58 384 c 128,-1,4
 49 385 49 385 42 385 c 1,5,-1
 46 408 l 1,6,7
 65 408 65 408 124 429.5 c 128,-1,8
 183 451 183 451 206 451 c 1,9,-1
 131 1 l 1,10,-1
 122 1 l 1,11,12
 82 -44 82 -44 82 -82 c 0,13,14
 82 -166 82 -166 154 -166 c 0,15,16
 160 -166 160 -166 168.5 -162 c 128,-1,17
 177 -158 177 -158 182 -154 c 2,18,-1
 188 -150 l 1,19,-1
 196 -168 l 1,20,21
 171 -200 171 -200 112 -200 c 0,22,23
 26 -200 26 -200 26 -126 c 0,24,25
 26 -58 26 -58 96 0 c 1,26,-1
 42 0 l 1,27,-1
 105 379 l 1,0,-1
232 582 m 0,28,29
 232 555 232 555 213.5 535 c 128,-1,30
 195 515 195 515 169 515 c 0,31,32
 149 515 149 515 136 528.5 c 128,-1,33
 123 542 123 542 123 563 c 0,34,35
 123 590 123 590 141 610.5 c 128,-1,36
 159 631 159 631 185 631 c 0,37,38
 205 631 205 631 218.5 617 c 128,-1,39
 232 603 232 603 232 582 c 0,28,29
EndSplineSet
EndChar

StartChar: Idotaccent
Encoding: 304 304 242
Width: 308
GlyphClass: 2
Flags: W
LayerCount: 2
Fore
SplineSet
170 664 m 0,0,1
 170 689 170 689 188.5 706 c 128,-1,2
 207 723 207 723 230 723 c 0,3,4
 249 723 249 723 261 710.5 c 128,-1,5
 273 698 273 698 273 680 c 0,6,7
 273 655 273 655 254.5 638 c 128,-1,8
 236 621 236 621 213 621 c 0,9,10
 194 621 194 621 182 633.5 c 128,-1,11
 170 646 170 646 170 664 c 0,0,1
2 0 m 1,12,-1
 6 21 l 1,13,14
 61 21 61 21 72 41 c 1,15,-1
 156 544 l 1,16,17
 150 564 150 564 96 564 c 1,18,-1
 100 585 l 1,19,-1
 318 585 l 1,20,-1
 314 564 l 1,21,22
 259 564 259 564 248 544 c 1,23,-1
 164 41 l 1,24,25
 170 21 170 21 224 21 c 1,26,-1
 220 0 l 1,27,-1
 2 0 l 1,12,-1
EndSplineSet
EndChar

StartChar: dotlessi
Encoding: 305 305 243
Width: 242
GlyphClass: 2
Flags: W
AnchorPoint: "Anchor-5" 172 515 basechar 0
AnchorPoint: "Anchor-3" 132 260 basechar 0
AnchorPoint: "Anchor-2" 82 0 basechar 0
AnchorPoint: "Anchor-1" 82 0 basechar 0
AnchorPoint: "Anchor-0" 110 0 basechar 0
LayerCount: 2
Fore
SplineSet
105 379 m 1,0,1
 96 380 96 380 82 381 c 128,-1,2
 68 382 68 382 59 383 c 128,-1,3
 50 384 50 384 43 384 c 1,4,-1
 47 407 l 1,5,6
 66 407 66 407 125 428.5 c 128,-1,7
 184 450 184 450 207 450 c 1,8,-1
 132 0 l 1,9,-1
 42 0 l 1,10,-1
 105 379 l 1,0,1
EndSplineSet
EndChar

StartChar: IJ
Encoding: 306 306 244
Width: 716
GlyphClass: 2
Flags: W
LayerCount: 2
Fore
SplineSet
2 0 m 1,0,-1
 6 21 l 1,1,2
 61 21 61 21 72 41 c 1,3,-1
 156 544 l 1,4,5
 150 564 150 564 96 564 c 1,6,-1
 100 585 l 1,7,-1
 318 585 l 1,8,-1
 314 564 l 1,9,10
 259 564 259 564 248 544 c 1,11,-1
 164 41 l 1,12,13
 170 21 170 21 224 21 c 1,14,-1
 220 0 l 1,15,-1
 2 0 l 1,0,-1
370 101 m 0,16,17
 370 64 370 64 338 53 c 1,18,19
 361 26 361 26 410 26 c 0,20,21
 439 26 439 26 458.5 37.5 c 128,-1,22
 478 49 478 49 490.5 75.5 c 128,-1,23
 503 102 503 102 510 130 c 128,-1,24
 517 158 517 158 525 208 c 2,25,-1
 581 544 l 1,26,27
 575 564 575 564 521 564 c 1,28,-1
 525 585 l 1,29,-1
 743 585 l 1,30,-1
 739 564 l 1,31,32
 684 564 684 564 673 544 c 1,33,-1
 611 172 l 2,34,35
 599 96 599 96 551.5 43 c 128,-1,36
 504 -10 504 -10 414 -10 c 0,37,38
 348 -10 348 -10 313.5 15 c 128,-1,39
 279 40 279 40 279 72 c 0,40,41
 279 97 279 97 294.5 113.5 c 128,-1,42
 310 130 310 130 331 130 c 0,43,44
 370 130 370 130 370 101 c 0,16,17
EndSplineSet
EndChar

StartChar: ij
Encoding: 307 307 245
Width: 526
GlyphClass: 2
Flags: W
LayerCount: 2
Fore
SplineSet
234 581 m 0,0,1
 234 554 234 554 215.5 534 c 128,-1,2
 197 514 197 514 171 514 c 0,3,4
 151 514 151 514 138 527.5 c 128,-1,5
 125 541 125 541 125 562 c 0,6,7
 125 589 125 589 143 609.5 c 128,-1,8
 161 630 161 630 187 630 c 0,9,10
 207 630 207 630 220.5 616 c 128,-1,11
 234 602 234 602 234 581 c 0,0,1
106 379 m 1,12,13
 97 380 97 380 83 381 c 128,-1,14
 69 382 69 382 60 383 c 128,-1,15
 51 384 51 384 44 384 c 1,16,-1
 48 407 l 1,17,18
 67 407 67 407 126 428.5 c 128,-1,19
 185 450 185 450 208 450 c 1,20,-1
 133 0 l 1,21,-1
 43 0 l 1,22,-1
 106 379 l 1,12,13
517 582 m 0,23,24
 517 555 517 555 498.5 535 c 128,-1,25
 480 515 480 515 454 515 c 0,26,27
 434 515 434 515 421 528.5 c 128,-1,28
 408 542 408 542 408 563 c 0,29,30
 408 590 408 590 426.5 610.5 c 128,-1,31
 445 631 445 631 471 631 c 0,32,33
 491 631 491 631 504 617.5 c 128,-1,34
 517 604 517 604 517 582 c 0,23,24
390 380 m 1,35,36
 328 385 328 385 327 385 c 2,37,-1
 331 408 l 1,38,39
 350 408 350 408 409 429.5 c 128,-1,40
 468 451 468 451 491 451 c 1,41,-1
 409 -43 l 2,42,43
 395 -125 395 -125 351.5 -162 c 128,-1,44
 308 -199 308 -199 251 -199 c 0,45,46
 133 -199 133 -199 133 -129 c 0,47,48
 133 -103 133 -103 148 -87.5 c 128,-1,49
 163 -72 163 -72 184 -72 c 0,50,51
 198 -72 198 -72 207.5 -80.5 c 128,-1,52
 217 -89 217 -89 217 -104 c 0,53,54
 217 -122 217 -122 202 -135 c 1,55,-1
 202 -141 l 2,56,57
 202 -169 202 -169 246 -169 c 0,58,59
 266 -169 266 -169 286.5 -139.5 c 128,-1,60
 307 -110 307 -110 316 -57 c 2,61,-1
 390 380 l 1,35,36
EndSplineSet
EndChar

StartChar: Jcircumflex
Encoding: 308 308 246
Width: 416
GlyphClass: 2
Flags: W
LayerCount: 2
Fore
SplineSet
393 782 m 1,0,-1
 460 620 l 1,1,-1
 434 620 l 1,2,-1
 355 707 l 1,3,-1
 248 620 l 1,4,-1
 222 620 l 1,5,-1
 343 782 l 1,6,-1
 393 782 l 1,0,-1
70 101 m 0,7,8
 70 64 70 64 38 53 c 1,9,10
 61 26 61 26 110 26 c 0,11,12
 139 26 139 26 158.5 37.5 c 128,-1,13
 178 49 178 49 190.5 75.5 c 128,-1,14
 203 102 203 102 210 130 c 128,-1,15
 217 158 217 158 225 208 c 2,16,-1
 281 544 l 1,17,18
 275 564 275 564 221 564 c 1,19,-1
 225 585 l 1,20,-1
 443 585 l 1,21,-1
 439 564 l 1,22,23
 384 564 384 564 373 544 c 1,24,-1
 311 172 l 2,25,26
 299 96 299 96 251.5 43 c 128,-1,27
 204 -10 204 -10 114 -10 c 0,28,29
 48 -10 48 -10 13.5 15 c 128,-1,30
 -21 40 -21 40 -21 72 c 0,31,32
 -21 97 -21 97 -5.5 113.5 c 128,-1,33
 10 130 10 130 31 130 c 0,34,35
 70 130 70 130 70 101 c 0,7,8
EndSplineSet
EndChar

StartChar: jcircumflex
Encoding: 309 309 247
Width: 241
GlyphClass: 2
Flags: W
LayerCount: 2
Fore
SplineSet
219 677 m 1,0,-1
 286 515 l 1,1,-1
 260 515 l 1,2,-1
 181 602 l 1,3,-1
 74 515 l 1,4,-1
 48 515 l 1,5,-1
 169 677 l 1,6,-1
 219 677 l 1,0,-1
105 380 m 1,7,8
 105 380 105 380 42 385 c 1,9,-1
 46 408 l 1,10,11
 65 408 65 408 124 429.5 c 128,-1,12
 183 451 183 451 206 451 c 1,13,-1
 124 -43 l 2,14,15
 110 -125 110 -125 66.5 -162 c 128,-1,16
 23 -199 23 -199 -34 -199 c 0,17,18
 -152 -199 -152 -199 -152 -129 c 0,19,20
 -152 -103 -152 -103 -137 -87.5 c 128,-1,21
 -122 -72 -122 -72 -101 -72 c 0,22,23
 -87 -72 -87 -72 -77.5 -80.5 c 128,-1,24
 -68 -89 -68 -89 -68 -104 c 0,25,26
 -68 -122 -68 -122 -83 -135 c 1,27,-1
 -83 -141 l 2,28,29
 -83 -169 -83 -169 -39 -169 c 0,30,31
 -19 -169 -19 -169 1.5 -139.5 c 128,-1,32
 22 -110 22 -110 31 -57 c 2,33,-1
 105 380 l 1,7,8
EndSplineSet
EndChar

StartChar: Kcommaaccent
Encoding: 310 310 248
Width: 581
GlyphClass: 2
Flags: W
LayerCount: 2
Fore
SplineSet
203 -90 m 0,0,1
 203 -61 203 -61 222.5 -49.5 c 128,-1,2
 242 -38 242 -38 258 -38 c 0,3,4
 292 -38 292 -38 314 -57 c 128,-1,5
 336 -76 336 -76 336 -109 c 0,6,7
 336 -141 336 -141 319 -167.5 c 128,-1,8
 302 -194 302 -194 274.5 -210 c 128,-1,9
 247 -226 247 -226 228.5 -234 c 128,-1,10
 210 -242 210 -242 190 -248 c 1,11,-1
 195 -220 l 1,12,13
 221 -217 221 -217 251 -192.5 c 128,-1,14
 281 -168 281 -168 287 -137 c 0,15,16
 290 -118 290 -118 289 -115 c 128,-1,17
 288 -112 288 -112 281 -112 c 0,18,19
 278 -112 278 -112 268.5 -118.5 c 128,-1,20
 259 -125 259 -125 248 -125 c 0,21,22
 203 -125 203 -125 203 -90 c 0,0,1
2 0 m 1,23,-1
 6 21 l 1,24,25
 61 21 61 21 72 41 c 1,26,-1
 156 544 l 1,27,28
 150 564 150 564 96 564 c 1,29,-1
 100 585 l 1,30,-1
 316 585 l 1,31,-1
 312 564 l 1,32,33
 257 564 257 564 246 544 c 1,34,-1
 162 41 l 1,35,36
 168 21 168 21 222 21 c 1,37,-1
 218 0 l 1,38,-1
 2 0 l 1,23,-1
351 0 m 1,39,-1
 355 21 l 1,40,41
 378 21 378 21 392 24 c 1,42,-1
 213 314 l 1,43,-1
 498 557 l 1,44,45
 485 564 485 564 448 564 c 1,46,-1
 452 585 l 1,47,-1
 609 585 l 1,48,-1
 605 564 l 1,49,50
 566 564 566 564 540 541 c 2,51,-1
 305 342 l 1,52,-1
 489 37 l 1,53,54
 502 21 502 21 550 21 c 1,55,-1
 546 0 l 1,56,-1
 351 0 l 1,39,-1
EndSplineSet
EndChar

StartChar: kcommaaccent
Encoding: 311 311 249
Width: 486
GlyphClass: 2
Flags: W
LayerCount: 2
Fore
SplineSet
143 -90 m 0,0,1
 143 -61 143 -61 162.5 -49.5 c 128,-1,2
 182 -38 182 -38 198 -38 c 0,3,4
 232 -38 232 -38 254 -57 c 128,-1,5
 276 -76 276 -76 276 -109 c 0,6,7
 276 -141 276 -141 259 -167.5 c 128,-1,8
 242 -194 242 -194 214.5 -210 c 128,-1,9
 187 -226 187 -226 168.5 -234 c 128,-1,10
 150 -242 150 -242 130 -248 c 1,11,-1
 135 -220 l 1,12,13
 161 -217 161 -217 191 -192.5 c 128,-1,14
 221 -168 221 -168 227 -137 c 0,15,16
 230 -118 230 -118 229 -115 c 128,-1,17
 228 -112 228 -112 221 -112 c 0,18,19
 218 -112 218 -112 208.5 -118.5 c 128,-1,20
 199 -125 199 -125 188 -125 c 0,21,22
 143 -125 143 -125 143 -90 c 0,0,1
482 440 m 1,23,-1
 478 419 l 1,24,25
 439 419 439 419 422 406 c 2,26,-1
 259 279 l 1,27,-1
 391 40 l 2,28,29
 402 21 402 21 451 21 c 1,30,-1
 447 0 l 1,31,-1
 346 0 l 2,32,33
 305 0 305 0 280 48 c 1,34,-1
 166 254 l 1,35,-1
 369 413 l 1,36,37
 356 419 356 419 321 419 c 1,38,-1
 325 440 l 1,39,-1
 482 440 l 1,23,-1
120 559 m 1,40,41
 58 564 58 564 57 564 c 2,42,-1
 61 587 l 1,43,44
 80 587 80 587 139 608.5 c 128,-1,45
 198 630 198 630 221 630 c 1,46,-1
 116 0 l 1,47,-1
 26 0 l 1,48,-1
 120 559 l 1,40,41
EndSplineSet
EndChar

StartChar: Lacute
Encoding: 313 313 250
Width: 495
GlyphClass: 2
Flags: W
LayerCount: 2
Fore
SplineSet
303 782 m 1,0,-1
 409 782 l 1,1,-1
 228 620 l 1,2,-1
 202 620 l 1,3,-1
 303 782 l 1,0,-1
2 0 m 1,4,-1
 6 21 l 1,5,6
 61 21 61 21 72 41 c 1,7,-1
 156 544 l 1,8,9
 150 564 150 564 96 564 c 1,10,-1
 100 585 l 1,11,-1
 318 585 l 1,12,-1
 314 564 l 1,13,14
 259 564 259 564 248 544 c 1,15,-1
 163 34 l 1,16,-1
 391 34 l 1,17,18
 417 44 417 44 446 97 c 1,19,-1
 466 97 l 1,20,-1
 426 0 l 1,21,-1
 2 0 l 1,4,-1
EndSplineSet
EndChar

StartChar: lacute
Encoding: 314 314 251
Width: 240
GlyphClass: 2
Flags: W
LayerCount: 2
Fore
SplineSet
271 817 m 1,0,-1
 377 817 l 1,1,-1
 196 655 l 1,2,-1
 170 655 l 1,3,-1
 271 817 l 1,0,-1
120 559 m 1,4,5
 58 564 58 564 57 564 c 2,6,-1
 61 587 l 1,7,8
 80 587 80 587 139 608.5 c 128,-1,9
 198 630 198 630 221 630 c 1,10,-1
 134 106 l 2,11,12
 132 90 132 90 132 84 c 0,13,14
 132 55 132 55 145.5 39 c 128,-1,15
 159 23 159 23 183 23 c 1,16,-1
 179 0 l 1,17,18
 109 0 109 0 74.5 18 c 128,-1,19
 40 36 40 36 40 76 c 0,20,21
 40 82 40 82 42 96 c 2,22,-1
 120 559 l 1,4,5
EndSplineSet
EndChar

StartChar: Lcommaaccent
Encoding: 315 315 252
Width: 493
GlyphClass: 2
Flags: W
LayerCount: 2
Fore
SplineSet
157 -90 m 0,0,1
 157 -61 157 -61 176.5 -49.5 c 128,-1,2
 196 -38 196 -38 212 -38 c 0,3,4
 246 -38 246 -38 268 -57 c 128,-1,5
 290 -76 290 -76 290 -109 c 0,6,7
 290 -141 290 -141 273 -167.5 c 128,-1,8
 256 -194 256 -194 228.5 -210 c 128,-1,9
 201 -226 201 -226 182.5 -234 c 128,-1,10
 164 -242 164 -242 144 -248 c 1,11,-1
 149 -220 l 1,12,13
 175 -217 175 -217 205 -192.5 c 128,-1,14
 235 -168 235 -168 241 -137 c 0,15,16
 244 -118 244 -118 243 -115 c 128,-1,17
 242 -112 242 -112 235 -112 c 0,18,19
 232 -112 232 -112 222.5 -118.5 c 128,-1,20
 213 -125 213 -125 202 -125 c 0,21,22
 157 -125 157 -125 157 -90 c 0,0,1
2 0 m 1,23,-1
 6 21 l 1,24,25
 61 21 61 21 72 41 c 1,26,-1
 156 544 l 1,27,28
 150 564 150 564 96 564 c 1,29,-1
 100 585 l 1,30,-1
 318 585 l 1,31,-1
 314 564 l 1,32,33
 259 564 259 564 248 544 c 1,34,-1
 163 34 l 1,35,-1
 391 34 l 1,36,37
 417 44 417 44 446 97 c 1,38,-1
 466 97 l 1,39,-1
 426 0 l 1,40,-1
 2 0 l 1,23,-1
EndSplineSet
EndChar

StartChar: lcommaaccent
Encoding: 316 316 253
Width: 240
GlyphClass: 2
Flags: W
LayerCount: 2
Fore
SplineSet
23 -90 m 0,0,1
 23 -61 23 -61 42.5 -49.5 c 128,-1,2
 62 -38 62 -38 78 -38 c 0,3,4
 112 -38 112 -38 134 -57 c 128,-1,5
 156 -76 156 -76 156 -109 c 0,6,7
 156 -141 156 -141 139 -167.5 c 128,-1,8
 122 -194 122 -194 94.5 -210 c 128,-1,9
 67 -226 67 -226 48.5 -234 c 128,-1,10
 30 -242 30 -242 10 -248 c 1,11,-1
 15 -220 l 1,12,13
 41 -217 41 -217 71 -192.5 c 128,-1,14
 101 -168 101 -168 107 -137 c 0,15,16
 110 -118 110 -118 109 -115 c 128,-1,17
 108 -112 108 -112 101 -112 c 0,18,19
 98 -112 98 -112 88.5 -118.5 c 128,-1,20
 79 -125 79 -125 68 -125 c 0,21,22
 23 -125 23 -125 23 -90 c 0,0,1
120 559 m 1,23,24
 58 564 58 564 57 564 c 2,25,-1
 61 587 l 1,26,27
 80 587 80 587 139 608.5 c 128,-1,28
 198 630 198 630 221 630 c 1,29,-1
 134 106 l 2,30,31
 132 90 132 90 132 84 c 0,32,33
 132 55 132 55 145.5 39 c 128,-1,34
 159 23 159 23 183 23 c 1,35,-1
 179 0 l 1,36,37
 109 0 109 0 74.5 18 c 128,-1,38
 40 36 40 36 40 76 c 0,39,40
 40 82 40 82 42 96 c 2,41,-1
 120 559 l 1,23,24
EndSplineSet
EndChar

StartChar: Lcaron
Encoding: 317 317 254
Width: 500
GlyphClass: 2
Flags: W
LayerCount: 2
Fore
SplineSet
357 544 m 0,0,1
 357 573 357 573 376.5 584.5 c 128,-1,2
 396 596 396 596 412 596 c 0,3,4
 446 596 446 596 468 577 c 128,-1,5
 490 558 490 558 490 525 c 0,6,7
 490 493 490 493 473 466.5 c 128,-1,8
 456 440 456 440 428.5 424 c 128,-1,9
 401 408 401 408 382.5 400 c 128,-1,10
 364 392 364 392 344 386 c 1,11,-1
 349 414 l 1,12,13
 375 417 375 417 405 441.5 c 128,-1,14
 435 466 435 466 441 497 c 0,15,16
 444 516 444 516 443 519 c 128,-1,17
 442 522 442 522 435 522 c 0,18,19
 432 522 432 522 422.5 515.5 c 128,-1,20
 413 509 413 509 402 509 c 0,21,22
 357 509 357 509 357 544 c 0,0,1
2 0 m 1,23,-1
 6 21 l 1,24,25
 61 21 61 21 72 41 c 1,26,-1
 156 544 l 1,27,28
 150 564 150 564 96 564 c 1,29,-1
 100 585 l 1,30,-1
 318 585 l 1,31,-1
 314 564 l 1,32,33
 259 564 259 564 248 544 c 1,34,-1
 163 34 l 1,35,-1
 391 34 l 1,36,37
 417 44 417 44 446 97 c 1,38,-1
 466 97 l 1,39,-1
 426 0 l 1,40,-1
 2 0 l 1,23,-1
EndSplineSet
EndChar

StartChar: lcaron
Encoding: 318 318 255
Width: 263
GlyphClass: 2
Flags: W
LayerCount: 2
Fore
SplineSet
249 580 m 0,0,1
 249 609 249 609 268.5 620.5 c 128,-1,2
 288 632 288 632 304 632 c 0,3,4
 338 632 338 632 360 613 c 128,-1,5
 382 594 382 594 382 561 c 0,6,7
 382 529 382 529 365 502.5 c 128,-1,8
 348 476 348 476 320.5 460 c 128,-1,9
 293 444 293 444 274.5 436 c 128,-1,10
 256 428 256 428 236 422 c 1,11,-1
 241 450 l 1,12,13
 267 453 267 453 297 477.5 c 128,-1,14
 327 502 327 502 333 533 c 0,15,16
 336 552 336 552 335 555 c 128,-1,17
 334 558 334 558 327 558 c 0,18,19
 324 558 324 558 314.5 551.5 c 128,-1,20
 305 545 305 545 294 545 c 0,21,22
 249 545 249 545 249 580 c 0,0,1
120 559 m 1,23,24
 58 564 58 564 57 564 c 2,25,-1
 61 587 l 1,26,27
 80 587 80 587 139 608.5 c 128,-1,28
 198 630 198 630 221 630 c 1,29,-1
 134 106 l 2,30,31
 132 90 132 90 132 84 c 0,32,33
 132 55 132 55 145.5 39 c 128,-1,34
 159 23 159 23 183 23 c 1,35,-1
 179 0 l 1,36,37
 109 0 109 0 74.5 18 c 128,-1,38
 40 36 40 36 40 76 c 0,39,40
 40 82 40 82 42 96 c 2,41,-1
 120 559 l 1,23,24
EndSplineSet
EndChar

StartChar: Ldot
Encoding: 319 319 256
Width: 497
GlyphClass: 2
Flags: W
LayerCount: 2
Fore
SplineSet
2 0 m 1,0,-1
 6 21 l 1,1,2
 61 21 61 21 72 41 c 1,3,-1
 156 544 l 1,4,5
 150 564 150 564 96 564 c 1,6,-1
 100 585 l 1,7,-1
 318 585 l 1,8,-1
 314 564 l 1,9,10
 259 564 259 564 248 544 c 1,11,-1
 163 34 l 1,12,-1
 391 34 l 1,13,14
 417 44 417 44 446 97 c 1,15,-1
 466 97 l 1,16,-1
 426 0 l 1,17,-1
 2 0 l 1,0,-1
357 300 m 0,18,19
 357 325 357 325 375.5 342 c 128,-1,20
 394 359 394 359 417 359 c 0,21,22
 436 359 436 359 448 346.5 c 128,-1,23
 460 334 460 334 460 316 c 0,24,25
 460 291 460 291 441.5 274 c 128,-1,26
 423 257 423 257 400 257 c 0,27,28
 381 257 381 257 369 269.5 c 128,-1,29
 357 282 357 282 357 300 c 0,18,19
EndSplineSet
EndChar

StartChar: ldot
Encoding: 320 320 257
Width: 328
GlyphClass: 2
Flags: W
LayerCount: 2
Fore
SplineSet
120 559 m 1,0,1
 58 564 58 564 57 564 c 2,2,-1
 61 587 l 1,3,4
 80 587 80 587 139 608.5 c 128,-1,5
 198 630 198 630 221 630 c 1,6,-1
 134 106 l 2,7,8
 132 90 132 90 132 84 c 0,9,10
 132 55 132 55 145.5 39 c 128,-1,11
 159 23 159 23 183 23 c 1,12,-1
 179 0 l 1,13,14
 109 0 109 0 74.5 18 c 128,-1,15
 40 36 40 36 40 76 c 0,16,17
 40 82 40 82 42 96 c 2,18,-1
 120 559 l 1,0,1
235 300 m 0,19,20
 235 325 235 325 253.5 342 c 128,-1,21
 272 359 272 359 295 359 c 0,22,23
 314 359 314 359 326 346.5 c 128,-1,24
 338 334 338 334 338 316 c 0,25,26
 338 291 338 291 319.5 274 c 128,-1,27
 301 257 301 257 278 257 c 0,28,29
 259 257 259 257 247 269.5 c 128,-1,30
 235 282 235 282 235 300 c 0,19,20
EndSplineSet
EndChar

StartChar: Lslash
Encoding: 321 321 258
Width: 494
GlyphClass: 2
Flags: W
LayerCount: 2
Fore
SplineSet
2 0 m 1,0,-1
 6 21 l 1,1,2
 61 21 61 21 72 41 c 1,3,-1
 111 277 l 1,4,-1
 65 243 l 1,5,-1
 48 269 l 1,6,-1
 119 321 l 1,7,-1
 156 544 l 1,8,9
 150 564 150 564 96 564 c 1,10,-1
 100 585 l 1,11,-1
 318 585 l 1,12,-1
 314 564 l 1,13,14
 259 564 259 564 248 544 c 1,15,-1
 224 399 l 1,16,-1
 278 439 l 1,17,-1
 296 413 l 1,18,-1
 216 354 l 1,19,-1
 163 34 l 1,20,-1
 391 34 l 1,21,22
 417 44 417 44 446 97 c 1,23,-1
 466 97 l 1,24,-1
 426 0 l 1,25,-1
 2 0 l 1,0,-1
EndSplineSet
EndChar

StartChar: lslash
Encoding: 322 322 259
Width: 242
GlyphClass: 2
Flags: W
LayerCount: 2
Fore
SplineSet
122 559 m 1,0,1
 60 564 60 564 59 564 c 2,2,-1
 63 587 l 1,3,4
 82 587 82 587 141 608.5 c 128,-1,5
 200 630 200 630 223 630 c 1,6,-1
 185 400 l 1,7,-1
 238 439 l 1,8,-1
 256 413 l 1,9,-1
 177 355 l 1,10,-1
 136 106 l 2,11,12
 134 90 134 90 134 84 c 0,13,14
 134 55 134 55 147.5 39 c 128,-1,15
 161 23 161 23 185 23 c 1,16,-1
 181 0 l 1,17,18
 111 0 111 0 76.5 18 c 128,-1,19
 42 36 42 36 42 76 c 0,20,21
 42 82 42 82 44 96 c 2,22,-1
 75 280 l 1,23,-1
 25 243 l 1,24,-1
 8 269 l 1,25,-1
 82 324 l 1,26,-1
 122 559 l 1,0,1
EndSplineSet
EndChar

StartChar: Nacute
Encoding: 323 323 260
Width: 643
GlyphClass: 2
Flags: W
LayerCount: 2
Fore
SplineSet
470 782 m 1,0,-1
 576 782 l 1,1,-1
 395 620 l 1,2,-1
 369 620 l 1,3,-1
 470 782 l 1,0,-1
2 0 m 1,4,-1
 6 21 l 1,5,6
 61 21 61 21 72 41 c 1,7,-1
 156 544 l 1,8,9
 150 564 150 564 96 564 c 1,10,-1
 100 585 l 1,11,-1
 234 585 l 1,12,-1
 496 176 l 1,13,-1
 558 544 l 1,14,15
 552 564 552 564 498 564 c 1,16,-1
 502 585 l 1,17,-1
 662 585 l 1,18,-1
 658 564 l 1,19,20
 603 564 603 564 592 544 c 1,21,-1
 501 0 l 1,22,-1
 492 0 l 1,23,-1
 182 497 l 1,24,-1
 106 41 l 1,25,26
 112 21 112 21 166 21 c 1,27,-1
 162 0 l 1,28,-1
 2 0 l 1,4,-1
EndSplineSet
EndChar

StartChar: nacute
Encoding: 324 324 261
Width: 550
GlyphClass: 2
Flags: W
LayerCount: 2
Fore
SplineSet
409 673 m 1,0,-1
 515 673 l 1,1,-1
 334 511 l 1,2,-1
 308 511 l 1,3,-1
 409 673 l 1,0,-1
196 377 m 1,4,5
 256 451 256 451 355 451 c 0,6,7
 483 451 483 451 483 345 c 0,8,9
 483 328 483 328 480 308 c 2,10,-1
 446 106 l 2,11,12
 444 90 444 90 444 84 c 0,13,14
 444 55 444 55 457.5 39 c 128,-1,15
 471 23 471 23 495 23 c 1,16,-1
 491 0 l 1,17,18
 421 0 421 0 386.5 18 c 128,-1,19
 352 36 352 36 352 76 c 0,20,21
 352 82 352 82 354 96 c 2,22,-1
 391 315 l 2,23,24
 393 325 393 325 393 344 c 0,25,26
 393 416 393 416 316 416 c 0,27,28
 245 416 245 416 187 321 c 1,29,-1
 133 0 l 1,30,-1
 43 0 l 1,31,-1
 106 379 l 1,32,33
 97 380 97 380 83 381 c 128,-1,34
 69 382 69 382 60 383 c 128,-1,35
 51 384 51 384 44 384 c 1,36,-1
 48 407 l 1,37,38
 67 407 67 407 126 428.5 c 128,-1,39
 185 450 185 450 208 450 c 1,40,-1
 196 377 l 1,4,5
EndSplineSet
EndChar

StartChar: Ncommaaccent
Encoding: 325 325 262
Width: 643
GlyphClass: 2
Flags: W
LayerCount: 2
Fore
SplineSet
209 -90 m 0,0,1
 209 -61 209 -61 228.5 -49.5 c 128,-1,2
 248 -38 248 -38 264 -38 c 0,3,4
 298 -38 298 -38 320 -57 c 128,-1,5
 342 -76 342 -76 342 -109 c 0,6,7
 342 -141 342 -141 325 -167.5 c 128,-1,8
 308 -194 308 -194 280.5 -210 c 128,-1,9
 253 -226 253 -226 234.5 -234 c 128,-1,10
 216 -242 216 -242 196 -248 c 1,11,-1
 201 -220 l 1,12,13
 227 -217 227 -217 257 -192.5 c 128,-1,14
 287 -168 287 -168 293 -137 c 0,15,16
 296 -118 296 -118 295 -115 c 128,-1,17
 294 -112 294 -112 287 -112 c 0,18,19
 284 -112 284 -112 274.5 -118.5 c 128,-1,20
 265 -125 265 -125 254 -125 c 0,21,22
 209 -125 209 -125 209 -90 c 0,0,1
2 0 m 1,23,-1
 6 21 l 1,24,25
 61 21 61 21 72 41 c 1,26,-1
 156 544 l 1,27,28
 150 564 150 564 96 564 c 1,29,-1
 100 585 l 1,30,-1
 234 585 l 1,31,-1
 496 176 l 1,32,-1
 558 544 l 1,33,34
 552 564 552 564 498 564 c 1,35,-1
 502 585 l 1,36,-1
 662 585 l 1,37,-1
 658 564 l 1,38,39
 603 564 603 564 592 544 c 1,40,-1
 501 0 l 1,41,-1
 492 0 l 1,42,-1
 182 497 l 1,43,-1
 106 41 l 1,44,45
 112 21 112 21 166 21 c 1,46,-1
 162 0 l 1,47,-1
 2 0 l 1,23,-1
EndSplineSet
EndChar

StartChar: ncommaaccent
Encoding: 326 326 263
Width: 549
GlyphClass: 2
Flags: W
LayerCount: 2
Fore
SplineSet
179 -112 m 0,0,1
 179 -83 179 -83 198.5 -71.5 c 128,-1,2
 218 -60 218 -60 234 -60 c 0,3,4
 268 -60 268 -60 290 -79 c 128,-1,5
 312 -98 312 -98 312 -131 c 0,6,7
 312 -163 312 -163 295 -189.5 c 128,-1,8
 278 -216 278 -216 250.5 -232 c 128,-1,9
 223 -248 223 -248 204.5 -256 c 128,-1,10
 186 -264 186 -264 166 -270 c 1,11,-1
 171 -242 l 1,12,13
 197 -239 197 -239 227 -214.5 c 128,-1,14
 257 -190 257 -190 263 -159 c 0,15,16
 266 -140 266 -140 265 -137 c 128,-1,17
 264 -134 264 -134 257 -134 c 0,18,19
 254 -134 254 -134 244.5 -140.5 c 128,-1,20
 235 -147 235 -147 224 -147 c 0,21,22
 179 -147 179 -147 179 -112 c 0,0,1
195 377 m 1,23,24
 255 451 255 451 354 451 c 0,25,26
 482 451 482 451 482 345 c 0,27,28
 482 328 482 328 479 308 c 2,29,-1
 445 106 l 2,30,31
 443 90 443 90 443 84 c 0,32,33
 443 55 443 55 456.5 39 c 128,-1,34
 470 23 470 23 494 23 c 1,35,-1
 490 0 l 1,36,37
 420 0 420 0 385.5 18 c 128,-1,38
 351 36 351 36 351 76 c 0,39,40
 351 82 351 82 353 96 c 2,41,-1
 390 315 l 2,42,43
 392 325 392 325 392 344 c 0,44,45
 392 416 392 416 315 416 c 0,46,47
 244 416 244 416 186 321 c 1,48,-1
 132 0 l 1,49,-1
 42 0 l 1,50,-1
 105 379 l 1,51,52
 96 380 96 380 82 381 c 128,-1,53
 68 382 68 382 59 383 c 128,-1,54
 50 384 50 384 43 384 c 1,55,-1
 47 407 l 1,56,57
 66 407 66 407 125 428.5 c 128,-1,58
 184 450 184 450 207 450 c 1,59,-1
 195 377 l 1,23,24
EndSplineSet
EndChar

StartChar: Ncaron
Encoding: 327 327 264
Width: 643
GlyphClass: 2
Flags: W
LayerCount: 2
Fore
SplineSet
358 620 m 1,0,-1
 291 782 l 1,1,-1
 317 782 l 1,2,-1
 395 695 l 1,3,-1
 503 782 l 1,4,-1
 529 782 l 1,5,-1
 408 620 l 1,6,-1
 358 620 l 1,0,-1
2 0 m 1,7,-1
 6 21 l 1,8,9
 61 21 61 21 72 41 c 1,10,-1
 156 544 l 1,11,12
 150 564 150 564 96 564 c 1,13,-1
 100 585 l 1,14,-1
 234 585 l 1,15,-1
 496 176 l 1,16,-1
 558 544 l 1,17,18
 552 564 552 564 498 564 c 1,19,-1
 502 585 l 1,20,-1
 662 585 l 1,21,-1
 658 564 l 1,22,23
 603 564 603 564 592 544 c 1,24,-1
 501 0 l 1,25,-1
 492 0 l 1,26,-1
 182 497 l 1,27,-1
 106 41 l 1,28,29
 112 21 112 21 166 21 c 1,30,-1
 162 0 l 1,31,-1
 2 0 l 1,7,-1
EndSplineSet
EndChar

StartChar: ncaron
Encoding: 328 328 265
Width: 550
GlyphClass: 2
Flags: W
LayerCount: 2
Fore
SplineSet
296 511 m 1,0,-1
 229 673 l 1,1,-1
 255 673 l 1,2,-1
 333 586 l 1,3,-1
 441 673 l 1,4,-1
 467 673 l 1,5,-1
 346 511 l 1,6,-1
 296 511 l 1,0,-1
196 377 m 1,7,8
 256 451 256 451 355 451 c 0,9,10
 483 451 483 451 483 345 c 0,11,12
 483 328 483 328 480 308 c 2,13,-1
 446 106 l 2,14,15
 444 90 444 90 444 84 c 0,16,17
 444 55 444 55 457.5 39 c 128,-1,18
 471 23 471 23 495 23 c 1,19,-1
 491 0 l 1,20,21
 421 0 421 0 386.5 18 c 128,-1,22
 352 36 352 36 352 76 c 0,23,24
 352 82 352 82 354 96 c 2,25,-1
 391 315 l 2,26,27
 393 325 393 325 393 344 c 0,28,29
 393 416 393 416 316 416 c 0,30,31
 245 416 245 416 187 321 c 1,32,-1
 133 0 l 1,33,-1
 43 0 l 1,34,-1
 106 379 l 1,35,36
 97 380 97 380 83 381 c 128,-1,37
 69 382 69 382 60 383 c 128,-1,38
 51 384 51 384 44 384 c 1,39,-1
 48 407 l 1,40,41
 67 407 67 407 126 428.5 c 128,-1,42
 185 450 185 450 208 450 c 1,43,-1
 196 377 l 1,7,8
EndSplineSet
EndChar

